<?xml version="1.0" encoding="utf-8" standalone="no"?>
<!DOCTYPE svg PUBLIC "-//W3C//DTD SVG 1.1//EN"
  "http://www.w3.org/Graphics/SVG/1.1/DTD/svg11.dtd">
<!-- Created with matplotlib (http://matplotlib.org/) -->
<svg height="432pt" version="1.1" viewBox="0 0 576 432" width="576pt" xmlns="http://www.w3.org/2000/svg" xmlns:xlink="http://www.w3.org/1999/xlink">
 <defs>
  <style type="text/css">
*{stroke-linecap:butt;stroke-linejoin:round;}
  </style>
 </defs>
 <g id="figure_1">
  <g id="patch_1">
   <path d="
M0 432
L576 432
L576 0
L0 0
z
" style="fill:#ffffff;"/>
  </g>
  <g id="axes_1">
   <g id="patch_2">
    <path d="
M46.7288 386.812
L563.04 386.812
L563.04 28.9018
L46.7288 28.9018
z
" style="fill:#ffffff;"/>
   </g>
   <g id="line2d_1">
    <path clip-path="url(#p5320e587fb)" d="
M46.7288 356.987
L50.3142 88.5535
L53.8997 327.161
L57.4852 207.857
L64.6562 267.509
L68.2417 267.509
L71.8272 327.161
L75.4127 297.335
L78.9982 327.161
L82.5837 327.161
L89.7547 267.509
L93.3402 297.335
L96.9257 356.987
L100.511 267.509
L104.097 356.987
L107.682 207.857
L111.268 267.509
L114.853 297.335
L118.439 207.857
L122.024 327.161
L125.61 207.857
L129.195 237.683
L132.781 237.683
L136.366 267.509
L139.952 148.205
L143.537 267.509
L147.123 297.335
L150.708 207.857
L154.294 356.987
L161.465 237.683
L165.05 237.683
L168.636 297.335
L172.221 327.161
L175.807 267.509
L179.392 327.161
L182.978 297.335
L186.563 297.335
L190.149 148.205
L193.734 237.683
L197.32 207.857
L200.905 327.161
L204.491 178.031
L208.076 148.205
L211.662 148.205
L215.247 207.857
L218.832 327.161
L222.418 327.161
L226.003 207.857
L229.589 267.509
L233.174 297.335
L236.76 207.857
L240.345 237.683
L243.931 297.335
L247.516 178.031
L251.102 88.5535
L254.687 207.857
L258.273 297.335
L261.858 327.161
L265.444 237.683
L276.2 327.161
L283.371 207.857
L286.957 297.335
L294.128 297.335
L297.713 327.161
L304.884 267.509
L312.055 267.509
L319.226 327.161
L329.983 327.161
L333.568 178.031
L337.154 297.335
L340.739 237.683
L344.325 327.161
L347.91 237.683
L358.667 327.161
L362.252 267.509
L365.838 237.683
L369.423 267.509
L376.594 148.205
L380.18 207.857
L383.765 327.161
L387.351 207.857
L390.936 178.031
L394.522 207.857
L398.107 267.509
L401.693 28.9018
L405.278 267.509
L408.864 237.683
L412.449 237.683
L416.035 297.335
L419.62 178.031
L423.206 207.857
L426.791 327.161
L430.377 297.335
L433.962 178.031
L437.548 297.335
L441.133 148.205
L444.719 178.031
L448.304 267.509
L451.89 267.509
L455.475 207.857
L459.061 297.335
L462.646 327.161
L466.232 148.205
L469.817 267.509
L473.403 207.857
L476.988 327.161
L480.574 237.683
L484.159 237.683
L487.745 207.857
L491.33 297.335
L498.501 237.683
L502.087 178.031
L505.672 297.335
L509.258 297.335
L512.843 148.205
L516.429 237.683
L520.014 356.987
L523.6 207.857
L527.185 88.5535
L530.771 267.509
L534.356 267.509
L537.942 207.857
L541.527 327.161
L545.113 267.509
L548.698 237.683
L552.284 356.987
L555.869 178.031
L559.455 207.857
L563.04 386.812
L563.04 386.812" style="fill:none;stroke:#ff0000;stroke-linecap:square;stroke-width:0.5;"/>
   </g>
   <g id="line2d_2">
    <path clip-path="url(#p5320e587fb)" d="
M46.7288 238.986
L50.3142 249.506
L53.8997 258.529
L57.4852 266.178
L61.0707 272.568
L64.6562 277.81
L68.2417 282.008
L71.8272 285.26
L75.4127 287.661
L78.9982 289.297
L82.5837 290.252
L86.1692 290.603
L89.7547 290.423
L93.3402 289.781
L96.9257 288.739
L100.511 287.359
L104.097 285.695
L107.682 283.798
L111.268 281.715
L118.439 277.167
L139.952 262.932
L147.123 258.688
L150.708 256.745
L154.294 254.937
L157.879 253.275
L161.465 251.767
L165.05 250.42
L168.636 249.237
L172.221 248.221
L175.807 247.375
L179.392 246.697
L182.978 246.187
L186.563 245.841
L190.149 245.655
L193.734 245.626
L197.32 245.746
L200.905 246.01
L204.491 246.41
L208.076 246.937
L215.247 248.339
L222.418 250.141
L229.589 252.26
L236.76 254.612
L251.102 259.663
L261.858 263.42
L269.029 265.759
L276.2 267.88
L283.371 269.717
L290.542 271.212
L297.713 272.319
L304.884 272.999
L308.47 273.169
L312.055 273.223
L315.641 273.159
L319.226 272.975
L322.812 272.672
L326.397 272.249
L329.983 271.708
L333.568 271.05
L340.739 269.395
L347.91 267.311
L355.081 264.836
L362.252 262.018
L369.423 258.914
L376.594 255.589
L390.936 248.578
L401.693 243.327
L408.864 239.994
L416.035 236.898
L423.206 234.129
L430.377 231.771
L433.962 230.772
L437.548 229.905
L441.133 229.179
L444.719 228.602
L448.304 228.182
L451.89 227.925
L455.475 227.837
L459.061 227.922
L462.646 228.184
L466.232 228.626
L469.817 229.248
L473.403 230.051
L476.988 231.032
L480.574 232.189
L484.159 233.516
L487.745 235.006
L491.33 236.651
L494.916 238.439
L502.087 242.394
L509.258 246.738
L527.185 258.061
L530.771 260.158
L534.356 262.108
L537.942 263.869
L541.527 265.39
L545.113 266.618
L548.698 267.496
L552.284 267.964
L555.869 267.955
L559.455 267.4
L563.04 266.223
L563.04 266.223" style="fill:none;stroke:#ff0000;stroke-linecap:square;stroke-width:2.0;"/>
   </g>
   <g id="line2d_3">
    <path clip-path="url(#p5320e587fb)" d="
M46.7288 386.812
L50.3142 327.161
L53.8997 148.205
L57.4852 297.335
L61.0707 267.509
L64.6562 207.857
L68.2417 207.857
L71.8272 297.335
L75.4127 267.509
L78.9982 327.161
L82.5837 297.335
L86.1692 327.161
L89.7547 327.161
L93.3402 267.509
L96.9257 237.683
L100.511 267.509
L104.097 327.161
L107.682 327.161
L111.268 267.509
L114.853 356.987
L118.439 267.509
L122.024 356.987
L129.195 297.335
L132.781 356.987
L136.366 207.857
L139.952 297.335
L143.537 297.335
L147.123 237.683
L150.708 297.335
L154.294 327.161
L157.879 267.509
L161.465 267.509
L165.05 237.683
L168.636 356.987
L172.221 207.857
L175.807 237.683
L179.392 297.335
L182.978 88.5535
L186.563 386.812
L190.149 297.335
L197.32 297.335
L200.905 267.509
L208.076 267.509
L211.662 297.335
L215.247 267.509
L222.418 327.161
L226.003 327.161
L229.589 356.987
L233.174 267.509
L236.76 118.379
L240.345 207.857
L243.931 267.509
L247.516 297.335
L251.102 267.509
L254.687 327.161
L258.273 297.335
L261.858 327.161
L269.029 267.509
L272.615 148.205
L276.2 327.161
L279.786 237.683
L283.371 297.335
L286.957 207.857
L290.542 297.335
L294.128 297.335
L297.713 327.161
L301.299 327.161
L304.884 237.683
L308.47 178.031
L312.055 327.161
L315.641 297.335
L319.226 297.335
L322.812 356.987
L326.397 178.031
L329.983 297.335
L333.568 386.812
L337.154 297.335
L340.739 327.161
L344.325 207.857
L347.91 327.161
L351.496 297.335
L355.081 327.161
L358.667 267.509
L362.252 327.161
L365.838 148.205
L369.423 297.335
L373.009 237.683
L376.594 207.857
L380.18 148.205
L383.765 327.161
L387.351 327.161
L390.936 207.857
L398.107 327.161
L401.693 297.335
L405.278 178.031
L408.864 327.161
L412.449 327.161
L416.035 267.509
L419.62 297.335
L423.206 297.335
L426.791 237.683
L430.377 207.857
L433.962 297.335
L437.548 207.857
L444.719 327.161
L448.304 267.509
L451.89 267.509
L455.475 297.335
L459.061 297.335
L462.646 356.987
L466.232 237.683
L473.403 297.335
L476.988 148.205
L480.574 327.161
L484.159 297.335
L491.33 178.031
L494.916 267.509
L498.501 327.161
L505.672 207.857
L509.258 327.161
L512.843 267.509
L516.429 297.335
L520.014 297.335
L523.6 356.987
L527.185 327.161
L530.771 148.205
L534.356 327.161
L537.942 327.161
L541.527 237.683
L545.113 356.987
L548.698 237.683
L555.869 237.683
L563.04 356.987
L563.04 356.987" style="fill:none;stroke:#00ff00;stroke-linecap:square;stroke-width:0.5;"/>
   </g>
   <g id="line2d_4">
    <path clip-path="url(#p5320e587fb)" d="
M46.7288 271.689
L50.3142 275
L53.8997 277.928
L57.4852 280.498
L61.0707 282.737
L64.6562 284.669
L68.2417 286.316
L71.8272 287.702
L75.4127 288.847
L78.9982 289.772
L82.5837 290.496
L86.1692 291.036
L89.7547 291.409
L93.3402 291.633
L96.9257 291.722
L104.097 291.553
L111.268 291.007
L118.439 290.177
L125.61 289.144
L136.366 287.363
L161.465 283.04
L172.221 281.409
L182.978 280.017
L193.734 278.899
L204.491 278.067
L215.247 277.511
L226.003 277.207
L236.76 277.12
L251.102 277.264
L272.615 277.798
L297.713 278.422
L312.055 278.577
L326.397 278.489
L337.154 278.236
L347.91 277.813
L362.252 276.994
L376.594 275.919
L394.522 274.328
L423.206 271.732
L433.962 270.94
L444.719 270.357
L455.475 270.055
L462.646 270.046
L469.817 270.217
L476.988 270.586
L484.159 271.174
L491.33 271.997
L498.501 273.07
L505.672 274.404
L512.843 276.011
L520.014 277.893
L527.185 280.052
L534.356 282.484
L541.527 285.18
L548.698 288.123
L555.869 291.292
L563.04 294.655
L563.04 294.655" style="fill:none;stroke:#00ff00;stroke-linecap:square;stroke-width:2.0;"/>
   </g>
   <g id="matplotlib.axis_1">
    <g id="xtick_1">
     <g id="line2d_5">
      <path clip-path="url(#p5320e587fb)" d="
M46.7288 386.812
L46.7288 28.9018" style="fill:none;stroke:#000000;stroke-dasharray:1.000000,3.000000;stroke-dashoffset:0.0;stroke-width:0.5;"/>
     </g>
     <g id="line2d_6">
      <defs>
       <path d="
M0 0
L0 -4" id="m93b0483c22" style="stroke:#000000;stroke-width:0.5;"/>
      </defs>
      <g>
       <use style="stroke:#000000;stroke-width:0.5;" x="46.72875" xlink:href="#m93b0483c22" y="386.8125"/>
      </g>
     </g>
     <g id="line2d_7">
      <defs>
       <path d="
M0 0
L0 4" id="m741efc42ff" style="stroke:#000000;stroke-width:0.5;"/>
      </defs>
      <g>
       <use style="stroke:#000000;stroke-width:0.5;" x="46.72875" xlink:href="#m741efc42ff" y="28.90175"/>
      </g>
     </g>
     <g id="text_1">
      <!-- 0 -->
      <defs>
       <path d="
M31.7812 66.4062
Q24.1719 66.4062 20.3281 58.9062
Q16.5 51.4219 16.5 36.375
Q16.5 21.3906 20.3281 13.8906
Q24.1719 6.39062 31.7812 6.39062
Q39.4531 6.39062 43.2812 13.8906
Q47.125 21.3906 47.125 36.375
Q47.125 51.4219 43.2812 58.9062
Q39.4531 66.4062 31.7812 66.4062
M31.7812 74.2188
Q44.0469 74.2188 50.5156 64.5156
Q56.9844 54.8281 56.9844 36.375
Q56.9844 17.9688 50.5156 8.26562
Q44.0469 -1.42188 31.7812 -1.42188
Q19.5312 -1.42188 13.0625 8.26562
Q6.59375 17.9688 6.59375 36.375
Q6.59375 54.8281 13.0625 64.5156
Q19.5312 74.2188 31.7812 74.2188" id="DejaVuSans-30"/>
      </defs>
      <g transform="translate(43.7053125 399.930625)scale(0.12 -0.12)">
       <use xlink:href="#DejaVuSans-30"/>
      </g>
     </g>
    </g>
    <g id="xtick_2">
     <g id="line2d_8">
      <path clip-path="url(#p5320e587fb)" d="
M118.439 386.812
L118.439 28.9018" style="fill:none;stroke:#000000;stroke-dasharray:1.000000,3.000000;stroke-dashoffset:0.0;stroke-width:0.5;"/>
     </g>
     <g id="line2d_9">
      <g>
       <use style="stroke:#000000;stroke-width:0.5;" x="118.438645833" xlink:href="#m93b0483c22" y="386.8125"/>
      </g>
     </g>
     <g id="line2d_10">
      <g>
       <use style="stroke:#000000;stroke-width:0.5;" x="118.438645833" xlink:href="#m741efc42ff" y="28.90175"/>
      </g>
     </g>
     <g id="text_2">
      <!-- 20 -->
      <defs>
       <path d="
M19.1875 8.29688
L53.6094 8.29688
L53.6094 0
L7.32812 0
L7.32812 8.29688
Q12.9375 14.1094 22.625 23.8906
Q32.3281 33.6875 34.8125 36.5312
Q39.5469 41.8438 41.4219 45.5312
Q43.3125 49.2188 43.3125 52.7812
Q43.3125 58.5938 39.2344 62.25
Q35.1562 65.9219 28.6094 65.9219
Q23.9688 65.9219 18.8125 64.3125
Q13.6719 62.7031 7.8125 59.4219
L7.8125 69.3906
Q13.7656 71.7812 18.9375 73
Q24.125 74.2188 28.4219 74.2188
Q39.75 74.2188 46.4844 68.5469
Q53.2188 62.8906 53.2188 53.4219
Q53.2188 48.9219 51.5312 44.8906
Q49.8594 40.875 45.4062 35.4062
Q44.1875 33.9844 37.6406 27.2188
Q31.1094 20.4531 19.1875 8.29688" id="DejaVuSans-32"/>
      </defs>
      <g transform="translate(111.641770833 399.930625)scale(0.12 -0.12)">
       <use xlink:href="#DejaVuSans-32"/>
       <use x="63.623046875" xlink:href="#DejaVuSans-30"/>
      </g>
     </g>
    </g>
    <g id="xtick_3">
     <g id="line2d_11">
      <path clip-path="url(#p5320e587fb)" d="
M190.149 386.812
L190.149 28.9018" style="fill:none;stroke:#000000;stroke-dasharray:1.000000,3.000000;stroke-dashoffset:0.0;stroke-width:0.5;"/>
     </g>
     <g id="line2d_12">
      <g>
       <use style="stroke:#000000;stroke-width:0.5;" x="190.148541667" xlink:href="#m93b0483c22" y="386.8125"/>
      </g>
     </g>
     <g id="line2d_13">
      <g>
       <use style="stroke:#000000;stroke-width:0.5;" x="190.148541667" xlink:href="#m741efc42ff" y="28.90175"/>
      </g>
     </g>
     <g id="text_3">
      <!-- 40 -->
      <defs>
       <path d="
M37.7969 64.3125
L12.8906 25.3906
L37.7969 25.3906
z

M35.2031 72.9062
L47.6094 72.9062
L47.6094 25.3906
L58.0156 25.3906
L58.0156 17.1875
L47.6094 17.1875
L47.6094 0
L37.7969 0
L37.7969 17.1875
L4.89062 17.1875
L4.89062 26.7031
z
" id="DejaVuSans-34"/>
      </defs>
      <g transform="translate(183.205416667 399.930625)scale(0.12 -0.12)">
       <use xlink:href="#DejaVuSans-34"/>
       <use x="63.623046875" xlink:href="#DejaVuSans-30"/>
      </g>
     </g>
    </g>
    <g id="xtick_4">
     <g id="line2d_14">
      <path clip-path="url(#p5320e587fb)" d="
M261.858 386.812
L261.858 28.9018" style="fill:none;stroke:#000000;stroke-dasharray:1.000000,3.000000;stroke-dashoffset:0.0;stroke-width:0.5;"/>
     </g>
     <g id="line2d_15">
      <g>
       <use style="stroke:#000000;stroke-width:0.5;" x="261.8584375" xlink:href="#m93b0483c22" y="386.8125"/>
      </g>
     </g>
     <g id="line2d_16">
      <g>
       <use style="stroke:#000000;stroke-width:0.5;" x="261.8584375" xlink:href="#m741efc42ff" y="28.90175"/>
      </g>
     </g>
     <g id="text_4">
      <!-- 60 -->
      <defs>
       <path d="
M33.0156 40.375
Q26.375 40.375 22.4844 35.8281
Q18.6094 31.2969 18.6094 23.3906
Q18.6094 15.5312 22.4844 10.9531
Q26.375 6.39062 33.0156 6.39062
Q39.6562 6.39062 43.5312 10.9531
Q47.4062 15.5312 47.4062 23.3906
Q47.4062 31.2969 43.5312 35.8281
Q39.6562 40.375 33.0156 40.375
M52.5938 71.2969
L52.5938 62.3125
Q48.875 64.0625 45.0938 64.9844
Q41.3125 65.9219 37.5938 65.9219
Q27.8281 65.9219 22.6719 59.3281
Q17.5312 52.7344 16.7969 39.4062
Q19.6719 43.6562 24.0156 45.9219
Q28.375 48.1875 33.5938 48.1875
Q44.5781 48.1875 50.9531 41.5156
Q57.3281 34.8594 57.3281 23.3906
Q57.3281 12.1562 50.6875 5.35938
Q44.0469 -1.42188 33.0156 -1.42188
Q20.3594 -1.42188 13.6719 8.26562
Q6.98438 17.9688 6.98438 36.375
Q6.98438 53.6562 15.1875 63.9375
Q23.3906 74.2188 37.2031 74.2188
Q40.9219 74.2188 44.7031 73.4844
Q48.4844 72.75 52.5938 71.2969" id="DejaVuSans-36"/>
      </defs>
      <g transform="translate(255.0409375 399.930625)scale(0.12 -0.12)">
       <use xlink:href="#DejaVuSans-36"/>
       <use x="63.623046875" xlink:href="#DejaVuSans-30"/>
      </g>
     </g>
    </g>
    <g id="xtick_5">
     <g id="line2d_17">
      <path clip-path="url(#p5320e587fb)" d="
M333.568 386.812
L333.568 28.9018" style="fill:none;stroke:#000000;stroke-dasharray:1.000000,3.000000;stroke-dashoffset:0.0;stroke-width:0.5;"/>
     </g>
     <g id="line2d_18">
      <g>
       <use style="stroke:#000000;stroke-width:0.5;" x="333.568333333" xlink:href="#m93b0483c22" y="386.8125"/>
      </g>
     </g>
     <g id="line2d_19">
      <g>
       <use style="stroke:#000000;stroke-width:0.5;" x="333.568333333" xlink:href="#m741efc42ff" y="28.90175"/>
      </g>
     </g>
     <g id="text_5">
      <!-- 80 -->
      <defs>
       <path d="
M31.7812 34.625
Q24.75 34.625 20.7188 30.8594
Q16.7031 27.0938 16.7031 20.5156
Q16.7031 13.9219 20.7188 10.1562
Q24.75 6.39062 31.7812 6.39062
Q38.8125 6.39062 42.8594 10.1719
Q46.9219 13.9688 46.9219 20.5156
Q46.9219 27.0938 42.8906 30.8594
Q38.875 34.625 31.7812 34.625
M21.9219 38.8125
Q15.5781 40.375 12.0312 44.7188
Q8.5 49.0781 8.5 55.3281
Q8.5 64.0625 14.7188 69.1406
Q20.9531 74.2188 31.7812 74.2188
Q42.6719 74.2188 48.875 69.1406
Q55.0781 64.0625 55.0781 55.3281
Q55.0781 49.0781 51.5312 44.7188
Q48 40.375 41.7031 38.8125
Q48.8281 37.1562 52.7969 32.3125
Q56.7812 27.4844 56.7812 20.5156
Q56.7812 9.90625 50.3125 4.23438
Q43.8438 -1.42188 31.7812 -1.42188
Q19.7344 -1.42188 13.25 4.23438
Q6.78125 9.90625 6.78125 20.5156
Q6.78125 27.4844 10.7812 32.3125
Q14.7969 37.1562 21.9219 38.8125
M18.3125 54.3906
Q18.3125 48.7344 21.8438 45.5625
Q25.3906 42.3906 31.7812 42.3906
Q38.1406 42.3906 41.7188 45.5625
Q45.3125 48.7344 45.3125 54.3906
Q45.3125 60.0625 41.7188 63.2344
Q38.1406 66.4062 31.7812 66.4062
Q25.3906 66.4062 21.8438 63.2344
Q18.3125 60.0625 18.3125 54.3906" id="DejaVuSans-38"/>
      </defs>
      <g transform="translate(326.738645833 399.930625)scale(0.12 -0.12)">
       <use xlink:href="#DejaVuSans-38"/>
       <use x="63.623046875" xlink:href="#DejaVuSans-30"/>
      </g>
     </g>
    </g>
    <g id="xtick_6">
     <g id="line2d_20">
      <path clip-path="url(#p5320e587fb)" d="
M405.278 386.812
L405.278 28.9018" style="fill:none;stroke:#000000;stroke-dasharray:1.000000,3.000000;stroke-dashoffset:0.0;stroke-width:0.5;"/>
     </g>
     <g id="line2d_21">
      <g>
       <use style="stroke:#000000;stroke-width:0.5;" x="405.278229167" xlink:href="#m93b0483c22" y="386.8125"/>
      </g>
     </g>
     <g id="line2d_22">
      <g>
       <use style="stroke:#000000;stroke-width:0.5;" x="405.278229167" xlink:href="#m741efc42ff" y="28.90175"/>
      </g>
     </g>
     <g id="text_6">
      <!-- 100 -->
      <defs>
       <path d="
M12.4062 8.29688
L28.5156 8.29688
L28.5156 63.9219
L10.9844 60.4062
L10.9844 69.3906
L28.4219 72.9062
L38.2812 72.9062
L38.2812 8.29688
L54.3906 8.29688
L54.3906 0
L12.4062 0
z
" id="DejaVuSans-31"/>
      </defs>
      <g transform="translate(394.883229167 399.930625)scale(0.12 -0.12)">
       <use xlink:href="#DejaVuSans-31"/>
       <use x="63.623046875" xlink:href="#DejaVuSans-30"/>
       <use x="127.24609375" xlink:href="#DejaVuSans-30"/>
      </g>
     </g>
    </g>
    <g id="xtick_7">
     <g id="line2d_23">
      <path clip-path="url(#p5320e587fb)" d="
M476.988 386.812
L476.988 28.9018" style="fill:none;stroke:#000000;stroke-dasharray:1.000000,3.000000;stroke-dashoffset:0.0;stroke-width:0.5;"/>
     </g>
     <g id="line2d_24">
      <g>
       <use style="stroke:#000000;stroke-width:0.5;" x="476.988125" xlink:href="#m93b0483c22" y="386.8125"/>
      </g>
     </g>
     <g id="line2d_25">
      <g>
       <use style="stroke:#000000;stroke-width:0.5;" x="476.988125" xlink:href="#m741efc42ff" y="28.90175"/>
      </g>
     </g>
     <g id="text_7">
      <!-- 120 -->
      <g transform="translate(466.593125 399.930625)scale(0.12 -0.12)">
       <use xlink:href="#DejaVuSans-31"/>
       <use x="63.623046875" xlink:href="#DejaVuSans-32"/>
       <use x="127.24609375" xlink:href="#DejaVuSans-30"/>
      </g>
     </g>
    </g>
    <g id="xtick_8">
     <g id="line2d_26">
      <path clip-path="url(#p5320e587fb)" d="
M548.698 386.812
L548.698 28.9018" style="fill:none;stroke:#000000;stroke-dasharray:1.000000,3.000000;stroke-dashoffset:0.0;stroke-width:0.5;"/>
     </g>
     <g id="line2d_27">
      <g>
       <use style="stroke:#000000;stroke-width:0.5;" x="548.698020833" xlink:href="#m93b0483c22" y="386.8125"/>
      </g>
     </g>
     <g id="line2d_28">
      <g>
       <use style="stroke:#000000;stroke-width:0.5;" x="548.698020833" xlink:href="#m741efc42ff" y="28.90175"/>
      </g>
     </g>
     <g id="text_8">
      <!-- 140 -->
      <g transform="translate(538.303020833 399.930625)scale(0.12 -0.12)">
       <use xlink:href="#DejaVuSans-31"/>
       <use x="63.623046875" xlink:href="#DejaVuSans-34"/>
       <use x="127.24609375" xlink:href="#DejaVuSans-30"/>
      </g>
     </g>
    </g>
    <g id="text_9">
     <!-- Time (5s) -->
     <defs>
      <path d="
M8.01562 75.875
L15.8281 75.875
Q23.1406 64.3594 26.7812 53.3125
Q30.4219 42.2812 30.4219 31.3906
Q30.4219 20.4531 26.7812 9.375
Q23.1406 -1.70312 15.8281 -13.1875
L8.01562 -13.1875
Q14.5 -2 17.7031 9.0625
Q20.9062 20.125 20.9062 31.3906
Q20.9062 42.6719 17.7031 53.6562
Q14.5 64.6562 8.01562 75.875" id="DejaVuSans-29"/>
      <path d="
M52 44.1875
Q55.375 50.25 60.0625 53.125
Q64.75 56 71.0938 56
Q79.6406 56 84.2812 50.0156
Q88.9219 44.0469 88.9219 33.0156
L88.9219 0
L79.8906 0
L79.8906 32.7188
Q79.8906 40.5781 77.0938 44.375
Q74.3125 48.1875 68.6094 48.1875
Q61.625 48.1875 57.5625 43.5469
Q53.5156 38.9219 53.5156 30.9062
L53.5156 0
L44.4844 0
L44.4844 32.7188
Q44.4844 40.625 41.7031 44.4062
Q38.9219 48.1875 33.1094 48.1875
Q26.2188 48.1875 22.1562 43.5312
Q18.1094 38.875 18.1094 30.9062
L18.1094 0
L9.07812 0
L9.07812 54.6875
L18.1094 54.6875
L18.1094 46.1875
Q21.1875 51.2188 25.4844 53.6094
Q29.7812 56 35.6875 56
Q41.6562 56 45.8281 52.9688
Q50 49.9531 52 44.1875" id="DejaVuSans-6d"/>
      <path id="DejaVuSans-20"/>
      <path d="
M10.7969 72.9062
L49.5156 72.9062
L49.5156 64.5938
L19.8281 64.5938
L19.8281 46.7344
Q21.9688 47.4688 24.1094 47.8281
Q26.2656 48.1875 28.4219 48.1875
Q40.625 48.1875 47.75 41.5
Q54.8906 34.8125 54.8906 23.3906
Q54.8906 11.625 47.5625 5.09375
Q40.2344 -1.42188 26.9062 -1.42188
Q22.3125 -1.42188 17.5469 -0.640625
Q12.7969 0.140625 7.71875 1.70312
L7.71875 11.625
Q12.1094 9.23438 16.7969 8.0625
Q21.4844 6.89062 26.7031 6.89062
Q35.1562 6.89062 40.0781 11.3281
Q45.0156 15.7656 45.0156 23.3906
Q45.0156 31 40.0781 35.4375
Q35.1562 39.8906 26.7031 39.8906
Q22.75 39.8906 18.8125 39.0156
Q14.8906 38.1406 10.7969 36.2812
z
" id="DejaVuSans-35"/>
      <path d="
M9.42188 54.6875
L18.4062 54.6875
L18.4062 0
L9.42188 0
z

M9.42188 75.9844
L18.4062 75.9844
L18.4062 64.5938
L9.42188 64.5938
z
" id="DejaVuSans-69"/>
      <path d="
M31 75.875
Q24.4688 64.6562 21.2812 53.6562
Q18.1094 42.6719 18.1094 31.3906
Q18.1094 20.125 21.3125 9.0625
Q24.5156 -2 31 -13.1875
L23.1875 -13.1875
Q15.875 -1.70312 12.2344 9.375
Q8.59375 20.4531 8.59375 31.3906
Q8.59375 42.2812 12.2031 53.3125
Q15.8281 64.3594 23.1875 75.875
z
" id="DejaVuSans-28"/>
      <path d="
M56.2031 29.5938
L56.2031 25.2031
L14.8906 25.2031
Q15.4844 15.9219 20.4844 11.0625
Q25.4844 6.20312 34.4219 6.20312
Q39.5938 6.20312 44.4531 7.46875
Q49.3125 8.73438 54.1094 11.2812
L54.1094 2.78125
Q49.2656 0.734375 44.1875 -0.34375
Q39.1094 -1.42188 33.8906 -1.42188
Q20.7969 -1.42188 13.1562 6.1875
Q5.51562 13.8125 5.51562 26.8125
Q5.51562 40.2344 12.7656 48.1094
Q20.0156 56 32.3281 56
Q43.3594 56 49.7812 48.8906
Q56.2031 41.7969 56.2031 29.5938
M47.2188 32.2344
Q47.125 39.5938 43.0938 43.9844
Q39.0625 48.3906 32.4219 48.3906
Q24.9062 48.3906 20.3906 44.1406
Q15.875 39.8906 15.1875 32.1719
z
" id="DejaVuSans-65"/>
      <path d="
M44.2812 53.0781
L44.2812 44.5781
Q40.4844 46.5312 36.375 47.5
Q32.2812 48.4844 27.875 48.4844
Q21.1875 48.4844 17.8438 46.4375
Q14.5 44.3906 14.5 40.2812
Q14.5 37.1562 16.8906 35.375
Q19.2812 33.5938 26.5156 31.9844
L29.5938 31.2969
Q39.1562 29.25 43.1875 25.5156
Q47.2188 21.7812 47.2188 15.0938
Q47.2188 7.46875 41.1875 3.01562
Q35.1562 -1.42188 24.6094 -1.42188
Q20.2188 -1.42188 15.4531 -0.5625
Q10.6875 0.296875 5.42188 2
L5.42188 11.2812
Q10.4062 8.6875 15.2344 7.39062
Q20.0625 6.10938 24.8125 6.10938
Q31.1562 6.10938 34.5625 8.28125
Q37.9844 10.4531 37.9844 14.4062
Q37.9844 18.0625 35.5156 20.0156
Q33.0625 21.9688 24.7031 23.7812
L21.5781 24.5156
Q13.2344 26.2656 9.51562 29.9062
Q5.8125 33.5469 5.8125 39.8906
Q5.8125 47.6094 11.2812 51.7969
Q16.75 56 26.8125 56
Q31.7812 56 36.1719 55.2656
Q40.5781 54.5469 44.2812 53.0781" id="DejaVuSans-73"/>
      <path d="
M-0.296875 72.9062
L61.375 72.9062
L61.375 64.5938
L35.5 64.5938
L35.5 0
L25.5938 0
L25.5938 64.5938
L-0.296875 64.5938
z
" id="DejaVuSans-54"/>
     </defs>
     <g transform="translate(277.17 416.544375)scale(0.12 -0.12)">
      <use xlink:href="#DejaVuSans-54"/>
      <use x="57.958984375" xlink:href="#DejaVuSans-69"/>
      <use x="85.7421875" xlink:href="#DejaVuSans-6d"/>
      <use x="183.154296875" xlink:href="#DejaVuSans-65"/>
      <use x="244.677734375" xlink:href="#DejaVuSans-20"/>
      <use x="276.46484375" xlink:href="#DejaVuSans-28"/>
      <use x="315.478515625" xlink:href="#DejaVuSans-35"/>
      <use x="379.1015625" xlink:href="#DejaVuSans-73"/>
      <use x="431.201171875" xlink:href="#DejaVuSans-29"/>
     </g>
    </g>
   </g>
   <g id="matplotlib.axis_2">
    <g id="ytick_1">
     <g id="line2d_29">
      <path clip-path="url(#p5320e587fb)" d="
M46.7288 386.812
L563.04 386.812" style="fill:none;stroke:#000000;stroke-dasharray:1.000000,3.000000;stroke-dashoffset:0.0;stroke-width:0.5;"/>
     </g>
     <g id="line2d_30">
      <defs>
       <path d="
M0 0
L4 0" id="m728421d6d4" style="stroke:#000000;stroke-width:0.5;"/>
      </defs>
      <g>
       <use style="stroke:#000000;stroke-width:0.5;" x="46.72875" xlink:href="#m728421d6d4" y="386.8125"/>
      </g>
     </g>
     <g id="line2d_31">
      <defs>
       <path d="
M0 0
L-4 0" id="mcb0005524f" style="stroke:#000000;stroke-width:0.5;"/>
      </defs>
      <g>
       <use style="stroke:#000000;stroke-width:0.5;" x="563.04" xlink:href="#mcb0005524f" y="386.8125"/>
      </g>
     </g>
     <g id="text_10">
      <!-- 0 -->
      <g transform="translate(36.681875 390.12375)scale(0.12 -0.12)">
       <use xlink:href="#DejaVuSans-30"/>
      </g>
     </g>
    </g>
    <g id="ytick_2">
     <g id="line2d_32">
      <path clip-path="url(#p5320e587fb)" d="
M46.7288 327.161
L563.04 327.161" style="fill:none;stroke:#000000;stroke-dasharray:1.000000,3.000000;stroke-dashoffset:0.0;stroke-width:0.5;"/>
     </g>
     <g id="line2d_33">
      <g>
       <use style="stroke:#000000;stroke-width:0.5;" x="46.72875" xlink:href="#m728421d6d4" y="327.160708333"/>
      </g>
     </g>
     <g id="line2d_34">
      <g>
       <use style="stroke:#000000;stroke-width:0.5;" x="563.04" xlink:href="#mcb0005524f" y="327.160708333"/>
      </g>
     </g>
     <g id="text_11">
      <!-- 2 -->
      <g transform="translate(37.175 330.471958333)scale(0.12 -0.12)">
       <use xlink:href="#DejaVuSans-32"/>
      </g>
     </g>
    </g>
    <g id="ytick_3">
     <g id="line2d_35">
      <path clip-path="url(#p5320e587fb)" d="
M46.7288 267.509
L563.04 267.509" style="fill:none;stroke:#000000;stroke-dasharray:1.000000,3.000000;stroke-dashoffset:0.0;stroke-width:0.5;"/>
     </g>
     <g id="line2d_36">
      <g>
       <use style="stroke:#000000;stroke-width:0.5;" x="46.72875" xlink:href="#m728421d6d4" y="267.508916667"/>
      </g>
     </g>
     <g id="line2d_37">
      <g>
       <use style="stroke:#000000;stroke-width:0.5;" x="563.04" xlink:href="#mcb0005524f" y="267.508916667"/>
      </g>
     </g>
     <g id="text_12">
      <!-- 4 -->
      <g transform="translate(36.35375 270.820166667)scale(0.12 -0.12)">
       <use xlink:href="#DejaVuSans-34"/>
      </g>
     </g>
    </g>
    <g id="ytick_4">
     <g id="line2d_38">
      <path clip-path="url(#p5320e587fb)" d="
M46.7288 207.857
L563.04 207.857" style="fill:none;stroke:#000000;stroke-dasharray:1.000000,3.000000;stroke-dashoffset:0.0;stroke-width:0.5;"/>
     </g>
     <g id="line2d_39">
      <g>
       <use style="stroke:#000000;stroke-width:0.5;" x="46.72875" xlink:href="#m728421d6d4" y="207.857125"/>
      </g>
     </g>
     <g id="line2d_40">
      <g>
       <use style="stroke:#000000;stroke-width:0.5;" x="563.04" xlink:href="#mcb0005524f" y="207.857125"/>
      </g>
     </g>
     <g id="text_13">
      <!-- 6 -->
      <g transform="translate(36.6875 211.168375)scale(0.12 -0.12)">
       <use xlink:href="#DejaVuSans-36"/>
      </g>
     </g>
    </g>
    <g id="ytick_5">
     <g id="line2d_41">
      <path clip-path="url(#p5320e587fb)" d="
M46.7288 148.205
L563.04 148.205" style="fill:none;stroke:#000000;stroke-dasharray:1.000000,3.000000;stroke-dashoffset:0.0;stroke-width:0.5;"/>
     </g>
     <g id="line2d_42">
      <g>
       <use style="stroke:#000000;stroke-width:0.5;" x="46.72875" xlink:href="#m728421d6d4" y="148.205333333"/>
      </g>
     </g>
     <g id="line2d_43">
      <g>
       <use style="stroke:#000000;stroke-width:0.5;" x="563.04" xlink:href="#mcb0005524f" y="148.205333333"/>
      </g>
     </g>
     <g id="text_14">
      <!-- 8 -->
      <g transform="translate(36.72875 151.516583333)scale(0.12 -0.12)">
       <use xlink:href="#DejaVuSans-38"/>
      </g>
     </g>
    </g>
    <g id="ytick_6">
     <g id="line2d_44">
      <path clip-path="url(#p5320e587fb)" d="
M46.7288 88.5535
L563.04 88.5535" style="fill:none;stroke:#000000;stroke-dasharray:1.000000,3.000000;stroke-dashoffset:0.0;stroke-width:0.5;"/>
     </g>
     <g id="line2d_45">
      <g>
       <use style="stroke:#000000;stroke-width:0.5;" x="46.72875" xlink:href="#m728421d6d4" y="88.5535416667"/>
      </g>
     </g>
     <g id="line2d_46">
      <g>
       <use style="stroke:#000000;stroke-width:0.5;" x="563.04" xlink:href="#mcb0005524f" y="88.5535416667"/>
      </g>
     </g>
     <g id="text_15">
      <!-- 10 -->
      <g transform="translate(29.57375 91.8647916667)scale(0.12 -0.12)">
       <use xlink:href="#DejaVuSans-31"/>
       <use x="63.623046875" xlink:href="#DejaVuSans-30"/>
      </g>
     </g>
    </g>
    <g id="ytick_7">
     <g id="line2d_47">
      <path clip-path="url(#p5320e587fb)" d="
M46.7288 28.9018
L563.04 28.9018" style="fill:none;stroke:#000000;stroke-dasharray:1.000000,3.000000;stroke-dashoffset:0.0;stroke-width:0.5;"/>
     </g>
     <g id="line2d_48">
      <g>
       <use style="stroke:#000000;stroke-width:0.5;" x="46.72875" xlink:href="#m728421d6d4" y="28.90175"/>
      </g>
     </g>
     <g id="line2d_49">
      <g>
       <use style="stroke:#000000;stroke-width:0.5;" x="563.04" xlink:href="#mcb0005524f" y="28.90175"/>
      </g>
     </g>
     <g id="text_16">
      <!-- 12 -->
      <g transform="translate(29.97875 32.213)scale(0.12 -0.12)">
       <use xlink:href="#DejaVuSans-31"/>
       <use x="63.623046875" xlink:href="#DejaVuSans-32"/>
      </g>
     </g>
    </g>
    <g id="text_17">
     <!-- # -->
     <defs>
      <path d="
M51.125 44
L36.9219 44
L32.8125 27.6875
L47.125 27.6875
z

M43.7969 71.7812
L38.7188 51.5156
L52.9844 51.5156
L58.1094 71.7812
L65.9219 71.7812
L60.8906 51.5156
L76.125 51.5156
L76.125 44
L58.9844 44
L54.9844 27.6875
L70.5156 27.6875
L70.5156 20.2188
L53.0781 20.2188
L48 0
L40.1875 0
L45.2188 20.2188
L30.9062 20.2188
L25.875 0
L18.0156 0
L23.0938 20.2188
L7.71875 20.2188
L7.71875 27.6875
L24.9062 27.6875
L29 44
L13.2812 44
L13.2812 51.5156
L30.9062 51.5156
L35.8906 71.7812
z
" id="DejaVuSans-23"/>
     </defs>
     <g transform="translate(22.078125 211.9615)rotate(-90.0)scale(0.12 -0.12)">
      <use xlink:href="#DejaVuSans-23"/>
     </g>
    </g>
   </g>
   <g id="patch_3">
    <path d="
M46.7288 28.9018
L563.04 28.9018" style="fill:none;stroke:#000000;"/>
   </g>
   <g id="patch_4">
    <path d="
M563.04 386.812
L563.04 28.9018" style="fill:none;stroke:#000000;"/>
   </g>
   <g id="patch_5">
    <path d="
M46.7288 386.812
L563.04 386.812" style="fill:none;stroke:#000000;"/>
   </g>
   <g id="patch_6">
    <path d="
M46.7288 386.812
L46.7288 28.9018" style="fill:none;stroke:#000000;"/>
   </g>
   <g id="text_18">
    <!-- 10MB_c1_o1000_r80w15d5_16 - Op-Count - delete -->
    <defs>
     <path d="
M9.8125 72.9062
L24.5156 72.9062
L43.1094 23.2969
L61.8125 72.9062
L76.5156 72.9062
L76.5156 0
L66.8906 0
L66.8906 64.0156
L48.0938 14.0156
L38.1875 14.0156
L19.3906 64.0156
L19.3906 0
L9.8125 0
z
" id="DejaVuSans-4d"/>
     <path d="
M39.4062 66.2188
Q28.6562 66.2188 22.3281 58.2031
Q16.0156 50.2031 16.0156 36.375
Q16.0156 22.6094 22.3281 14.5938
Q28.6562 6.59375 39.4062 6.59375
Q50.1406 6.59375 56.4219 14.5938
Q62.7031 22.6094 62.7031 36.375
Q62.7031 50.2031 56.4219 58.2031
Q50.1406 66.2188 39.4062 66.2188
M39.4062 74.2188
Q54.7344 74.2188 63.9062 63.9375
Q73.0938 53.6562 73.0938 36.375
Q73.0938 19.1406 63.9062 8.85938
Q54.7344 -1.42188 39.4062 -1.42188
Q24.0312 -1.42188 14.8125 8.82812
Q5.60938 19.0938 5.60938 36.375
Q5.60938 53.6562 14.8125 63.9375
Q24.0312 74.2188 39.4062 74.2188" id="DejaVuSans-4f"/>
     <path d="
M54.8906 33.0156
L54.8906 0
L45.9062 0
L45.9062 32.7188
Q45.9062 40.4844 42.875 44.3281
Q39.8438 48.1875 33.7969 48.1875
Q26.5156 48.1875 22.3125 43.5469
Q18.1094 38.9219 18.1094 30.9062
L18.1094 0
L9.07812 0
L9.07812 54.6875
L18.1094 54.6875
L18.1094 46.1875
Q21.3438 51.125 25.7031 53.5625
Q30.0781 56 35.7969 56
Q45.2188 56 50.0469 50.1719
Q54.8906 44.3438 54.8906 33.0156" id="DejaVuSans-6e"/>
     <path d="
M4.89062 31.3906
L31.2031 31.3906
L31.2031 23.3906
L4.89062 23.3906
z
" id="DejaVuSans-2d"/>
     <path d="
M30.6094 48.3906
Q23.3906 48.3906 19.1875 42.75
Q14.9844 37.1094 14.9844 27.2969
Q14.9844 17.4844 19.1562 11.8438
Q23.3438 6.20312 30.6094 6.20312
Q37.7969 6.20312 41.9844 11.8594
Q46.1875 17.5312 46.1875 27.2969
Q46.1875 37.0156 41.9844 42.7031
Q37.7969 48.3906 30.6094 48.3906
M30.6094 56
Q42.3281 56 49.0156 48.375
Q55.7188 40.7656 55.7188 27.2969
Q55.7188 13.875 49.0156 6.21875
Q42.3281 -1.42188 30.6094 -1.42188
Q18.8438 -1.42188 12.1719 6.21875
Q5.51562 13.875 5.51562 27.2969
Q5.51562 40.7656 12.1719 48.375
Q18.8438 56 30.6094 56" id="DejaVuSans-6f"/>
     <path d="
M64.4062 67.2812
L64.4062 56.8906
Q59.4219 61.5312 53.7812 63.8125
Q48.1406 66.1094 41.7969 66.1094
Q29.2969 66.1094 22.6562 58.4688
Q16.0156 50.8281 16.0156 36.375
Q16.0156 21.9688 22.6562 14.3281
Q29.2969 6.6875 41.7969 6.6875
Q48.1406 6.6875 53.7812 8.98438
Q59.4219 11.2812 64.4062 15.9219
L64.4062 5.60938
Q59.2344 2.09375 53.4375 0.328125
Q47.6562 -1.42188 41.2188 -1.42188
Q24.6562 -1.42188 15.125 8.70312
Q5.60938 18.8438 5.60938 36.375
Q5.60938 53.9531 15.125 64.0781
Q24.6562 74.2188 41.2188 74.2188
Q47.75 74.2188 53.5312 72.4844
Q59.3281 70.75 64.4062 67.2812" id="DejaVuSans-43"/>
     <path d="
M50.9844 -16.6094
L50.9844 -23.5781
L-0.984375 -23.5781
L-0.984375 -16.6094
z
" id="DejaVuSans-5f"/>
     <path d="
M18.1094 8.20312
L18.1094 -20.7969
L9.07812 -20.7969
L9.07812 54.6875
L18.1094 54.6875
L18.1094 46.3906
Q20.9531 51.2656 25.2656 53.625
Q29.5938 56 35.5938 56
Q45.5625 56 51.7812 48.0938
Q58.0156 40.1875 58.0156 27.2969
Q58.0156 14.4062 51.7812 6.48438
Q45.5625 -1.42188 35.5938 -1.42188
Q29.5938 -1.42188 25.2656 0.953125
Q20.9531 3.32812 18.1094 8.20312
M48.6875 27.2969
Q48.6875 37.2031 44.6094 42.8438
Q40.5312 48.4844 33.4062 48.4844
Q26.2656 48.4844 22.1875 42.8438
Q18.1094 37.2031 18.1094 27.2969
Q18.1094 17.3906 22.1875 11.75
Q26.2656 6.10938 33.4062 6.10938
Q40.5312 6.10938 44.6094 11.75
Q48.6875 17.3906 48.6875 27.2969" id="DejaVuSans-70"/>
     <path d="
M9.42188 75.9844
L18.4062 75.9844
L18.4062 0
L9.42188 0
z
" id="DejaVuSans-6c"/>
     <path d="
M19.6719 34.8125
L19.6719 8.10938
L35.5 8.10938
Q43.4531 8.10938 47.2812 11.4062
Q51.125 14.7031 51.125 21.4844
Q51.125 28.3281 47.2812 31.5625
Q43.4531 34.8125 35.5 34.8125
z

M19.6719 64.7969
L19.6719 42.8281
L34.2812 42.8281
Q41.5 42.8281 45.0312 45.5312
Q48.5781 48.25 48.5781 53.8125
Q48.5781 59.3281 45.0312 62.0625
Q41.5 64.7969 34.2812 64.7969
z

M9.8125 72.9062
L35.0156 72.9062
Q46.2969 72.9062 52.3906 68.2188
Q58.5 63.5312 58.5 54.8906
Q58.5 48.1875 55.375 44.2344
Q52.25 40.2812 46.1875 39.3125
Q53.4688 37.75 57.5 32.7812
Q61.5312 27.8281 61.5312 20.4062
Q61.5312 10.6406 54.8906 5.3125
Q48.25 0 35.9844 0
L9.8125 0
z
" id="DejaVuSans-42"/>
     <path d="
M45.4062 46.3906
L45.4062 75.9844
L54.3906 75.9844
L54.3906 0
L45.4062 0
L45.4062 8.20312
Q42.5781 3.32812 38.25 0.953125
Q33.9375 -1.42188 27.875 -1.42188
Q17.9688 -1.42188 11.7344 6.48438
Q5.51562 14.4062 5.51562 27.2969
Q5.51562 40.1875 11.7344 48.0938
Q17.9688 56 27.875 56
Q33.9375 56 38.25 53.625
Q42.5781 51.2656 45.4062 46.3906
M14.7969 27.2969
Q14.7969 17.3906 18.875 11.75
Q22.9531 6.10938 30.0781 6.10938
Q37.2031 6.10938 41.2969 11.75
Q45.4062 17.3906 45.4062 27.2969
Q45.4062 37.2031 41.2969 42.8438
Q37.2031 48.4844 30.0781 48.4844
Q22.9531 48.4844 18.875 42.8438
Q14.7969 37.2031 14.7969 27.2969" id="DejaVuSans-64"/>
     <path d="
M8.5 21.5781
L8.5 54.6875
L17.4844 54.6875
L17.4844 21.9219
Q17.4844 14.1562 20.5 10.2656
Q23.5312 6.39062 29.5938 6.39062
Q36.8594 6.39062 41.0781 11.0312
Q45.3125 15.6719 45.3125 23.6875
L45.3125 54.6875
L54.2969 54.6875
L54.2969 0
L45.3125 0
L45.3125 8.40625
Q42.0469 3.42188 37.7188 1
Q33.4062 -1.42188 27.6875 -1.42188
Q18.2656 -1.42188 13.375 4.4375
Q8.5 10.2969 8.5 21.5781
M31.1094 56
z
" id="DejaVuSans-75"/>
     <path d="
M18.3125 70.2188
L18.3125 54.6875
L36.8125 54.6875
L36.8125 47.7031
L18.3125 47.7031
L18.3125 18.0156
Q18.3125 11.3281 20.1406 9.42188
Q21.9688 7.51562 27.5938 7.51562
L36.8125 7.51562
L36.8125 0
L27.5938 0
Q17.1875 0 13.2344 3.875
Q9.28125 7.76562 9.28125 18.0156
L9.28125 47.7031
L2.6875 47.7031
L2.6875 54.6875
L9.28125 54.6875
L9.28125 70.2188
z
" id="DejaVuSans-74"/>
     <path d="
M4.20312 54.6875
L13.1875 54.6875
L24.4219 12.0156
L35.5938 54.6875
L46.1875 54.6875
L57.4219 12.0156
L68.6094 54.6875
L77.5938 54.6875
L63.2812 0
L52.6875 0
L40.9219 44.8281
L29.1094 0
L18.5 0
z
" id="DejaVuSans-77"/>
     <path d="
M48.7812 52.5938
L48.7812 44.1875
Q44.9688 46.2969 41.1406 47.3438
Q37.3125 48.3906 33.4062 48.3906
Q24.6562 48.3906 19.8125 42.8438
Q14.9844 37.3125 14.9844 27.2969
Q14.9844 17.2812 19.8125 11.7344
Q24.6562 6.20312 33.4062 6.20312
Q37.3125 6.20312 41.1406 7.25
Q44.9688 8.29688 48.7812 10.4062
L48.7812 2.09375
Q45.0156 0.34375 40.9844 -0.53125
Q36.9688 -1.42188 32.4219 -1.42188
Q20.0625 -1.42188 12.7812 6.34375
Q5.51562 14.1094 5.51562 27.2969
Q5.51562 40.6719 12.8594 48.3281
Q20.2188 56 33.0156 56
Q37.1562 56 41.1094 55.1406
Q45.0625 54.2969 48.7812 52.5938" id="DejaVuSans-63"/>
     <path d="
M41.1094 46.2969
Q39.5938 47.1719 37.8125 47.5781
Q36.0312 48 33.8906 48
Q26.2656 48 22.1875 43.0469
Q18.1094 38.0938 18.1094 28.8125
L18.1094 0
L9.07812 0
L9.07812 54.6875
L18.1094 54.6875
L18.1094 46.1875
Q20.9531 51.1719 25.4844 53.5781
Q30.0312 56 36.5312 56
Q37.4531 56 38.5781 55.875
Q39.7031 55.7656 41.0625 55.5156
z
" id="DejaVuSans-72"/>
    </defs>
    <g transform="translate(122.54775 23.90175)scale(0.144 -0.144)">
     <use xlink:href="#DejaVuSans-31"/>
     <use x="63.623046875" xlink:href="#DejaVuSans-30"/>
     <use x="127.24609375" xlink:href="#DejaVuSans-4d"/>
     <use x="213.525390625" xlink:href="#DejaVuSans-42"/>
     <use x="282.12890625" xlink:href="#DejaVuSans-5f"/>
     <use x="332.12890625" xlink:href="#DejaVuSans-63"/>
     <use x="387.109375" xlink:href="#DejaVuSans-31"/>
     <use x="450.732421875" xlink:href="#DejaVuSans-5f"/>
     <use x="500.732421875" xlink:href="#DejaVuSans-6f"/>
     <use x="561.9140625" xlink:href="#DejaVuSans-31"/>
     <use x="625.537109375" xlink:href="#DejaVuSans-30"/>
     <use x="689.16015625" xlink:href="#DejaVuSans-30"/>
     <use x="752.783203125" xlink:href="#DejaVuSans-30"/>
     <use x="816.40625" xlink:href="#DejaVuSans-5f"/>
     <use x="866.40625" xlink:href="#DejaVuSans-72"/>
     <use x="907.51953125" xlink:href="#DejaVuSans-38"/>
     <use x="971.142578125" xlink:href="#DejaVuSans-30"/>
     <use x="1034.765625" xlink:href="#DejaVuSans-77"/>
     <use x="1116.55273438" xlink:href="#DejaVuSans-31"/>
     <use x="1180.17578125" xlink:href="#DejaVuSans-35"/>
     <use x="1243.79882812" xlink:href="#DejaVuSans-64"/>
     <use x="1307.27539062" xlink:href="#DejaVuSans-35"/>
     <use x="1370.8984375" xlink:href="#DejaVuSans-5f"/>
     <use x="1420.8984375" xlink:href="#DejaVuSans-31"/>
     <use x="1484.52148438" xlink:href="#DejaVuSans-36"/>
     <use x="1548.14453125" xlink:href="#DejaVuSans-20"/>
     <use x="1579.93164062" xlink:href="#DejaVuSans-2d"/>
     <use x="1616.015625" xlink:href="#DejaVuSans-20"/>
     <use x="1647.80273438" xlink:href="#DejaVuSans-4f"/>
     <use x="1726.51367188" xlink:href="#DejaVuSans-70"/>
     <use x="1789.99023438" xlink:href="#DejaVuSans-2d"/>
     <use x="1826.07421875" xlink:href="#DejaVuSans-43"/>
     <use x="1895.8984375" xlink:href="#DejaVuSans-6f"/>
     <use x="1957.08007812" xlink:href="#DejaVuSans-75"/>
     <use x="2020.45898438" xlink:href="#DejaVuSans-6e"/>
     <use x="2083.83789062" xlink:href="#DejaVuSans-74"/>
     <use x="2123.046875" xlink:href="#DejaVuSans-20"/>
     <use x="2154.83398438" xlink:href="#DejaVuSans-2d"/>
     <use x="2190.91796875" xlink:href="#DejaVuSans-20"/>
     <use x="2222.70507812" xlink:href="#DejaVuSans-64"/>
     <use x="2286.18164062" xlink:href="#DejaVuSans-65"/>
     <use x="2347.70507812" xlink:href="#DejaVuSans-6c"/>
     <use x="2375.48828125" xlink:href="#DejaVuSans-65"/>
     <use x="2437.01171875" xlink:href="#DejaVuSans-74"/>
     <use x="2476.22070312" xlink:href="#DejaVuSans-65"/>
    </g>
   </g>
   <g id="legend_1">
    <g id="patch_7">
     <path d="
M419.194 48.6895
L557.34 48.6895
Q559.54 48.6895 559.54 46.4895
L559.54 31.4435
Q559.54 29.2435 557.34 29.2435
L419.194 29.2435
Q416.994 29.2435 416.994 31.4435
L416.994 46.4895
Q416.994 48.6895 419.194 48.6895
z
" style="fill:#4c4c4c;opacity:0.5;stroke:#4c4c4c;"/>
    </g>
    <g id="patch_8">
     <path d="
M417.194 46.6895
L555.34 46.6895
Q557.54 46.6895 557.54 44.4895
L557.54 29.4435
Q557.54 27.2435 555.34 27.2435
L417.194 27.2435
Q414.994 27.2435 414.994 29.4435
L414.994 44.4895
Q414.994 46.6895 417.194 46.6895
z
" style="fill:#ffffff;stroke:#000000;"/>
    </g>
    <g id="line2d_50">
     <path d="
M422.694 36.1518
L438.094 36.1518" style="fill:none;stroke:#ff0000;stroke-linecap:square;stroke-width:2.0;"/>
    </g>
    <g id="line2d_51"/>
    <g id="text_19">
     <!-- ceph -->
     <defs>
      <path d="
M54.8906 33.0156
L54.8906 0
L45.9062 0
L45.9062 32.7188
Q45.9062 40.4844 42.875 44.3281
Q39.8438 48.1875 33.7969 48.1875
Q26.5156 48.1875 22.3125 43.5469
Q18.1094 38.9219 18.1094 30.9062
L18.1094 0
L9.07812 0
L9.07812 75.9844
L18.1094 75.9844
L18.1094 46.1875
Q21.3438 51.125 25.7031 53.5625
Q30.0781 56 35.7969 56
Q45.2188 56 50.0469 50.1719
Q54.8906 44.3438 54.8906 33.0156" id="DejaVuSans-68"/>
     </defs>
     <g transform="translate(450.19375 40.00181625)scale(0.11 -0.11)">
      <use xlink:href="#DejaVuSans-63"/>
      <use x="54.98046875" xlink:href="#DejaVuSans-65"/>
      <use x="116.50390625" xlink:href="#DejaVuSans-70"/>
      <use x="179.98046875" xlink:href="#DejaVuSans-68"/>
     </g>
    </g>
    <g id="line2d_52">
     <path d="
M500.725 36.1518
L516.125 36.1518" style="fill:none;stroke:#00ff00;stroke-linecap:square;stroke-width:2.0;"/>
    </g>
    <g id="line2d_53"/>
    <g id="text_20">
     <!-- swift -->
     <defs>
      <path d="
M37.1094 75.9844
L37.1094 68.5
L28.5156 68.5
Q23.6875 68.5 21.7969 66.5469
Q19.9219 64.5938 19.9219 59.5156
L19.9219 54.6875
L34.7188 54.6875
L34.7188 47.7031
L19.9219 47.7031
L19.9219 0
L10.8906 0
L10.8906 47.7031
L2.29688 47.7031
L2.29688 54.6875
L10.8906 54.6875
L10.8906 58.5
Q10.8906 67.625 15.1406 71.7969
Q19.3906 75.9844 28.6094 75.9844
z
" id="DejaVuSans-66"/>
     </defs>
     <g transform="translate(528.225 40.00181625)scale(0.11 -0.11)">
      <use xlink:href="#DejaVuSans-73"/>
      <use x="52.099609375" xlink:href="#DejaVuSans-77"/>
      <use x="133.88671875" xlink:href="#DejaVuSans-69"/>
      <use x="161.669921875" xlink:href="#DejaVuSans-66"/>
      <use x="195.125" xlink:href="#DejaVuSans-74"/>
     </g>
    </g>
   </g>
  </g>
 </g>
 <defs>
  <clipPath id="p5320e587fb">
   <rect height="357.91075" width="516.31125" x="46.72875" y="28.90175"/>
  </clipPath>
 </defs>
</svg>
