<?xml version="1.0" encoding="utf-8" standalone="no"?>
<!DOCTYPE svg PUBLIC "-//W3C//DTD SVG 1.1//EN"
  "http://www.w3.org/Graphics/SVG/1.1/DTD/svg11.dtd">
<!-- Created with matplotlib (http://matplotlib.org/) -->
<svg height="441pt" version="1.1" viewBox="0 0 585 441" width="585pt" xmlns="http://www.w3.org/2000/svg" xmlns:xlink="http://www.w3.org/1999/xlink">
 <defs>
  <style type="text/css">
*{stroke-linecap:butt;stroke-linejoin:round;}
  </style>
 </defs>
 <g id="figure_1">
  <g id="patch_1">
   <path d="
M0 441
L585 441
L585 0
L0 0
z
" style="fill:#ffffff;"/>
  </g>
  <g id="axes_1">
   <g id="patch_2">
    <path d="
M34.5794 345.771
L572.04 345.771
L572.04 28.9018
L34.5794 28.9018
z
" style="fill:#ffffff;"/>
   </g>
   <g id="PathCollection_1">
    <defs>
     <path d="
M0 2.23607
C0.593012 2.23607 1.16182 2.00046 1.58114 1.58114
C2.00046 1.16182 2.23607 0.593012 2.23607 0
C2.23607 -0.593012 2.00046 -1.16182 1.58114 -1.58114
C1.16182 -2.00046 0.593012 -2.23607 0 -2.23607
C-0.593012 -2.23607 -1.16182 -2.00046 -1.58114 -1.58114
C-2.00046 -1.16182 -2.23607 -0.593012 -2.23607 0
C-2.23607 0.593012 -2.00046 1.16182 -1.58114 1.58114
C-1.16182 2.00046 -0.593012 2.23607 0 2.23607
z
" id="C0_0_919e3f95db"/>
    </defs>
    <g clip-path="url(#p518a017d35)">
     <use style="fill:#ff0000;stroke:#ff0000;" x="65.9015424685" xlink:href="#C0_0_919e3f95db" y="204.573272696"/>
    </g>
    <g clip-path="url(#p518a017d35)">
     <use style="fill:#ff0000;stroke:#ff0000;" x="75.1045400348" xlink:href="#C0_0_919e3f95db" y="45.8851941446"/>
    </g>
    <g clip-path="url(#p518a017d35)">
     <use style="fill:#ff0000;stroke:#ff0000;" x="67.1542189488" xlink:href="#C0_0_919e3f95db" y="183.480534226"/>
    </g>
    <g clip-path="url(#p518a017d35)">
     <use style="fill:#ff0000;stroke:#ff0000;" x="70.3336589943" xlink:href="#C0_0_919e3f95db" y="261.222673495"/>
    </g>
    <g clip-path="url(#p518a017d35)">
     <use style="fill:#ff0000;stroke:#ff0000;" x="79.3245714333" xlink:href="#C0_0_919e3f95db" y="46.0343139534"/>
    </g>
    <g clip-path="url(#p518a017d35)">
     <use style="fill:#ff0000;stroke:#ff0000;" x="64.572839632" xlink:href="#C0_0_919e3f95db" y="195.916949385"/>
    </g>
    <g clip-path="url(#p518a017d35)">
     <use style="fill:#ff0000;stroke:#ff0000;" x="70.1617136212" xlink:href="#C0_0_919e3f95db" y="190.010762997"/>
    </g>
    <g clip-path="url(#p518a017d35)">
     <use style="fill:#ff0000;stroke:#ff0000;" x="69.6889505972" xlink:href="#C0_0_919e3f95db" y="48.1670466109"/>
    </g>
    <g clip-path="url(#p518a017d35)">
     <use style="fill:#ff0000;stroke:#ff0000;" x="65.0159877951" xlink:href="#C0_0_919e3f95db" y="312.748696051"/>
    </g>
    <g clip-path="url(#p518a017d35)">
     <use style="fill:#ff0000;stroke:#ff0000;" x="59.0525030002" xlink:href="#C0_0_919e3f95db" y="228.59596271"/>
    </g>
    <g clip-path="url(#p518a017d35)">
     <use style="fill:#ff0000;stroke:#ff0000;" x="66.9865034499" xlink:href="#C0_0_919e3f95db" y="46.1071381254"/>
    </g>
    <g clip-path="url(#p518a017d35)">
     <use style="fill:#ff0000;stroke:#ff0000;" x="70.1160930781" xlink:href="#C0_0_919e3f95db" y="45.5530895939"/>
    </g>
   </g>
   <g id="PathCollection_2">
    <defs>
     <path d="
M0 2.23607
C0.593012 2.23607 1.16182 2.00046 1.58114 1.58114
C2.00046 1.16182 2.23607 0.593012 2.23607 0
C2.23607 -0.593012 2.00046 -1.16182 1.58114 -1.58114
C1.16182 -2.00046 0.593012 -2.23607 0 -2.23607
C-0.593012 -2.23607 -1.16182 -2.00046 -1.58114 -1.58114
C-2.00046 -1.16182 -2.23607 -0.593012 -2.23607 0
C-2.23607 0.593012 -2.00046 1.16182 -1.58114 1.58114
C-1.16182 2.00046 -0.593012 2.23607 0 2.23607
z
" id="C1_0_919e3f95db"/>
    </defs>
    <g clip-path="url(#p518a017d35)">
     <use style="fill:#00ff00;stroke:#00ff00;" x="119.465645688" xlink:href="#C1_0_919e3f95db" y="44.7834396887"/>
    </g>
    <g clip-path="url(#p518a017d35)">
     <use style="fill:#00ff00;stroke:#00ff00;" x="111.678447278" xlink:href="#C1_0_919e3f95db" y="44.4591358139"/>
    </g>
    <g clip-path="url(#p518a017d35)">
     <use style="fill:#00ff00;stroke:#00ff00;" x="101.936641021" xlink:href="#C1_0_919e3f95db" y="44.4637914195"/>
    </g>
    <g clip-path="url(#p518a017d35)">
     <use style="fill:#00ff00;stroke:#00ff00;" x="102.71163933" xlink:href="#C1_0_919e3f95db" y="278.760665736"/>
    </g>
    <g clip-path="url(#p518a017d35)">
     <use style="fill:#00ff00;stroke:#00ff00;" x="103.919756454" xlink:href="#C1_0_919e3f95db" y="43.7499500891"/>
    </g>
    <g clip-path="url(#p518a017d35)">
     <use style="fill:#00ff00;stroke:#00ff00;" x="106.390729" xlink:href="#C1_0_919e3f95db" y="56.3654418516"/>
    </g>
    <g clip-path="url(#p518a017d35)">
     <use style="fill:#00ff00;stroke:#00ff00;" x="113.271020101" xlink:href="#C1_0_919e3f95db" y="66.6319614183"/>
    </g>
    <g clip-path="url(#p518a017d35)">
     <use style="fill:#00ff00;stroke:#00ff00;" x="104.161591669" xlink:href="#C1_0_919e3f95db" y="50.2337641136"/>
    </g>
    <g clip-path="url(#p518a017d35)">
     <use style="fill:#00ff00;stroke:#00ff00;" x="120.609521212" xlink:href="#C1_0_919e3f95db" y="142.2588849"/>
    </g>
    <g clip-path="url(#p518a017d35)">
     <use style="fill:#00ff00;stroke:#00ff00;" x="114.466923467" xlink:href="#C1_0_919e3f95db" y="179.24023924"/>
    </g>
    <g clip-path="url(#p518a017d35)">
     <use style="fill:#00ff00;stroke:#00ff00;" x="108.211050275" xlink:href="#C1_0_919e3f95db" y="43.8393535265"/>
    </g>
    <g clip-path="url(#p518a017d35)">
     <use style="fill:#00ff00;stroke:#00ff00;" x="121.09576569" xlink:href="#C1_0_919e3f95db" y="87.7555366705"/>
    </g>
   </g>
   <g id="PathCollection_3">
    <defs>
     <path d="
M0 2.23607
C0.593012 2.23607 1.16182 2.00046 1.58114 1.58114
C2.00046 1.16182 2.23607 0.593012 2.23607 0
C2.23607 -0.593012 2.00046 -1.16182 1.58114 -1.58114
C1.16182 -2.00046 0.593012 -2.23607 0 -2.23607
C-0.593012 -2.23607 -1.16182 -2.00046 -1.58114 -1.58114
C-2.00046 -1.16182 -2.23607 -0.593012 -2.23607 0
C-2.23607 0.593012 -2.00046 1.16182 -1.58114 1.58114
C-1.16182 2.00046 -0.593012 2.23607 0 2.23607
z
" id="C2_0_919e3f95db"/>
    </defs>
    <g clip-path="url(#p518a017d35)">
     <use style="fill:#0000ff;stroke:#0000ff;" x="159.292495901" xlink:href="#C2_0_919e3f95db" y="44.0552490189"/>
    </g>
    <g clip-path="url(#p518a017d35)">
     <use style="fill:#0000ff;stroke:#0000ff;" x="160.068858253" xlink:href="#C2_0_919e3f95db" y="44.0705474874"/>
    </g>
    <g clip-path="url(#p518a017d35)">
     <use style="fill:#0000ff;stroke:#0000ff;" x="147.752879174" xlink:href="#C2_0_919e3f95db" y="44.3782647481"/>
    </g>
    <g clip-path="url(#p518a017d35)">
     <use style="fill:#0000ff;stroke:#0000ff;" x="159.173761341" xlink:href="#C2_0_919e3f95db" y="101.636270885"/>
    </g>
    <g clip-path="url(#p518a017d35)">
     <use style="fill:#0000ff;stroke:#0000ff;" x="147.468636932" xlink:href="#C2_0_919e3f95db" y="138.409339538"/>
    </g>
    <g clip-path="url(#p518a017d35)">
     <use style="fill:#0000ff;stroke:#0000ff;" x="150.847986492" xlink:href="#C2_0_919e3f95db" y="46.6207523569"/>
    </g>
    <g clip-path="url(#p518a017d35)">
     <use style="fill:#0000ff;stroke:#0000ff;" x="163.769276698" xlink:href="#C2_0_919e3f95db" y="53.578138699"/>
    </g>
    <g clip-path="url(#p518a017d35)">
     <use style="fill:#0000ff;stroke:#0000ff;" x="152.231741613" xlink:href="#C2_0_919e3f95db" y="262.668037652"/>
    </g>
    <g clip-path="url(#p518a017d35)">
     <use style="fill:#0000ff;stroke:#0000ff;" x="152.880102424" xlink:href="#C2_0_919e3f95db" y="43.8365551387"/>
    </g>
    <g clip-path="url(#p518a017d35)">
     <use style="fill:#0000ff;stroke:#0000ff;" x="164.61619853" xlink:href="#C2_0_919e3f95db" y="45.1076320147"/>
    </g>
    <g clip-path="url(#p518a017d35)">
     <use style="fill:#0000ff;stroke:#0000ff;" x="156.254856246" xlink:href="#C2_0_919e3f95db" y="44.5940170508"/>
    </g>
    <g clip-path="url(#p518a017d35)">
     <use style="fill:#0000ff;stroke:#0000ff;" x="152.56232361" xlink:href="#C2_0_919e3f95db" y="48.4505223591"/>
    </g>
   </g>
   <g id="PathCollection_4">
    <defs>
     <path d="
M0 2.23607
C0.593012 2.23607 1.16182 2.00046 1.58114 1.58114
C2.00046 1.16182 2.23607 0.593012 2.23607 0
C2.23607 -0.593012 2.00046 -1.16182 1.58114 -1.58114
C1.16182 -2.00046 0.593012 -2.23607 0 -2.23607
C-0.593012 -2.23607 -1.16182 -2.00046 -1.58114 -1.58114
C-2.00046 -1.16182 -2.23607 -0.593012 -2.23607 0
C-2.23607 0.593012 -2.00046 1.16182 -1.58114 1.58114
C-1.16182 2.00046 -0.593012 2.23607 0 2.23607
z
" id="C3_0_919e3f95db"/>
    </defs>
    <g clip-path="url(#p518a017d35)">
     <use style="fill:#ffff00;stroke:#ffff00;" x="194.116117371" xlink:href="#C3_0_919e3f95db" y="55.77430314"/>
    </g>
    <g clip-path="url(#p518a017d35)">
     <use style="fill:#ffff00;stroke:#ffff00;" x="203.271501224" xlink:href="#C3_0_919e3f95db" y="44.3787799135"/>
    </g>
    <g clip-path="url(#p518a017d35)">
     <use style="fill:#ffff00;stroke:#ffff00;" x="200.283209953" xlink:href="#C3_0_919e3f95db" y="226.743908609"/>
    </g>
    <g clip-path="url(#p518a017d35)">
     <use style="fill:#ffff00;stroke:#ffff00;" x="203.08092567" xlink:href="#C3_0_919e3f95db" y="44.886901301"/>
    </g>
    <g clip-path="url(#p518a017d35)">
     <use style="fill:#ffff00;stroke:#ffff00;" x="193.478188069" xlink:href="#C3_0_919e3f95db" y="44.3295477124"/>
    </g>
    <g clip-path="url(#p518a017d35)">
     <use style="fill:#ffff00;stroke:#ffff00;" x="188.079768286" xlink:href="#C3_0_919e3f95db" y="51.1965106134"/>
    </g>
    <g clip-path="url(#p518a017d35)">
     <use style="fill:#ffff00;stroke:#ffff00;" x="207.757852498" xlink:href="#C3_0_919e3f95db" y="99.3717669288"/>
    </g>
    <g clip-path="url(#p518a017d35)">
     <use style="fill:#ffff00;stroke:#ffff00;" x="206.093865148" xlink:href="#C3_0_919e3f95db" y="44.2643290975"/>
    </g>
    <g clip-path="url(#p518a017d35)">
     <use style="fill:#ffff00;stroke:#ffff00;" x="188.362536476" xlink:href="#C3_0_919e3f95db" y="50.8816994698"/>
    </g>
    <g clip-path="url(#p518a017d35)">
     <use style="fill:#ffff00;stroke:#ffff00;" x="190.152506042" xlink:href="#C3_0_919e3f95db" y="44.5517955287"/>
    </g>
    <g clip-path="url(#p518a017d35)">
     <use style="fill:#ffff00;stroke:#ffff00;" x="195.875867311" xlink:href="#C3_0_919e3f95db" y="52.1846523463"/>
    </g>
    <g clip-path="url(#p518a017d35)">
     <use style="fill:#ffff00;stroke:#ffff00;" x="192.32602767" xlink:href="#C3_0_919e3f95db" y="51.312267959"/>
    </g>
   </g>
   <g id="PathCollection_5">
    <defs>
     <path d="
M0 2.23607
C0.593012 2.23607 1.16182 2.00046 1.58114 1.58114
C2.00046 1.16182 2.23607 0.593012 2.23607 0
C2.23607 -0.593012 2.00046 -1.16182 1.58114 -1.58114
C1.16182 -2.00046 0.593012 -2.23607 0 -2.23607
C-0.593012 -2.23607 -1.16182 -2.00046 -1.58114 -1.58114
C-2.00046 -1.16182 -2.23607 -0.593012 -2.23607 0
C-2.23607 0.593012 -2.00046 1.16182 -1.58114 1.58114
C-1.16182 2.00046 -0.593012 2.23607 0 2.23607
z
" id="C4_0_919e3f95db"/>
    </defs>
    <g clip-path="url(#p518a017d35)">
     <use style="fill:#ff00ff;stroke:#ff00ff;" x="240.868161145" xlink:href="#C4_0_919e3f95db" y="44.4310669988"/>
    </g>
    <g clip-path="url(#p518a017d35)">
     <use style="fill:#ff00ff;stroke:#ff00ff;" x="243.906631104" xlink:href="#C4_0_919e3f95db" y="56.6913051389"/>
    </g>
    <g clip-path="url(#p518a017d35)">
     <use style="fill:#ff00ff;stroke:#ff00ff;" x="237.403927744" xlink:href="#C4_0_919e3f95db" y="44.8097284108"/>
    </g>
    <g clip-path="url(#p518a017d35)">
     <use style="fill:#ff00ff;stroke:#ff00ff;" x="235.662348862" xlink:href="#C4_0_919e3f95db" y="61.147160849"/>
    </g>
    <g clip-path="url(#p518a017d35)">
     <use style="fill:#ff00ff;stroke:#ff00ff;" x="237.828552729" xlink:href="#C4_0_919e3f95db" y="106.254366949"/>
    </g>
    <g clip-path="url(#p518a017d35)">
     <use style="fill:#ff00ff;stroke:#ff00ff;" x="230.51256429" xlink:href="#C4_0_919e3f95db" y="59.5850285956"/>
    </g>
    <g clip-path="url(#p518a017d35)">
     <use style="fill:#ff00ff;stroke:#ff00ff;" x="245.471811353" xlink:href="#C4_0_919e3f95db" y="59.8644360235"/>
    </g>
    <g clip-path="url(#p518a017d35)">
     <use style="fill:#ff00ff;stroke:#ff00ff;" x="248.266489948" xlink:href="#C4_0_919e3f95db" y="216.564220388"/>
    </g>
    <g clip-path="url(#p518a017d35)">
     <use style="fill:#ff00ff;stroke:#ff00ff;" x="247.064791765" xlink:href="#C4_0_919e3f95db" y="44.6917191908"/>
    </g>
    <g clip-path="url(#p518a017d35)">
     <use style="fill:#ff00ff;stroke:#ff00ff;" x="230.840116916" xlink:href="#C4_0_919e3f95db" y="44.5035939271"/>
    </g>
    <g clip-path="url(#p518a017d35)">
     <use style="fill:#ff00ff;stroke:#ff00ff;" x="247.652821567" xlink:href="#C4_0_919e3f95db" y="45.4330034522"/>
    </g>
    <g clip-path="url(#p518a017d35)">
     <use style="fill:#ff00ff;stroke:#ff00ff;" x="249.608059439" xlink:href="#C4_0_919e3f95db" y="60.2632825173"/>
    </g>
   </g>
   <g id="PathCollection_6">
    <defs>
     <path d="
M0 2.23607
C0.593012 2.23607 1.16182 2.00046 1.58114 1.58114
C2.00046 1.16182 2.23607 0.593012 2.23607 0
C2.23607 -0.593012 2.00046 -1.16182 1.58114 -1.58114
C1.16182 -2.00046 0.593012 -2.23607 0 -2.23607
C-0.593012 -2.23607 -1.16182 -2.00046 -1.58114 -1.58114
C-2.00046 -1.16182 -2.23607 -0.593012 -2.23607 0
C-2.23607 0.593012 -2.00046 1.16182 -1.58114 1.58114
C-1.16182 2.00046 -0.593012 2.23607 0 2.23607
z
" id="C5_0_919e3f95db"/>
    </defs>
    <g clip-path="url(#p518a017d35)">
     <use style="fill:#00ffff;stroke:#00ffff;" x="273.764889612" xlink:href="#C5_0_919e3f95db" y="314.300885008"/>
    </g>
    <g clip-path="url(#p518a017d35)">
     <use style="fill:#00ffff;stroke:#00ffff;" x="273.524055184" xlink:href="#C5_0_919e3f95db" y="313.465342263"/>
    </g>
    <g clip-path="url(#p518a017d35)">
     <use style="fill:#00ffff;stroke:#00ffff;" x="289.320751603" xlink:href="#C5_0_919e3f95db" y="324.840778675"/>
    </g>
    <g clip-path="url(#p518a017d35)">
     <use style="fill:#00ffff;stroke:#00ffff;" x="282.644742892" xlink:href="#C5_0_919e3f95db" y="313.333193447"/>
    </g>
    <g clip-path="url(#p518a017d35)">
     <use style="fill:#00ffff;stroke:#00ffff;" x="279.123467401" xlink:href="#C5_0_919e3f95db" y="313.232034027"/>
    </g>
    <g clip-path="url(#p518a017d35)">
     <use style="fill:#00ffff;stroke:#00ffff;" x="273.466110232" xlink:href="#C5_0_919e3f95db" y="313.780331533"/>
    </g>
    <g clip-path="url(#p518a017d35)">
     <use style="fill:#00ffff;stroke:#00ffff;" x="283.06854767" xlink:href="#C5_0_919e3f95db" y="327.282378798"/>
    </g>
    <g clip-path="url(#p518a017d35)">
     <use style="fill:#00ffff;stroke:#00ffff;" x="285.155108611" xlink:href="#C5_0_919e3f95db" y="325.249754624"/>
    </g>
    <g clip-path="url(#p518a017d35)">
     <use style="fill:#00ffff;stroke:#00ffff;" x="280.765774452" xlink:href="#C5_0_919e3f95db" y="330.837655914"/>
    </g>
    <g clip-path="url(#p518a017d35)">
     <use style="fill:#00ffff;stroke:#00ffff;" x="291.659953237" xlink:href="#C5_0_919e3f95db" y="328.164968227"/>
    </g>
    <g clip-path="url(#p518a017d35)">
     <use style="fill:#00ffff;stroke:#00ffff;" x="278.582222415" xlink:href="#C5_0_919e3f95db" y="325.456001452"/>
    </g>
    <g clip-path="url(#p518a017d35)">
     <use style="fill:#00ffff;stroke:#00ffff;" x="279.916176699" xlink:href="#C5_0_919e3f95db" y="324.699521262"/>
    </g>
   </g>
   <g id="PathCollection_7">
    <defs>
     <path d="
M0 2.23607
C0.593012 2.23607 1.16182 2.00046 1.58114 1.58114
C2.00046 1.16182 2.23607 0.593012 2.23607 0
C2.23607 -0.593012 2.00046 -1.16182 1.58114 -1.58114
C1.16182 -2.00046 0.593012 -2.23607 0 -2.23607
C-0.593012 -2.23607 -1.16182 -2.00046 -1.58114 -1.58114
C-2.00046 -1.16182 -2.23607 -0.593012 -2.23607 0
C-2.23607 0.593012 -2.00046 1.16182 -1.58114 1.58114
C-1.16182 2.00046 -0.593012 2.23607 0 2.23607
z
" id="C6_0_919e3f95db"/>
    </defs>
    <g clip-path="url(#p518a017d35)">
     <use style="stroke:#000000;" x="318.660546009" xlink:href="#C6_0_919e3f95db" y="312.521967923"/>
    </g>
    <g clip-path="url(#p518a017d35)">
     <use style="stroke:#000000;" x="333.54665971" xlink:href="#C6_0_919e3f95db" y="211.88759075"/>
    </g>
    <g clip-path="url(#p518a017d35)">
     <use style="stroke:#000000;" x="324.668982012" xlink:href="#C6_0_919e3f95db" y="256.037087307"/>
    </g>
    <g clip-path="url(#p518a017d35)">
     <use style="stroke:#000000;" x="334.098325186" xlink:href="#C6_0_919e3f95db" y="238.209101342"/>
    </g>
    <g clip-path="url(#p518a017d35)">
     <use style="stroke:#000000;" x="335.622448221" xlink:href="#C6_0_919e3f95db" y="49.3386556338"/>
    </g>
    <g clip-path="url(#p518a017d35)">
     <use style="stroke:#000000;" x="326.46765407" xlink:href="#C6_0_919e3f95db" y="46.2892332359"/>
    </g>
    <g clip-path="url(#p518a017d35)">
     <use style="stroke:#000000;" x="320.628952285" xlink:href="#C6_0_919e3f95db" y="46.1065055029"/>
    </g>
    <g clip-path="url(#p518a017d35)">
     <use style="stroke:#000000;" x="335.956459712" xlink:href="#C6_0_919e3f95db" y="46.4781259865"/>
    </g>
    <g clip-path="url(#p518a017d35)">
     <use style="stroke:#000000;" x="325.393842088" xlink:href="#C6_0_919e3f95db" y="204.84011078"/>
    </g>
    <g clip-path="url(#p518a017d35)">
     <use style="stroke:#000000;" x="335.036006093" xlink:href="#C6_0_919e3f95db" y="208.269562252"/>
    </g>
    <g clip-path="url(#p518a017d35)">
     <use style="stroke:#000000;" x="327.515440639" xlink:href="#C6_0_919e3f95db" y="46.1371636221"/>
    </g>
    <g clip-path="url(#p518a017d35)">
     <use style="stroke:#000000;" x="329.000110883" xlink:href="#C6_0_919e3f95db" y="191.000986217"/>
    </g>
   </g>
   <g id="PathCollection_8">
    <defs>
     <path d="
M0 2.23607
C0.593012 2.23607 1.16182 2.00046 1.58114 1.58114
C2.00046 1.16182 2.23607 0.593012 2.23607 0
C2.23607 -0.593012 2.00046 -1.16182 1.58114 -1.58114
C1.16182 -2.00046 0.593012 -2.23607 0 -2.23607
C-0.593012 -2.23607 -1.16182 -2.00046 -1.58114 -1.58114
C-2.00046 -1.16182 -2.23607 -0.593012 -2.23607 0
C-2.23607 0.593012 -2.00046 1.16182 -1.58114 1.58114
C-1.16182 2.00046 -0.593012 2.23607 0 2.23607
z
" id="C7_0_919e3f95db"/>
    </defs>
    <g clip-path="url(#p518a017d35)">
     <use style="fill:#800000;stroke:#800000;" x="371.119185448" xlink:href="#C7_0_919e3f95db" y="72.3539294851"/>
    </g>
    <g clip-path="url(#p518a017d35)">
     <use style="fill:#800000;stroke:#800000;" x="366.587719699" xlink:href="#C7_0_919e3f95db" y="44.6393217286"/>
    </g>
    <g clip-path="url(#p518a017d35)">
     <use style="fill:#800000;stroke:#800000;" x="358.870470751" xlink:href="#C7_0_919e3f95db" y="118.965317912"/>
    </g>
    <g clip-path="url(#p518a017d35)">
     <use style="fill:#800000;stroke:#800000;" x="361.533528896" xlink:href="#C7_0_919e3f95db" y="172.518509226"/>
    </g>
    <g clip-path="url(#p518a017d35)">
     <use style="fill:#800000;stroke:#800000;" x="370.393881665" xlink:href="#C7_0_919e3f95db" y="43.9820053853"/>
    </g>
    <g clip-path="url(#p518a017d35)">
     <use style="fill:#800000;stroke:#800000;" x="368.352691669" xlink:href="#C7_0_919e3f95db" y="53.3474274082"/>
    </g>
    <g clip-path="url(#p518a017d35)">
     <use style="fill:#800000;stroke:#800000;" x="373.373961761" xlink:href="#C7_0_919e3f95db" y="268.942526503"/>
    </g>
    <g clip-path="url(#p518a017d35)">
     <use style="fill:#800000;stroke:#800000;" x="364.200404913" xlink:href="#C7_0_919e3f95db" y="48.2907311227"/>
    </g>
    <g clip-path="url(#p518a017d35)">
     <use style="fill:#800000;stroke:#800000;" x="378.098817337" xlink:href="#C7_0_919e3f95db" y="60.9902378496"/>
    </g>
    <g clip-path="url(#p518a017d35)">
     <use style="fill:#800000;stroke:#800000;" x="366.83880101" xlink:href="#C7_0_919e3f95db" y="44.4960741861"/>
    </g>
    <g clip-path="url(#p518a017d35)">
     <use style="fill:#800000;stroke:#800000;" x="367.924242935" xlink:href="#C7_0_919e3f95db" y="45.2207893872"/>
    </g>
    <g clip-path="url(#p518a017d35)">
     <use style="fill:#800000;stroke:#800000;" x="364.411332541" xlink:href="#C7_0_919e3f95db" y="44.6774297884"/>
    </g>
   </g>
   <g id="PathCollection_9">
    <defs>
     <path d="
M0 2.23607
C0.593012 2.23607 1.16182 2.00046 1.58114 1.58114
C2.00046 1.16182 2.23607 0.593012 2.23607 0
C2.23607 -0.593012 2.00046 -1.16182 1.58114 -1.58114
C1.16182 -2.00046 0.593012 -2.23607 0 -2.23607
C-0.593012 -2.23607 -1.16182 -2.00046 -1.58114 -1.58114
C-2.00046 -1.16182 -2.23607 -0.593012 -2.23607 0
C-2.23607 0.593012 -2.00046 1.16182 -1.58114 1.58114
C-1.16182 2.00046 -0.593012 2.23607 0 2.23607
z
" id="C8_0_919e3f95db"/>
    </defs>
    <g clip-path="url(#p518a017d35)">
     <use style="fill:#008000;stroke:#008000;" x="417.151901135" xlink:href="#C8_0_919e3f95db" y="43.8521657436"/>
    </g>
    <g clip-path="url(#p518a017d35)">
     <use style="fill:#008000;stroke:#008000;" x="411.685807904" xlink:href="#C8_0_919e3f95db" y="253.163486163"/>
    </g>
    <g clip-path="url(#p518a017d35)">
     <use style="fill:#008000;stroke:#008000;" x="414.77528973" xlink:href="#C8_0_919e3f95db" y="82.4196798586"/>
    </g>
    <g clip-path="url(#p518a017d35)">
     <use style="fill:#008000;stroke:#008000;" x="420.901393935" xlink:href="#C8_0_919e3f95db" y="52.0700685458"/>
    </g>
    <g clip-path="url(#p518a017d35)">
     <use style="fill:#008000;stroke:#008000;" x="419.584139102" xlink:href="#C8_0_919e3f95db" y="134.557658831"/>
    </g>
    <g clip-path="url(#p518a017d35)">
     <use style="fill:#008000;stroke:#008000;" x="411.057610001" xlink:href="#C8_0_919e3f95db" y="47.2180925855"/>
    </g>
    <g clip-path="url(#p518a017d35)">
     <use style="fill:#008000;stroke:#008000;" x="418.120768881" xlink:href="#C8_0_919e3f95db" y="47.571762552"/>
    </g>
    <g clip-path="url(#p518a017d35)">
     <use style="fill:#008000;stroke:#008000;" x="400.424382917" xlink:href="#C8_0_919e3f95db" y="44.3245654683"/>
    </g>
    <g clip-path="url(#p518a017d35)">
     <use style="fill:#008000;stroke:#008000;" x="419.723242185" xlink:href="#C8_0_919e3f95db" y="44.1390990404"/>
    </g>
    <g clip-path="url(#p518a017d35)">
     <use style="fill:#008000;stroke:#008000;" x="420.583279145" xlink:href="#C8_0_919e3f95db" y="43.8567764269"/>
    </g>
    <g clip-path="url(#p518a017d35)">
     <use style="fill:#008000;stroke:#008000;" x="420.078748702" xlink:href="#C8_0_919e3f95db" y="44.6053725662"/>
    </g>
    <g clip-path="url(#p518a017d35)">
     <use style="fill:#008000;stroke:#008000;" x="401.191915174" xlink:href="#C8_0_919e3f95db" y="47.7765742841"/>
    </g>
   </g>
   <g id="PathCollection_10">
    <defs>
     <path d="
M0 2.23607
C0.593012 2.23607 1.16182 2.00046 1.58114 1.58114
C2.00046 1.16182 2.23607 0.593012 2.23607 0
C2.23607 -0.593012 2.00046 -1.16182 1.58114 -1.58114
C1.16182 -2.00046 0.593012 -2.23607 0 -2.23607
C-0.593012 -2.23607 -1.16182 -2.00046 -1.58114 -1.58114
C-2.00046 -1.16182 -2.23607 -0.593012 -2.23607 0
C-2.23607 0.593012 -2.00046 1.16182 -1.58114 1.58114
C-1.16182 2.00046 -0.593012 2.23607 0 2.23607
z
" id="C9_0_919e3f95db"/>
    </defs>
    <g clip-path="url(#p518a017d35)">
     <use style="fill:#000080;stroke:#000080;" x="459.654626645" xlink:href="#C9_0_919e3f95db" y="44.599122538"/>
    </g>
    <g clip-path="url(#p518a017d35)">
     <use style="fill:#000080;stroke:#000080;" x="452.188001231" xlink:href="#C9_0_919e3f95db" y="256.569947428"/>
    </g>
    <g clip-path="url(#p518a017d35)">
     <use style="fill:#000080;stroke:#000080;" x="447.365705151" xlink:href="#C9_0_919e3f95db" y="180.572630328"/>
    </g>
    <g clip-path="url(#p518a017d35)">
     <use style="fill:#000080;stroke:#000080;" x="462.7628416" xlink:href="#C9_0_919e3f95db" y="65.3833737695"/>
    </g>
    <g clip-path="url(#p518a017d35)">
     <use style="fill:#000080;stroke:#000080;" x="448.884518558" xlink:href="#C9_0_919e3f95db" y="44.3807186994"/>
    </g>
    <g clip-path="url(#p518a017d35)">
     <use style="fill:#000080;stroke:#000080;" x="459.461702981" xlink:href="#C9_0_919e3f95db" y="105.615189869"/>
    </g>
    <g clip-path="url(#p518a017d35)">
     <use style="fill:#000080;stroke:#000080;" x="462.59992582" xlink:href="#C9_0_919e3f95db" y="67.2082471486"/>
    </g>
    <g clip-path="url(#p518a017d35)">
     <use style="fill:#000080;stroke:#000080;" x="454.223001891" xlink:href="#C9_0_919e3f95db" y="44.4494751125"/>
    </g>
    <g clip-path="url(#p518a017d35)">
     <use style="fill:#000080;stroke:#000080;" x="446.305852815" xlink:href="#C9_0_919e3f95db" y="44.6754777212"/>
    </g>
    <g clip-path="url(#p518a017d35)">
     <use style="fill:#000080;stroke:#000080;" x="448.907618627" xlink:href="#C9_0_919e3f95db" y="78.3624753282"/>
    </g>
    <g clip-path="url(#p518a017d35)">
     <use style="fill:#000080;stroke:#000080;" x="463.466726265" xlink:href="#C9_0_919e3f95db" y="46.214081847"/>
    </g>
    <g clip-path="url(#p518a017d35)">
     <use style="fill:#000080;stroke:#000080;" x="454.216540799" xlink:href="#C9_0_919e3f95db" y="72.6627230244"/>
    </g>
   </g>
   <g id="PathCollection_11">
    <defs>
     <path d="
M0 2.23607
C0.593012 2.23607 1.16182 2.00046 1.58114 1.58114
C2.00046 1.16182 2.23607 0.593012 2.23607 0
C2.23607 -0.593012 2.00046 -1.16182 1.58114 -1.58114
C1.16182 -2.00046 0.593012 -2.23607 0 -2.23607
C-0.593012 -2.23607 -1.16182 -2.00046 -1.58114 -1.58114
C-2.00046 -1.16182 -2.23607 -0.593012 -2.23607 0
C-2.23607 0.593012 -2.00046 1.16182 -1.58114 1.58114
C-1.16182 2.00046 -0.593012 2.23607 0 2.23607
z
" id="Ca_0_919e3f95db"/>
    </defs>
    <g clip-path="url(#p518a017d35)">
     <use style="fill:#808000;stroke:#808000;" x="504.761625935" xlink:href="#Ca_0_919e3f95db" y="54.0975400153"/>
    </g>
    <g clip-path="url(#p518a017d35)">
     <use style="fill:#808000;stroke:#808000;" x="503.87363869" xlink:href="#Ca_0_919e3f95db" y="114.455192874"/>
    </g>
    <g clip-path="url(#p518a017d35)">
     <use style="fill:#808000;stroke:#808000;" x="502.339028211" xlink:href="#Ca_0_919e3f95db" y="117.125093086"/>
    </g>
    <g clip-path="url(#p518a017d35)">
     <use style="fill:#808000;stroke:#808000;" x="503.380418689" xlink:href="#Ca_0_919e3f95db" y="212.456162671"/>
    </g>
    <g clip-path="url(#p518a017d35)">
     <use style="fill:#808000;stroke:#808000;" x="503.338616783" xlink:href="#Ca_0_919e3f95db" y="111.608780289"/>
    </g>
    <g clip-path="url(#p518a017d35)">
     <use style="fill:#808000;stroke:#808000;" x="487.945400465" xlink:href="#Ca_0_919e3f95db" y="51.305470978"/>
    </g>
    <g clip-path="url(#p518a017d35)">
     <use style="fill:#808000;stroke:#808000;" x="502.579562174" xlink:href="#Ca_0_919e3f95db" y="109.653856353"/>
    </g>
    <g clip-path="url(#p518a017d35)">
     <use style="fill:#808000;stroke:#808000;" x="502.710731801" xlink:href="#Ca_0_919e3f95db" y="106.104040831"/>
    </g>
    <g clip-path="url(#p518a017d35)">
     <use style="fill:#808000;stroke:#808000;" x="506.067727669" xlink:href="#Ca_0_919e3f95db" y="50.2287688079"/>
    </g>
    <g clip-path="url(#p518a017d35)">
     <use style="fill:#808000;stroke:#808000;" x="493.899938293" xlink:href="#Ca_0_919e3f95db" y="258.660106827"/>
    </g>
    <g clip-path="url(#p518a017d35)">
     <use style="fill:#808000;stroke:#808000;" x="486.438832843" xlink:href="#Ca_0_919e3f95db" y="58.6953013622"/>
    </g>
    <g clip-path="url(#p518a017d35)">
     <use style="fill:#808000;stroke:#808000;" x="494.725455752" xlink:href="#Ca_0_919e3f95db" y="53.5087041307"/>
    </g>
   </g>
   <g id="PathCollection_12">
    <defs>
     <path d="
M0 2.23607
C0.593012 2.23607 1.16182 2.00046 1.58114 1.58114
C2.00046 1.16182 2.23607 0.593012 2.23607 0
C2.23607 -0.593012 2.00046 -1.16182 1.58114 -1.58114
C1.16182 -2.00046 0.593012 -2.23607 0 -2.23607
C-0.593012 -2.23607 -1.16182 -2.00046 -1.58114 -1.58114
C-2.00046 -1.16182 -2.23607 -0.593012 -2.23607 0
C-2.23607 0.593012 -2.00046 1.16182 -1.58114 1.58114
C-1.16182 2.00046 -0.593012 2.23607 0 2.23607
z
" id="Cb_0_919e3f95db"/>
    </defs>
    <g clip-path="url(#p518a017d35)">
     <use style="fill:#800080;stroke:#800080;" x="547.006577315" xlink:href="#Cb_0_919e3f95db" y="313.219151179"/>
    </g>
    <g clip-path="url(#p518a017d35)">
     <use style="fill:#800080;stroke:#800080;" x="545.700004645" xlink:href="#Cb_0_919e3f95db" y="322.923070653"/>
    </g>
    <g clip-path="url(#p518a017d35)">
     <use style="fill:#800080;stroke:#800080;" x="529.969983822" xlink:href="#Cb_0_919e3f95db" y="314.248599265"/>
    </g>
    <g clip-path="url(#p518a017d35)">
     <use style="fill:#800080;stroke:#800080;" x="543.46927709" xlink:href="#Cb_0_919e3f95db" y="322.236731434"/>
    </g>
    <g clip-path="url(#p518a017d35)">
     <use style="fill:#800080;stroke:#800080;" x="536.389728889" xlink:href="#Cb_0_919e3f95db" y="313.447901052"/>
    </g>
    <g clip-path="url(#p518a017d35)">
     <use style="fill:#800080;stroke:#800080;" x="533.977108919" xlink:href="#Cb_0_919e3f95db" y="328.398623733"/>
    </g>
    <g clip-path="url(#p518a017d35)">
     <use style="fill:#800080;stroke:#800080;" x="545.360132915" xlink:href="#Cb_0_919e3f95db" y="316.010427143"/>
    </g>
    <g clip-path="url(#p518a017d35)">
     <use style="fill:#800080;stroke:#800080;" x="532.242990131" xlink:href="#Cb_0_919e3f95db" y="330.859234392"/>
    </g>
    <g clip-path="url(#p518a017d35)">
     <use style="fill:#800080;stroke:#800080;" x="537.219543359" xlink:href="#Cb_0_919e3f95db" y="322.077770209"/>
    </g>
    <g clip-path="url(#p518a017d35)">
     <use style="fill:#800080;stroke:#800080;" x="546.778857447" xlink:href="#Cb_0_919e3f95db" y="322.089438667"/>
    </g>
    <g clip-path="url(#p518a017d35)">
     <use style="fill:#800080;stroke:#800080;" x="532.118428681" xlink:href="#Cb_0_919e3f95db" y="316.194799031"/>
    </g>
    <g clip-path="url(#p518a017d35)">
     <use style="fill:#800080;stroke:#800080;" x="528.573604036" xlink:href="#Cb_0_919e3f95db" y="326.198063039"/>
    </g>
   </g>
   <g id="matplotlib.axis_1">
    <g id="xtick_1">
     <g id="line2d_1">
      <path clip-path="url(#p518a017d35)" d="
M68.8215 345.771
L68.8215 28.9018" style="fill:none;stroke:#000000;stroke-dasharray:1.000000,3.000000;stroke-dashoffset:0.0;stroke-width:0.5;"/>
     </g>
     <g id="line2d_2">
      <defs>
       <path d="
M0 0
L0 -4" id="m93b0483c22" style="stroke:#000000;stroke-width:0.5;"/>
      </defs>
      <g>
       <use style="stroke:#000000;stroke-width:0.5;" x="68.8215345633" xlink:href="#m93b0483c22" y="345.771013303"/>
      </g>
     </g>
     <g id="line2d_3">
      <defs>
       <path d="
M0 0
L0 4" id="m741efc42ff" style="stroke:#000000;stroke-width:0.5;"/>
      </defs>
      <g>
       <use style="stroke:#000000;stroke-width:0.5;" x="68.8215345633" xlink:href="#m741efc42ff" y="28.90175"/>
      </g>
     </g>
     <g id="text_1">
      <!-- w44-1cont_128kb -->
      <defs>
       <path d="
M4.89062 31.3906
L31.2031 31.3906
L31.2031 23.3906
L4.89062 23.3906
z
" id="DejaVuSans-2d"/>
       <path d="
M30.6094 48.3906
Q23.3906 48.3906 19.1875 42.75
Q14.9844 37.1094 14.9844 27.2969
Q14.9844 17.4844 19.1562 11.8438
Q23.3438 6.20312 30.6094 6.20312
Q37.7969 6.20312 41.9844 11.8594
Q46.1875 17.5312 46.1875 27.2969
Q46.1875 37.0156 41.9844 42.7031
Q37.7969 48.3906 30.6094 48.3906
M30.6094 56
Q42.3281 56 49.0156 48.375
Q55.7188 40.7656 55.7188 27.2969
Q55.7188 13.875 49.0156 6.21875
Q42.3281 -1.42188 30.6094 -1.42188
Q18.8438 -1.42188 12.1719 6.21875
Q5.51562 13.875 5.51562 27.2969
Q5.51562 40.7656 12.1719 48.375
Q18.8438 56 30.6094 56" id="DejaVuSans-6f"/>
       <path d="
M54.8906 33.0156
L54.8906 0
L45.9062 0
L45.9062 32.7188
Q45.9062 40.4844 42.875 44.3281
Q39.8438 48.1875 33.7969 48.1875
Q26.5156 48.1875 22.3125 43.5469
Q18.1094 38.9219 18.1094 30.9062
L18.1094 0
L9.07812 0
L9.07812 54.6875
L18.1094 54.6875
L18.1094 46.1875
Q21.3438 51.125 25.7031 53.5625
Q30.0781 56 35.7969 56
Q45.2188 56 50.0469 50.1719
Q54.8906 44.3438 54.8906 33.0156" id="DejaVuSans-6e"/>
       <path d="
M9.07812 75.9844
L18.1094 75.9844
L18.1094 31.1094
L44.9219 54.6875
L56.3906 54.6875
L27.3906 29.1094
L57.625 0
L45.9062 0
L18.1094 26.7031
L18.1094 0
L9.07812 0
z
" id="DejaVuSans-6b"/>
       <path d="
M50.9844 -16.6094
L50.9844 -23.5781
L-0.984375 -23.5781
L-0.984375 -16.6094
z
" id="DejaVuSans-5f"/>
       <path d="
M12.4062 8.29688
L28.5156 8.29688
L28.5156 63.9219
L10.9844 60.4062
L10.9844 69.3906
L28.4219 72.9062
L38.2812 72.9062
L38.2812 8.29688
L54.3906 8.29688
L54.3906 0
L12.4062 0
z
" id="DejaVuSans-31"/>
       <path d="
M19.1875 8.29688
L53.6094 8.29688
L53.6094 0
L7.32812 0
L7.32812 8.29688
Q12.9375 14.1094 22.625 23.8906
Q32.3281 33.6875 34.8125 36.5312
Q39.5469 41.8438 41.4219 45.5312
Q43.3125 49.2188 43.3125 52.7812
Q43.3125 58.5938 39.2344 62.25
Q35.1562 65.9219 28.6094 65.9219
Q23.9688 65.9219 18.8125 64.3125
Q13.6719 62.7031 7.8125 59.4219
L7.8125 69.3906
Q13.7656 71.7812 18.9375 73
Q24.125 74.2188 28.4219 74.2188
Q39.75 74.2188 46.4844 68.5469
Q53.2188 62.8906 53.2188 53.4219
Q53.2188 48.9219 51.5312 44.8906
Q49.8594 40.875 45.4062 35.4062
Q44.1875 33.9844 37.6406 27.2188
Q31.1094 20.4531 19.1875 8.29688" id="DejaVuSans-32"/>
       <path d="
M37.7969 64.3125
L12.8906 25.3906
L37.7969 25.3906
z

M35.2031 72.9062
L47.6094 72.9062
L47.6094 25.3906
L58.0156 25.3906
L58.0156 17.1875
L47.6094 17.1875
L47.6094 0
L37.7969 0
L37.7969 17.1875
L4.89062 17.1875
L4.89062 26.7031
z
" id="DejaVuSans-34"/>
       <path d="
M31.7812 34.625
Q24.75 34.625 20.7188 30.8594
Q16.7031 27.0938 16.7031 20.5156
Q16.7031 13.9219 20.7188 10.1562
Q24.75 6.39062 31.7812 6.39062
Q38.8125 6.39062 42.8594 10.1719
Q46.9219 13.9688 46.9219 20.5156
Q46.9219 27.0938 42.8906 30.8594
Q38.875 34.625 31.7812 34.625
M21.9219 38.8125
Q15.5781 40.375 12.0312 44.7188
Q8.5 49.0781 8.5 55.3281
Q8.5 64.0625 14.7188 69.1406
Q20.9531 74.2188 31.7812 74.2188
Q42.6719 74.2188 48.875 69.1406
Q55.0781 64.0625 55.0781 55.3281
Q55.0781 49.0781 51.5312 44.7188
Q48 40.375 41.7031 38.8125
Q48.8281 37.1562 52.7969 32.3125
Q56.7812 27.4844 56.7812 20.5156
Q56.7812 9.90625 50.3125 4.23438
Q43.8438 -1.42188 31.7812 -1.42188
Q19.7344 -1.42188 13.25 4.23438
Q6.78125 9.90625 6.78125 20.5156
Q6.78125 27.4844 10.7812 32.3125
Q14.7969 37.1562 21.9219 38.8125
M18.3125 54.3906
Q18.3125 48.7344 21.8438 45.5625
Q25.3906 42.3906 31.7812 42.3906
Q38.1406 42.3906 41.7188 45.5625
Q45.3125 48.7344 45.3125 54.3906
Q45.3125 60.0625 41.7188 63.2344
Q38.1406 66.4062 31.7812 66.4062
Q25.3906 66.4062 21.8438 63.2344
Q18.3125 60.0625 18.3125 54.3906" id="DejaVuSans-38"/>
       <path d="
M18.3125 70.2188
L18.3125 54.6875
L36.8125 54.6875
L36.8125 47.7031
L18.3125 47.7031
L18.3125 18.0156
Q18.3125 11.3281 20.1406 9.42188
Q21.9688 7.51562 27.5938 7.51562
L36.8125 7.51562
L36.8125 0
L27.5938 0
Q17.1875 0 13.2344 3.875
Q9.28125 7.76562 9.28125 18.0156
L9.28125 47.7031
L2.6875 47.7031
L2.6875 54.6875
L9.28125 54.6875
L9.28125 70.2188
z
" id="DejaVuSans-74"/>
       <path d="
M4.20312 54.6875
L13.1875 54.6875
L24.4219 12.0156
L35.5938 54.6875
L46.1875 54.6875
L57.4219 12.0156
L68.6094 54.6875
L77.5938 54.6875
L63.2812 0
L52.6875 0
L40.9219 44.8281
L29.1094 0
L18.5 0
z
" id="DejaVuSans-77"/>
       <path d="
M48.6875 27.2969
Q48.6875 37.2031 44.6094 42.8438
Q40.5312 48.4844 33.4062 48.4844
Q26.2656 48.4844 22.1875 42.8438
Q18.1094 37.2031 18.1094 27.2969
Q18.1094 17.3906 22.1875 11.75
Q26.2656 6.10938 33.4062 6.10938
Q40.5312 6.10938 44.6094 11.75
Q48.6875 17.3906 48.6875 27.2969
M18.1094 46.3906
Q20.9531 51.2656 25.2656 53.625
Q29.5938 56 35.5938 56
Q45.5625 56 51.7812 48.0938
Q58.0156 40.1875 58.0156 27.2969
Q58.0156 14.4062 51.7812 6.48438
Q45.5625 -1.42188 35.5938 -1.42188
Q29.5938 -1.42188 25.2656 0.953125
Q20.9531 3.32812 18.1094 8.20312
L18.1094 0
L9.07812 0
L9.07812 75.9844
L18.1094 75.9844
z
" id="DejaVuSans-62"/>
       <path d="
M48.7812 52.5938
L48.7812 44.1875
Q44.9688 46.2969 41.1406 47.3438
Q37.3125 48.3906 33.4062 48.3906
Q24.6562 48.3906 19.8125 42.8438
Q14.9844 37.3125 14.9844 27.2969
Q14.9844 17.2812 19.8125 11.7344
Q24.6562 6.20312 33.4062 6.20312
Q37.3125 6.20312 41.1406 7.25
Q44.9688 8.29688 48.7812 10.4062
L48.7812 2.09375
Q45.0156 0.34375 40.9844 -0.53125
Q36.9688 -1.42188 32.4219 -1.42188
Q20.0625 -1.42188 12.7812 6.34375
Q5.51562 14.1094 5.51562 27.2969
Q5.51562 40.6719 12.8594 48.3281
Q20.2188 56 33.0156 56
Q37.1562 56 41.1094 55.1406
Q45.0625 54.2969 48.7812 52.5938" id="DejaVuSans-63"/>
      </defs>
      <g transform="translate(39.5589147928 417.374841002)rotate(-45.0)scale(0.1 -0.1)">
       <use xlink:href="#DejaVuSans-77"/>
       <use x="81.787109375" xlink:href="#DejaVuSans-34"/>
       <use x="145.41015625" xlink:href="#DejaVuSans-34"/>
       <use x="209.033203125" xlink:href="#DejaVuSans-2d"/>
       <use x="245.1171875" xlink:href="#DejaVuSans-31"/>
       <use x="308.740234375" xlink:href="#DejaVuSans-63"/>
       <use x="363.720703125" xlink:href="#DejaVuSans-6f"/>
       <use x="424.90234375" xlink:href="#DejaVuSans-6e"/>
       <use x="488.28125" xlink:href="#DejaVuSans-74"/>
       <use x="527.490234375" xlink:href="#DejaVuSans-5f"/>
       <use x="577.490234375" xlink:href="#DejaVuSans-31"/>
       <use x="641.11328125" xlink:href="#DejaVuSans-32"/>
       <use x="704.736328125" xlink:href="#DejaVuSans-38"/>
       <use x="768.359375" xlink:href="#DejaVuSans-6b"/>
       <use x="826.26953125" xlink:href="#DejaVuSans-62"/>
      </g>
     </g>
    </g>
    <g id="xtick_2">
     <g id="line2d_4">
      <path clip-path="url(#p518a017d35)" d="
M111.576 345.771
L111.576 28.9018" style="fill:none;stroke:#000000;stroke-dasharray:1.000000,3.000000;stroke-dashoffset:0.0;stroke-width:0.5;"/>
     </g>
     <g id="line2d_5">
      <g>
       <use style="stroke:#000000;stroke-width:0.5;" x="111.576328986" xlink:href="#m93b0483c22" y="345.771013303"/>
      </g>
     </g>
     <g id="line2d_6">
      <g>
       <use style="stroke:#000000;stroke-width:0.5;" x="111.576328986" xlink:href="#m741efc42ff" y="28.90175"/>
      </g>
     </g>
     <g id="text_2">
      <!-- w45-1cont_512kb -->
      <defs>
       <path d="
M10.7969 72.9062
L49.5156 72.9062
L49.5156 64.5938
L19.8281 64.5938
L19.8281 46.7344
Q21.9688 47.4688 24.1094 47.8281
Q26.2656 48.1875 28.4219 48.1875
Q40.625 48.1875 47.75 41.5
Q54.8906 34.8125 54.8906 23.3906
Q54.8906 11.625 47.5625 5.09375
Q40.2344 -1.42188 26.9062 -1.42188
Q22.3125 -1.42188 17.5469 -0.640625
Q12.7969 0.140625 7.71875 1.70312
L7.71875 11.625
Q12.1094 9.23438 16.7969 8.0625
Q21.4844 6.89062 26.7031 6.89062
Q35.1562 6.89062 40.0781 11.3281
Q45.0156 15.7656 45.0156 23.3906
Q45.0156 31 40.0781 35.4375
Q35.1562 39.8906 26.7031 39.8906
Q22.75 39.8906 18.8125 39.0156
Q14.8906 38.1406 10.7969 36.2812
z
" id="DejaVuSans-35"/>
      </defs>
      <g transform="translate(82.3137092159 417.374841002)rotate(-45.0)scale(0.1 -0.1)">
       <use xlink:href="#DejaVuSans-77"/>
       <use x="81.787109375" xlink:href="#DejaVuSans-34"/>
       <use x="145.41015625" xlink:href="#DejaVuSans-35"/>
       <use x="209.033203125" xlink:href="#DejaVuSans-2d"/>
       <use x="245.1171875" xlink:href="#DejaVuSans-31"/>
       <use x="308.740234375" xlink:href="#DejaVuSans-63"/>
       <use x="363.720703125" xlink:href="#DejaVuSans-6f"/>
       <use x="424.90234375" xlink:href="#DejaVuSans-6e"/>
       <use x="488.28125" xlink:href="#DejaVuSans-74"/>
       <use x="527.490234375" xlink:href="#DejaVuSans-5f"/>
       <use x="577.490234375" xlink:href="#DejaVuSans-35"/>
       <use x="641.11328125" xlink:href="#DejaVuSans-31"/>
       <use x="704.736328125" xlink:href="#DejaVuSans-32"/>
       <use x="768.359375" xlink:href="#DejaVuSans-6b"/>
       <use x="826.26953125" xlink:href="#DejaVuSans-62"/>
      </g>
     </g>
    </g>
    <g id="xtick_3">
     <g id="line2d_7">
      <path clip-path="url(#p518a017d35)" d="
M154.331 345.771
L154.331 28.9018" style="fill:none;stroke:#000000;stroke-dasharray:1.000000,3.000000;stroke-dashoffset:0.0;stroke-width:0.5;"/>
     </g>
     <g id="line2d_8">
      <g>
       <use style="stroke:#000000;stroke-width:0.5;" x="154.331123409" xlink:href="#m93b0483c22" y="345.771013303"/>
      </g>
     </g>
     <g id="line2d_9">
      <g>
       <use style="stroke:#000000;stroke-width:0.5;" x="154.331123409" xlink:href="#m741efc42ff" y="28.90175"/>
      </g>
     </g>
     <g id="text_3">
      <!-- w46-1cont_1024kb -->
      <defs>
       <path d="
M31.7812 66.4062
Q24.1719 66.4062 20.3281 58.9062
Q16.5 51.4219 16.5 36.375
Q16.5 21.3906 20.3281 13.8906
Q24.1719 6.39062 31.7812 6.39062
Q39.4531 6.39062 43.2812 13.8906
Q47.125 21.3906 47.125 36.375
Q47.125 51.4219 43.2812 58.9062
Q39.4531 66.4062 31.7812 66.4062
M31.7812 74.2188
Q44.0469 74.2188 50.5156 64.5156
Q56.9844 54.8281 56.9844 36.375
Q56.9844 17.9688 50.5156 8.26562
Q44.0469 -1.42188 31.7812 -1.42188
Q19.5312 -1.42188 13.0625 8.26562
Q6.59375 17.9688 6.59375 36.375
Q6.59375 54.8281 13.0625 64.5156
Q19.5312 74.2188 31.7812 74.2188" id="DejaVuSans-30"/>
       <path d="
M33.0156 40.375
Q26.375 40.375 22.4844 35.8281
Q18.6094 31.2969 18.6094 23.3906
Q18.6094 15.5312 22.4844 10.9531
Q26.375 6.39062 33.0156 6.39062
Q39.6562 6.39062 43.5312 10.9531
Q47.4062 15.5312 47.4062 23.3906
Q47.4062 31.2969 43.5312 35.8281
Q39.6562 40.375 33.0156 40.375
M52.5938 71.2969
L52.5938 62.3125
Q48.875 64.0625 45.0938 64.9844
Q41.3125 65.9219 37.5938 65.9219
Q27.8281 65.9219 22.6719 59.3281
Q17.5312 52.7344 16.7969 39.4062
Q19.6719 43.6562 24.0156 45.9219
Q28.375 48.1875 33.5938 48.1875
Q44.5781 48.1875 50.9531 41.5156
Q57.3281 34.8594 57.3281 23.3906
Q57.3281 12.1562 50.6875 5.35938
Q44.0469 -1.42188 33.0156 -1.42188
Q20.3594 -1.42188 13.6719 8.26562
Q6.98438 17.9688 6.98438 36.375
Q6.98438 53.6562 15.1875 63.9375
Q23.3906 74.2188 37.2031 74.2188
Q40.9219 74.2188 44.7031 73.4844
Q48.4844 72.75 52.5938 71.2969" id="DejaVuSans-36"/>
      </defs>
      <g transform="translate(122.819020191 421.873807897)rotate(-45.0)scale(0.1 -0.1)">
       <use xlink:href="#DejaVuSans-77"/>
       <use x="81.787109375" xlink:href="#DejaVuSans-34"/>
       <use x="145.41015625" xlink:href="#DejaVuSans-36"/>
       <use x="209.033203125" xlink:href="#DejaVuSans-2d"/>
       <use x="245.1171875" xlink:href="#DejaVuSans-31"/>
       <use x="308.740234375" xlink:href="#DejaVuSans-63"/>
       <use x="363.720703125" xlink:href="#DejaVuSans-6f"/>
       <use x="424.90234375" xlink:href="#DejaVuSans-6e"/>
       <use x="488.28125" xlink:href="#DejaVuSans-74"/>
       <use x="527.490234375" xlink:href="#DejaVuSans-5f"/>
       <use x="577.490234375" xlink:href="#DejaVuSans-31"/>
       <use x="641.11328125" xlink:href="#DejaVuSans-30"/>
       <use x="704.736328125" xlink:href="#DejaVuSans-32"/>
       <use x="768.359375" xlink:href="#DejaVuSans-34"/>
       <use x="831.982421875" xlink:href="#DejaVuSans-6b"/>
       <use x="889.892578125" xlink:href="#DejaVuSans-62"/>
      </g>
     </g>
    </g>
    <g id="xtick_4">
     <g id="line2d_10">
      <path clip-path="url(#p518a017d35)" d="
M197.086 345.771
L197.086 28.9018" style="fill:none;stroke:#000000;stroke-dasharray:1.000000,3.000000;stroke-dashoffset:0.0;stroke-width:0.5;"/>
     </g>
     <g id="line2d_11">
      <g>
       <use style="stroke:#000000;stroke-width:0.5;" x="197.085917833" xlink:href="#m93b0483c22" y="345.771013303"/>
      </g>
     </g>
     <g id="line2d_12">
      <g>
       <use style="stroke:#000000;stroke-width:0.5;" x="197.085917833" xlink:href="#m741efc42ff" y="28.90175"/>
      </g>
     </g>
     <g id="text_4">
      <!-- w47-1cont_5mb -->
      <defs>
       <path d="
M52 44.1875
Q55.375 50.25 60.0625 53.125
Q64.75 56 71.0938 56
Q79.6406 56 84.2812 50.0156
Q88.9219 44.0469 88.9219 33.0156
L88.9219 0
L79.8906 0
L79.8906 32.7188
Q79.8906 40.5781 77.0938 44.375
Q74.3125 48.1875 68.6094 48.1875
Q61.625 48.1875 57.5625 43.5469
Q53.5156 38.9219 53.5156 30.9062
L53.5156 0
L44.4844 0
L44.4844 32.7188
Q44.4844 40.625 41.7031 44.4062
Q38.9219 48.1875 33.1094 48.1875
Q26.2188 48.1875 22.1562 43.5312
Q18.1094 38.875 18.1094 30.9062
L18.1094 0
L9.07812 0
L9.07812 54.6875
L18.1094 54.6875
L18.1094 46.1875
Q21.1875 51.2188 25.4844 53.6094
Q29.7812 56 35.6875 56
Q41.6562 56 45.8281 52.9688
Q50 49.9531 52 44.1875" id="DejaVuSans-6d"/>
       <path d="
M8.20312 72.9062
L55.0781 72.9062
L55.0781 68.7031
L28.6094 0
L18.3125 0
L43.2188 64.5938
L8.20312 64.5938
z
" id="DejaVuSans-37"/>
      </defs>
      <g transform="translate(170.925729065 411.169978997)rotate(-45.0)scale(0.1 -0.1)">
       <use xlink:href="#DejaVuSans-77"/>
       <use x="81.787109375" xlink:href="#DejaVuSans-34"/>
       <use x="145.41015625" xlink:href="#DejaVuSans-37"/>
       <use x="209.033203125" xlink:href="#DejaVuSans-2d"/>
       <use x="245.1171875" xlink:href="#DejaVuSans-31"/>
       <use x="308.740234375" xlink:href="#DejaVuSans-63"/>
       <use x="363.720703125" xlink:href="#DejaVuSans-6f"/>
       <use x="424.90234375" xlink:href="#DejaVuSans-6e"/>
       <use x="488.28125" xlink:href="#DejaVuSans-74"/>
       <use x="527.490234375" xlink:href="#DejaVuSans-5f"/>
       <use x="577.490234375" xlink:href="#DejaVuSans-35"/>
       <use x="641.11328125" xlink:href="#DejaVuSans-6d"/>
       <use x="738.525390625" xlink:href="#DejaVuSans-62"/>
      </g>
     </g>
    </g>
    <g id="xtick_5">
     <g id="line2d_13">
      <path clip-path="url(#p518a017d35)" d="
M239.841 345.771
L239.841 28.9018" style="fill:none;stroke:#000000;stroke-dasharray:1.000000,3.000000;stroke-dashoffset:0.0;stroke-width:0.5;"/>
     </g>
     <g id="line2d_14">
      <g>
       <use style="stroke:#000000;stroke-width:0.5;" x="239.840712256" xlink:href="#m93b0483c22" y="345.771013303"/>
      </g>
     </g>
     <g id="line2d_15">
      <g>
       <use style="stroke:#000000;stroke-width:0.5;" x="239.840712256" xlink:href="#m741efc42ff" y="28.90175"/>
      </g>
     </g>
     <g id="text_5">
      <!-- w48-1cont_10mb -->
      <g transform="translate(211.43104004 415.668945892)rotate(-45.0)scale(0.1 -0.1)">
       <use xlink:href="#DejaVuSans-77"/>
       <use x="81.787109375" xlink:href="#DejaVuSans-34"/>
       <use x="145.41015625" xlink:href="#DejaVuSans-38"/>
       <use x="209.033203125" xlink:href="#DejaVuSans-2d"/>
       <use x="245.1171875" xlink:href="#DejaVuSans-31"/>
       <use x="308.740234375" xlink:href="#DejaVuSans-63"/>
       <use x="363.720703125" xlink:href="#DejaVuSans-6f"/>
       <use x="424.90234375" xlink:href="#DejaVuSans-6e"/>
       <use x="488.28125" xlink:href="#DejaVuSans-74"/>
       <use x="527.490234375" xlink:href="#DejaVuSans-5f"/>
       <use x="577.490234375" xlink:href="#DejaVuSans-31"/>
       <use x="641.11328125" xlink:href="#DejaVuSans-30"/>
       <use x="704.736328125" xlink:href="#DejaVuSans-6d"/>
       <use x="802.1484375" xlink:href="#DejaVuSans-62"/>
      </g>
     </g>
    </g>
    <g id="xtick_6">
     <g id="line2d_16">
      <path clip-path="url(#p518a017d35)" d="
M282.596 345.771
L282.596 28.9018" style="fill:none;stroke:#000000;stroke-dasharray:1.000000,3.000000;stroke-dashoffset:0.0;stroke-width:0.5;"/>
     </g>
     <g id="line2d_17">
      <g>
       <use style="stroke:#000000;stroke-width:0.5;" x="282.595506679" xlink:href="#m93b0483c22" y="345.771013303"/>
      </g>
     </g>
     <g id="line2d_18">
      <g>
       <use style="stroke:#000000;stroke-width:0.5;" x="282.595506679" xlink:href="#m741efc42ff" y="28.90175"/>
      </g>
     </g>
     <g id="text_6">
      <!-- w49-20cont_4kb -->
      <defs>
       <path d="
M10.9844 1.51562
L10.9844 10.5
Q14.7031 8.73438 18.5 7.8125
Q22.3125 6.89062 25.9844 6.89062
Q35.75 6.89062 40.8906 13.4531
Q46.0469 20.0156 46.7812 33.4062
Q43.9531 29.2031 39.5938 26.9531
Q35.25 24.7031 29.9844 24.7031
Q19.0469 24.7031 12.6719 31.3125
Q6.29688 37.9375 6.29688 49.4219
Q6.29688 60.6406 12.9375 67.4219
Q19.5781 74.2188 30.6094 74.2188
Q43.2656 74.2188 49.9219 64.5156
Q56.5938 54.8281 56.5938 36.375
Q56.5938 19.1406 48.4062 8.85938
Q40.2344 -1.42188 26.4219 -1.42188
Q22.7031 -1.42188 18.8906 -0.6875
Q15.0938 0.046875 10.9844 1.51562
M30.6094 32.4219
Q37.25 32.4219 41.125 36.9531
Q45.0156 41.5 45.0156 49.4219
Q45.0156 57.2812 41.125 61.8438
Q37.25 66.4062 30.6094 66.4062
Q23.9688 66.4062 20.0938 61.8438
Q16.2188 57.2812 16.2188 49.4219
Q16.2188 41.5 20.0938 36.9531
Q23.9688 32.4219 30.6094 32.4219" id="DejaVuSans-39"/>
      </defs>
      <g transform="translate(255.582370356 412.875874107)rotate(-45.0)scale(0.1 -0.1)">
       <use xlink:href="#DejaVuSans-77"/>
       <use x="81.787109375" xlink:href="#DejaVuSans-34"/>
       <use x="145.41015625" xlink:href="#DejaVuSans-39"/>
       <use x="209.033203125" xlink:href="#DejaVuSans-2d"/>
       <use x="245.1171875" xlink:href="#DejaVuSans-32"/>
       <use x="308.740234375" xlink:href="#DejaVuSans-30"/>
       <use x="372.36328125" xlink:href="#DejaVuSans-63"/>
       <use x="427.34375" xlink:href="#DejaVuSans-6f"/>
       <use x="488.525390625" xlink:href="#DejaVuSans-6e"/>
       <use x="551.904296875" xlink:href="#DejaVuSans-74"/>
       <use x="591.11328125" xlink:href="#DejaVuSans-5f"/>
       <use x="641.11328125" xlink:href="#DejaVuSans-34"/>
       <use x="704.736328125" xlink:href="#DejaVuSans-6b"/>
       <use x="762.646484375" xlink:href="#DejaVuSans-62"/>
      </g>
     </g>
    </g>
    <g id="xtick_7">
     <g id="line2d_19">
      <path clip-path="url(#p518a017d35)" d="
M325.35 345.771
L325.35 28.9018" style="fill:none;stroke:#000000;stroke-dasharray:1.000000,3.000000;stroke-dashoffset:0.0;stroke-width:0.5;"/>
     </g>
     <g id="line2d_20">
      <g>
       <use style="stroke:#000000;stroke-width:0.5;" x="325.350301102" xlink:href="#m93b0483c22" y="345.771013303"/>
      </g>
     </g>
     <g id="line2d_21">
      <g>
       <use style="stroke:#000000;stroke-width:0.5;" x="325.350301102" xlink:href="#m741efc42ff" y="28.90175"/>
      </g>
     </g>
     <g id="text_7">
      <!-- w50-20cont_128kb -->
      <g transform="translate(293.838197884 421.873807897)rotate(-45.0)scale(0.1 -0.1)">
       <use xlink:href="#DejaVuSans-77"/>
       <use x="81.787109375" xlink:href="#DejaVuSans-35"/>
       <use x="145.41015625" xlink:href="#DejaVuSans-30"/>
       <use x="209.033203125" xlink:href="#DejaVuSans-2d"/>
       <use x="245.1171875" xlink:href="#DejaVuSans-32"/>
       <use x="308.740234375" xlink:href="#DejaVuSans-30"/>
       <use x="372.36328125" xlink:href="#DejaVuSans-63"/>
       <use x="427.34375" xlink:href="#DejaVuSans-6f"/>
       <use x="488.525390625" xlink:href="#DejaVuSans-6e"/>
       <use x="551.904296875" xlink:href="#DejaVuSans-74"/>
       <use x="591.11328125" xlink:href="#DejaVuSans-5f"/>
       <use x="641.11328125" xlink:href="#DejaVuSans-31"/>
       <use x="704.736328125" xlink:href="#DejaVuSans-32"/>
       <use x="768.359375" xlink:href="#DejaVuSans-38"/>
       <use x="831.982421875" xlink:href="#DejaVuSans-6b"/>
       <use x="889.892578125" xlink:href="#DejaVuSans-62"/>
      </g>
     </g>
    </g>
    <g id="xtick_8">
     <g id="line2d_22">
      <path clip-path="url(#p518a017d35)" d="
M368.105 345.771
L368.105 28.9018" style="fill:none;stroke:#000000;stroke-dasharray:1.000000,3.000000;stroke-dashoffset:0.0;stroke-width:0.5;"/>
     </g>
     <g id="line2d_23">
      <g>
       <use style="stroke:#000000;stroke-width:0.5;" x="368.105095525" xlink:href="#m93b0483c22" y="345.771013303"/>
      </g>
     </g>
     <g id="line2d_24">
      <g>
       <use style="stroke:#000000;stroke-width:0.5;" x="368.105095525" xlink:href="#m741efc42ff" y="28.90175"/>
      </g>
     </g>
     <g id="text_8">
      <!-- w51-20cont_512kb -->
      <g transform="translate(336.592992307 421.873807897)rotate(-45.0)scale(0.1 -0.1)">
       <use xlink:href="#DejaVuSans-77"/>
       <use x="81.787109375" xlink:href="#DejaVuSans-35"/>
       <use x="145.41015625" xlink:href="#DejaVuSans-31"/>
       <use x="209.033203125" xlink:href="#DejaVuSans-2d"/>
       <use x="245.1171875" xlink:href="#DejaVuSans-32"/>
       <use x="308.740234375" xlink:href="#DejaVuSans-30"/>
       <use x="372.36328125" xlink:href="#DejaVuSans-63"/>
       <use x="427.34375" xlink:href="#DejaVuSans-6f"/>
       <use x="488.525390625" xlink:href="#DejaVuSans-6e"/>
       <use x="551.904296875" xlink:href="#DejaVuSans-74"/>
       <use x="591.11328125" xlink:href="#DejaVuSans-5f"/>
       <use x="641.11328125" xlink:href="#DejaVuSans-35"/>
       <use x="704.736328125" xlink:href="#DejaVuSans-31"/>
       <use x="768.359375" xlink:href="#DejaVuSans-32"/>
       <use x="831.982421875" xlink:href="#DejaVuSans-6b"/>
       <use x="889.892578125" xlink:href="#DejaVuSans-62"/>
      </g>
     </g>
    </g>
    <g id="xtick_9">
     <g id="line2d_25">
      <path clip-path="url(#p518a017d35)" d="
M410.86 345.771
L410.86 28.9018" style="fill:none;stroke:#000000;stroke-dasharray:1.000000,3.000000;stroke-dashoffset:0.0;stroke-width:0.5;"/>
     </g>
     <g id="line2d_26">
      <g>
       <use style="stroke:#000000;stroke-width:0.5;" x="410.859889948" xlink:href="#m93b0483c22" y="345.771013303"/>
      </g>
     </g>
     <g id="line2d_27">
      <g>
       <use style="stroke:#000000;stroke-width:0.5;" x="410.859889948" xlink:href="#m741efc42ff" y="28.90175"/>
      </g>
     </g>
     <g id="text_9">
      <!-- w52-20cont_1024kb -->
      <g transform="translate(377.098303282 426.372774792)rotate(-45.0)scale(0.1 -0.1)">
       <use xlink:href="#DejaVuSans-77"/>
       <use x="81.787109375" xlink:href="#DejaVuSans-35"/>
       <use x="145.41015625" xlink:href="#DejaVuSans-32"/>
       <use x="209.033203125" xlink:href="#DejaVuSans-2d"/>
       <use x="245.1171875" xlink:href="#DejaVuSans-32"/>
       <use x="308.740234375" xlink:href="#DejaVuSans-30"/>
       <use x="372.36328125" xlink:href="#DejaVuSans-63"/>
       <use x="427.34375" xlink:href="#DejaVuSans-6f"/>
       <use x="488.525390625" xlink:href="#DejaVuSans-6e"/>
       <use x="551.904296875" xlink:href="#DejaVuSans-74"/>
       <use x="591.11328125" xlink:href="#DejaVuSans-5f"/>
       <use x="641.11328125" xlink:href="#DejaVuSans-31"/>
       <use x="704.736328125" xlink:href="#DejaVuSans-30"/>
       <use x="768.359375" xlink:href="#DejaVuSans-32"/>
       <use x="831.982421875" xlink:href="#DejaVuSans-34"/>
       <use x="895.60546875" xlink:href="#DejaVuSans-6b"/>
       <use x="953.515625" xlink:href="#DejaVuSans-62"/>
      </g>
     </g>
    </g>
    <g id="xtick_10">
     <g id="line2d_28">
      <path clip-path="url(#p518a017d35)" d="
M453.615 345.771
L453.615 28.9018" style="fill:none;stroke:#000000;stroke-dasharray:1.000000,3.000000;stroke-dashoffset:0.0;stroke-width:0.5;"/>
     </g>
     <g id="line2d_29">
      <g>
       <use style="stroke:#000000;stroke-width:0.5;" x="453.614684371" xlink:href="#m93b0483c22" y="345.771013303"/>
      </g>
     </g>
     <g id="line2d_30">
      <g>
       <use style="stroke:#000000;stroke-width:0.5;" x="453.614684371" xlink:href="#m741efc42ff" y="28.90175"/>
      </g>
     </g>
     <g id="text_10">
      <!-- w53-20cont_5mb -->
      <defs>
       <path d="
M40.5781 39.3125
Q47.6562 37.7969 51.625 33
Q55.6094 28.2188 55.6094 21.1875
Q55.6094 10.4062 48.1875 4.48438
Q40.7656 -1.42188 27.0938 -1.42188
Q22.5156 -1.42188 17.6562 -0.515625
Q12.7969 0.390625 7.625 2.20312
L7.625 11.7188
Q11.7188 9.32812 16.5938 8.10938
Q21.4844 6.89062 26.8125 6.89062
Q36.0781 6.89062 40.9375 10.5469
Q45.7969 14.2031 45.7969 21.1875
Q45.7969 27.6406 41.2812 31.2656
Q36.7656 34.9062 28.7188 34.9062
L20.2188 34.9062
L20.2188 43.0156
L29.1094 43.0156
Q36.375 43.0156 40.2344 45.9219
Q44.0938 48.8281 44.0938 54.2969
Q44.0938 59.9062 40.1094 62.9062
Q36.1406 65.9219 28.7188 65.9219
Q24.6562 65.9219 20.0156 65.0312
Q15.375 64.1562 9.8125 62.3125
L9.8125 71.0938
Q15.4375 72.6562 20.3438 73.4375
Q25.25 74.2188 29.5938 74.2188
Q40.8281 74.2188 47.3594 69.1094
Q53.9062 64.0156 53.9062 55.3281
Q53.9062 49.2656 50.4375 45.0938
Q46.9688 40.9219 40.5781 39.3125" id="DejaVuSans-33"/>
      </defs>
      <g transform="translate(425.205012155 415.668945892)rotate(-45.0)scale(0.1 -0.1)">
       <use xlink:href="#DejaVuSans-77"/>
       <use x="81.787109375" xlink:href="#DejaVuSans-35"/>
       <use x="145.41015625" xlink:href="#DejaVuSans-33"/>
       <use x="209.033203125" xlink:href="#DejaVuSans-2d"/>
       <use x="245.1171875" xlink:href="#DejaVuSans-32"/>
       <use x="308.740234375" xlink:href="#DejaVuSans-30"/>
       <use x="372.36328125" xlink:href="#DejaVuSans-63"/>
       <use x="427.34375" xlink:href="#DejaVuSans-6f"/>
       <use x="488.525390625" xlink:href="#DejaVuSans-6e"/>
       <use x="551.904296875" xlink:href="#DejaVuSans-74"/>
       <use x="591.11328125" xlink:href="#DejaVuSans-5f"/>
       <use x="641.11328125" xlink:href="#DejaVuSans-35"/>
       <use x="704.736328125" xlink:href="#DejaVuSans-6d"/>
       <use x="802.1484375" xlink:href="#DejaVuSans-62"/>
      </g>
     </g>
    </g>
    <g id="xtick_11">
     <g id="line2d_31">
      <path clip-path="url(#p518a017d35)" d="
M496.369 345.771
L496.369 28.9018" style="fill:none;stroke:#000000;stroke-dasharray:1.000000,3.000000;stroke-dashoffset:0.0;stroke-width:0.5;"/>
     </g>
     <g id="line2d_32">
      <g>
       <use style="stroke:#000000;stroke-width:0.5;" x="496.369478794" xlink:href="#m93b0483c22" y="345.771013303"/>
      </g>
     </g>
     <g id="line2d_33">
      <g>
       <use style="stroke:#000000;stroke-width:0.5;" x="496.369478794" xlink:href="#m741efc42ff" y="28.90175"/>
      </g>
     </g>
     <g id="text_11">
      <!-- w54-20cont_10mb -->
      <g transform="translate(465.710323131 420.167912788)rotate(-45.0)scale(0.1 -0.1)">
       <use xlink:href="#DejaVuSans-77"/>
       <use x="81.787109375" xlink:href="#DejaVuSans-35"/>
       <use x="145.41015625" xlink:href="#DejaVuSans-34"/>
       <use x="209.033203125" xlink:href="#DejaVuSans-2d"/>
       <use x="245.1171875" xlink:href="#DejaVuSans-32"/>
       <use x="308.740234375" xlink:href="#DejaVuSans-30"/>
       <use x="372.36328125" xlink:href="#DejaVuSans-63"/>
       <use x="427.34375" xlink:href="#DejaVuSans-6f"/>
       <use x="488.525390625" xlink:href="#DejaVuSans-6e"/>
       <use x="551.904296875" xlink:href="#DejaVuSans-74"/>
       <use x="591.11328125" xlink:href="#DejaVuSans-5f"/>
       <use x="641.11328125" xlink:href="#DejaVuSans-31"/>
       <use x="704.736328125" xlink:href="#DejaVuSans-30"/>
       <use x="768.359375" xlink:href="#DejaVuSans-6d"/>
       <use x="865.771484375" xlink:href="#DejaVuSans-62"/>
      </g>
     </g>
    </g>
    <g id="xtick_12">
     <g id="line2d_34">
      <path clip-path="url(#p518a017d35)" d="
M539.124 345.771
L539.124 28.9018" style="fill:none;stroke:#000000;stroke-dasharray:1.000000,3.000000;stroke-dashoffset:0.0;stroke-width:0.5;"/>
     </g>
     <g id="line2d_35">
      <g>
       <use style="stroke:#000000;stroke-width:0.5;" x="539.124273217" xlink:href="#m93b0483c22" y="345.771013303"/>
      </g>
     </g>
     <g id="line2d_36">
      <g>
       <use style="stroke:#000000;stroke-width:0.5;" x="539.124273217" xlink:href="#m741efc42ff" y="28.90175"/>
      </g>
     </g>
     <g id="text_12">
      <!-- w55-1cont_4kb -->
      <g transform="translate(514.360620342 408.376907211)rotate(-45.0)scale(0.1 -0.1)">
       <use xlink:href="#DejaVuSans-77"/>
       <use x="81.787109375" xlink:href="#DejaVuSans-35"/>
       <use x="145.41015625" xlink:href="#DejaVuSans-35"/>
       <use x="209.033203125" xlink:href="#DejaVuSans-2d"/>
       <use x="245.1171875" xlink:href="#DejaVuSans-31"/>
       <use x="308.740234375" xlink:href="#DejaVuSans-63"/>
       <use x="363.720703125" xlink:href="#DejaVuSans-6f"/>
       <use x="424.90234375" xlink:href="#DejaVuSans-6e"/>
       <use x="488.28125" xlink:href="#DejaVuSans-74"/>
       <use x="527.490234375" xlink:href="#DejaVuSans-5f"/>
       <use x="577.490234375" xlink:href="#DejaVuSans-34"/>
       <use x="641.11328125" xlink:href="#DejaVuSans-6b"/>
       <use x="699.0234375" xlink:href="#DejaVuSans-62"/>
      </g>
     </g>
    </g>
   </g>
   <g id="matplotlib.axis_2">
    <g id="ytick_1">
     <g id="line2d_37">
      <path clip-path="url(#p518a017d35)" d="
M34.5794 331.586
L572.04 331.586" style="fill:none;stroke:#000000;stroke-dasharray:1.000000,3.000000;stroke-dashoffset:0.0;stroke-width:0.5;"/>
     </g>
     <g id="line2d_38">
      <defs>
       <path d="
M0 0
L4 0" id="m728421d6d4" style="stroke:#000000;stroke-width:0.5;"/>
      </defs>
      <g>
       <use style="stroke:#000000;stroke-width:0.5;" x="34.579375" xlink:href="#m728421d6d4" y="331.586286063"/>
      </g>
     </g>
     <g id="line2d_39">
      <defs>
       <path d="
M0 0
L-4 0" id="mcb0005524f" style="stroke:#000000;stroke-width:0.5;"/>
      </defs>
      <g>
       <use style="stroke:#000000;stroke-width:0.5;" x="572.04" xlink:href="#mcb0005524f" y="331.586286063"/>
      </g>
     </g>
     <g id="text_13">
      <!-- 0.0 -->
      <defs>
       <path d="
M10.6875 12.4062
L21 12.4062
L21 0
L10.6875 0
z
" id="DejaVuSans-2e"/>
      </defs>
      <g transform="translate(13.08375 334.897536063)scale(0.12 -0.12)">
       <use xlink:href="#DejaVuSans-30"/>
       <use x="63.623046875" xlink:href="#DejaVuSans-2e"/>
       <use x="95.41015625" xlink:href="#DejaVuSans-30"/>
      </g>
     </g>
    </g>
    <g id="ytick_2">
     <g id="line2d_40">
      <path clip-path="url(#p518a017d35)" d="
M34.5794 282.758
L572.04 282.758" style="fill:none;stroke:#000000;stroke-dasharray:1.000000,3.000000;stroke-dashoffset:0.0;stroke-width:0.5;"/>
     </g>
     <g id="line2d_41">
      <g>
       <use style="stroke:#000000;stroke-width:0.5;" x="34.579375" xlink:href="#m728421d6d4" y="282.757750425"/>
      </g>
     </g>
     <g id="line2d_42">
      <g>
       <use style="stroke:#000000;stroke-width:0.5;" x="572.04" xlink:href="#mcb0005524f" y="282.757750425"/>
      </g>
     </g>
     <g id="text_14">
      <!-- 0.2 -->
      <g transform="translate(13.48875 286.069000425)scale(0.12 -0.12)">
       <use xlink:href="#DejaVuSans-30"/>
       <use x="63.623046875" xlink:href="#DejaVuSans-2e"/>
       <use x="95.41015625" xlink:href="#DejaVuSans-32"/>
      </g>
     </g>
    </g>
    <g id="ytick_3">
     <g id="line2d_43">
      <path clip-path="url(#p518a017d35)" d="
M34.5794 233.929
L572.04 233.929" style="fill:none;stroke:#000000;stroke-dasharray:1.000000,3.000000;stroke-dashoffset:0.0;stroke-width:0.5;"/>
     </g>
     <g id="line2d_44">
      <g>
       <use style="stroke:#000000;stroke-width:0.5;" x="34.579375" xlink:href="#m728421d6d4" y="233.929214788"/>
      </g>
     </g>
     <g id="line2d_45">
      <g>
       <use style="stroke:#000000;stroke-width:0.5;" x="572.04" xlink:href="#mcb0005524f" y="233.929214788"/>
      </g>
     </g>
     <g id="text_15">
      <!-- 0.4 -->
      <g transform="translate(12.96 237.240464788)scale(0.12 -0.12)">
       <use xlink:href="#DejaVuSans-30"/>
       <use x="63.623046875" xlink:href="#DejaVuSans-2e"/>
       <use x="95.41015625" xlink:href="#DejaVuSans-34"/>
      </g>
     </g>
    </g>
    <g id="ytick_4">
     <g id="line2d_46">
      <path clip-path="url(#p518a017d35)" d="
M34.5794 185.101
L572.04 185.101" style="fill:none;stroke:#000000;stroke-dasharray:1.000000,3.000000;stroke-dashoffset:0.0;stroke-width:0.5;"/>
     </g>
     <g id="line2d_47">
      <g>
       <use style="stroke:#000000;stroke-width:0.5;" x="34.579375" xlink:href="#m728421d6d4" y="185.10067915"/>
      </g>
     </g>
     <g id="line2d_48">
      <g>
       <use style="stroke:#000000;stroke-width:0.5;" x="572.04" xlink:href="#mcb0005524f" y="185.10067915"/>
      </g>
     </g>
     <g id="text_16">
      <!-- 0.6 -->
      <g transform="translate(13.0425 188.41192915)scale(0.12 -0.12)">
       <use xlink:href="#DejaVuSans-30"/>
       <use x="63.623046875" xlink:href="#DejaVuSans-2e"/>
       <use x="95.41015625" xlink:href="#DejaVuSans-36"/>
      </g>
     </g>
    </g>
    <g id="ytick_5">
     <g id="line2d_49">
      <path clip-path="url(#p518a017d35)" d="
M34.5794 136.272
L572.04 136.272" style="fill:none;stroke:#000000;stroke-dasharray:1.000000,3.000000;stroke-dashoffset:0.0;stroke-width:0.5;"/>
     </g>
     <g id="line2d_50">
      <g>
       <use style="stroke:#000000;stroke-width:0.5;" x="34.579375" xlink:href="#m728421d6d4" y="136.272143513"/>
      </g>
     </g>
     <g id="line2d_51">
      <g>
       <use style="stroke:#000000;stroke-width:0.5;" x="572.04" xlink:href="#mcb0005524f" y="136.272143513"/>
      </g>
     </g>
     <g id="text_17">
      <!-- 0.8 -->
      <g transform="translate(13.108125 139.583393513)scale(0.12 -0.12)">
       <use xlink:href="#DejaVuSans-30"/>
       <use x="63.623046875" xlink:href="#DejaVuSans-2e"/>
       <use x="95.41015625" xlink:href="#DejaVuSans-38"/>
      </g>
     </g>
    </g>
    <g id="ytick_6">
     <g id="line2d_52">
      <path clip-path="url(#p518a017d35)" d="
M34.5794 87.4436
L572.04 87.4436" style="fill:none;stroke:#000000;stroke-dasharray:1.000000,3.000000;stroke-dashoffset:0.0;stroke-width:0.5;"/>
     </g>
     <g id="line2d_53">
      <g>
       <use style="stroke:#000000;stroke-width:0.5;" x="34.579375" xlink:href="#m728421d6d4" y="87.4436078753"/>
      </g>
     </g>
     <g id="line2d_54">
      <g>
       <use style="stroke:#000000;stroke-width:0.5;" x="572.04" xlink:href="#mcb0005524f" y="87.4436078753"/>
      </g>
     </g>
     <g id="text_18">
      <!-- 1.0 -->
      <g transform="translate(13.610625 90.7548578753)scale(0.12 -0.12)">
       <use xlink:href="#DejaVuSans-31"/>
       <use x="63.623046875" xlink:href="#DejaVuSans-2e"/>
       <use x="95.41015625" xlink:href="#DejaVuSans-30"/>
      </g>
     </g>
    </g>
    <g id="ytick_7">
     <g id="line2d_55">
      <path clip-path="url(#p518a017d35)" d="
M34.5794 38.6151
L572.04 38.6151" style="fill:none;stroke:#000000;stroke-dasharray:1.000000,3.000000;stroke-dashoffset:0.0;stroke-width:0.5;"/>
     </g>
     <g id="line2d_56">
      <g>
       <use style="stroke:#000000;stroke-width:0.5;" x="34.579375" xlink:href="#m728421d6d4" y="38.6150722379"/>
      </g>
     </g>
     <g id="line2d_57">
      <g>
       <use style="stroke:#000000;stroke-width:0.5;" x="572.04" xlink:href="#mcb0005524f" y="38.6150722379"/>
      </g>
     </g>
     <g id="text_19">
      <!-- 1.2 -->
      <g transform="translate(14.015625 41.9263222379)scale(0.12 -0.12)">
       <use xlink:href="#DejaVuSans-31"/>
       <use x="63.623046875" xlink:href="#DejaVuSans-2e"/>
       <use x="95.41015625" xlink:href="#DejaVuSans-32"/>
      </g>
     </g>
    </g>
    <g id="text_20">
     <!-- 1e8 -->
     <defs>
      <path d="
M56.2031 29.5938
L56.2031 25.2031
L14.8906 25.2031
Q15.4844 15.9219 20.4844 11.0625
Q25.4844 6.20312 34.4219 6.20312
Q39.5938 6.20312 44.4531 7.46875
Q49.3125 8.73438 54.1094 11.2812
L54.1094 2.78125
Q49.2656 0.734375 44.1875 -0.34375
Q39.1094 -1.42188 33.8906 -1.42188
Q20.7969 -1.42188 13.1562 6.1875
Q5.51562 13.8125 5.51562 26.8125
Q5.51562 40.2344 12.7656 48.1094
Q20.0156 56 32.3281 56
Q43.3594 56 49.7812 48.8906
Q56.2031 41.7969 56.2031 29.5938
M47.2188 32.2344
Q47.125 39.5938 43.0938 43.9844
Q39.0625 48.3906 32.4219 48.3906
Q24.9062 48.3906 20.3906 44.1406
Q15.875 39.8906 15.1875 32.1719
z
" id="DejaVuSans-65"/>
     </defs>
     <g transform="translate(34.579375 25.90175)scale(0.12 -0.12)">
      <use xlink:href="#DejaVuSans-31"/>
      <use x="63.623046875" xlink:href="#DejaVuSans-65"/>
      <use x="125.146484375" xlink:href="#DejaVuSans-38"/>
     </g>
    </g>
   </g>
   <g id="patch_3">
    <path d="
M34.5794 28.9018
L572.04 28.9018" style="fill:none;stroke:#000000;"/>
   </g>
   <g id="patch_4">
    <path d="
M572.04 345.771
L572.04 28.9018" style="fill:none;stroke:#000000;"/>
   </g>
   <g id="patch_5">
    <path d="
M34.5794 345.771
L572.04 345.771" style="fill:none;stroke:#000000;"/>
   </g>
   <g id="patch_6">
    <path d="
M34.5794 345.771
L34.5794 28.9018" style="fill:none;stroke:#000000;"/>
   </g>
   <g id="text_21">
    <!-- Read Tpt AVGs - Ceph -->
    <defs>
     <path d="
M28.6094 0
L0.78125 72.9062
L11.0781 72.9062
L34.1875 11.5312
L57.3281 72.9062
L67.5781 72.9062
L39.7969 0
z
" id="DejaVuSans-56"/>
     <path id="DejaVuSans-20"/>
     <path d="
M59.5156 10.4062
L59.5156 29.9844
L43.4062 29.9844
L43.4062 38.0938
L69.2812 38.0938
L69.2812 6.78125
Q63.5781 2.73438 56.6875 0.65625
Q49.8125 -1.42188 42 -1.42188
Q24.9062 -1.42188 15.25 8.5625
Q5.60938 18.5625 5.60938 36.375
Q5.60938 54.25 15.25 64.2344
Q24.9062 74.2188 42 74.2188
Q49.125 74.2188 55.5469 72.4531
Q61.9688 70.7031 67.3906 67.2812
L67.3906 56.7812
Q61.9219 61.4219 55.7656 63.7656
Q49.6094 66.1094 42.8281 66.1094
Q29.4375 66.1094 22.7188 58.6406
Q16.0156 51.1719 16.0156 36.375
Q16.0156 21.625 22.7188 14.1562
Q29.4375 6.6875 42.8281 6.6875
Q48.0469 6.6875 52.1406 7.59375
Q56.25 8.5 59.5156 10.4062" id="DejaVuSans-47"/>
     <path d="
M34.1875 63.1875
L20.7969 26.9062
L47.6094 26.9062
z

M28.6094 72.9062
L39.7969 72.9062
L67.5781 0
L57.3281 0
L50.6875 18.7031
L17.8281 18.7031
L11.1875 0
L0.78125 0
z
" id="DejaVuSans-41"/>
     <path d="
M54.8906 33.0156
L54.8906 0
L45.9062 0
L45.9062 32.7188
Q45.9062 40.4844 42.875 44.3281
Q39.8438 48.1875 33.7969 48.1875
Q26.5156 48.1875 22.3125 43.5469
Q18.1094 38.9219 18.1094 30.9062
L18.1094 0
L9.07812 0
L9.07812 75.9844
L18.1094 75.9844
L18.1094 46.1875
Q21.3438 51.125 25.7031 53.5625
Q30.0781 56 35.7969 56
Q45.2188 56 50.0469 50.1719
Q54.8906 44.3438 54.8906 33.0156" id="DejaVuSans-68"/>
     <path d="
M64.4062 67.2812
L64.4062 56.8906
Q59.4219 61.5312 53.7812 63.8125
Q48.1406 66.1094 41.7969 66.1094
Q29.2969 66.1094 22.6562 58.4688
Q16.0156 50.8281 16.0156 36.375
Q16.0156 21.9688 22.6562 14.3281
Q29.2969 6.6875 41.7969 6.6875
Q48.1406 6.6875 53.7812 8.98438
Q59.4219 11.2812 64.4062 15.9219
L64.4062 5.60938
Q59.2344 2.09375 53.4375 0.328125
Q47.6562 -1.42188 41.2188 -1.42188
Q24.6562 -1.42188 15.125 8.70312
Q5.60938 18.8438 5.60938 36.375
Q5.60938 53.9531 15.125 64.0781
Q24.6562 74.2188 41.2188 74.2188
Q47.75 74.2188 53.5312 72.4844
Q59.3281 70.75 64.4062 67.2812" id="DejaVuSans-43"/>
     <path d="
M44.3906 34.1875
Q47.5625 33.1094 50.5625 29.5938
Q53.5625 26.0781 56.5938 19.9219
L66.6094 0
L56 0
L46.6875 18.7031
Q43.0625 26.0312 39.6719 28.4219
Q36.2812 30.8125 30.4219 30.8125
L19.6719 30.8125
L19.6719 0
L9.8125 0
L9.8125 72.9062
L32.0781 72.9062
Q44.5781 72.9062 50.7344 67.6719
Q56.8906 62.4531 56.8906 51.9062
Q56.8906 45.0156 53.6875 40.4688
Q50.4844 35.9375 44.3906 34.1875
M19.6719 64.7969
L19.6719 38.9219
L32.0781 38.9219
Q39.2031 38.9219 42.8438 42.2188
Q46.4844 45.5156 46.4844 51.9062
Q46.4844 58.2969 42.8438 61.5469
Q39.2031 64.7969 32.0781 64.7969
z
" id="DejaVuSans-52"/>
     <path d="
M45.4062 46.3906
L45.4062 75.9844
L54.3906 75.9844
L54.3906 0
L45.4062 0
L45.4062 8.20312
Q42.5781 3.32812 38.25 0.953125
Q33.9375 -1.42188 27.875 -1.42188
Q17.9688 -1.42188 11.7344 6.48438
Q5.51562 14.4062 5.51562 27.2969
Q5.51562 40.1875 11.7344 48.0938
Q17.9688 56 27.875 56
Q33.9375 56 38.25 53.625
Q42.5781 51.2656 45.4062 46.3906
M14.7969 27.2969
Q14.7969 17.3906 18.875 11.75
Q22.9531 6.10938 30.0781 6.10938
Q37.2031 6.10938 41.2969 11.75
Q45.4062 17.3906 45.4062 27.2969
Q45.4062 37.2031 41.2969 42.8438
Q37.2031 48.4844 30.0781 48.4844
Q22.9531 48.4844 18.875 42.8438
Q14.7969 37.2031 14.7969 27.2969" id="DejaVuSans-64"/>
     <path d="
M34.2812 27.4844
Q23.3906 27.4844 19.1875 25
Q14.9844 22.5156 14.9844 16.5
Q14.9844 11.7188 18.1406 8.90625
Q21.2969 6.10938 26.7031 6.10938
Q34.1875 6.10938 38.7031 11.4062
Q43.2188 16.7031 43.2188 25.4844
L43.2188 27.4844
z

M52.2031 31.2031
L52.2031 0
L43.2188 0
L43.2188 8.29688
Q40.1406 3.32812 35.5469 0.953125
Q30.9531 -1.42188 24.3125 -1.42188
Q15.9219 -1.42188 10.9531 3.29688
Q6 8.01562 6 15.9219
Q6 25.1406 12.1719 29.8281
Q18.3594 34.5156 30.6094 34.5156
L43.2188 34.5156
L43.2188 35.4062
Q43.2188 41.6094 39.1406 45
Q35.0625 48.3906 27.6875 48.3906
Q23 48.3906 18.5469 47.2656
Q14.1094 46.1406 10.0156 43.8906
L10.0156 52.2031
Q14.9375 54.1094 19.5781 55.0469
Q24.2188 56 28.6094 56
Q40.4844 56 46.3438 49.8438
Q52.2031 43.7031 52.2031 31.2031" id="DejaVuSans-61"/>
     <path d="
M18.1094 8.20312
L18.1094 -20.7969
L9.07812 -20.7969
L9.07812 54.6875
L18.1094 54.6875
L18.1094 46.3906
Q20.9531 51.2656 25.2656 53.625
Q29.5938 56 35.5938 56
Q45.5625 56 51.7812 48.0938
Q58.0156 40.1875 58.0156 27.2969
Q58.0156 14.4062 51.7812 6.48438
Q45.5625 -1.42188 35.5938 -1.42188
Q29.5938 -1.42188 25.2656 0.953125
Q20.9531 3.32812 18.1094 8.20312
M48.6875 27.2969
Q48.6875 37.2031 44.6094 42.8438
Q40.5312 48.4844 33.4062 48.4844
Q26.2656 48.4844 22.1875 42.8438
Q18.1094 37.2031 18.1094 27.2969
Q18.1094 17.3906 22.1875 11.75
Q26.2656 6.10938 33.4062 6.10938
Q40.5312 6.10938 44.6094 11.75
Q48.6875 17.3906 48.6875 27.2969" id="DejaVuSans-70"/>
     <path d="
M44.2812 53.0781
L44.2812 44.5781
Q40.4844 46.5312 36.375 47.5
Q32.2812 48.4844 27.875 48.4844
Q21.1875 48.4844 17.8438 46.4375
Q14.5 44.3906 14.5 40.2812
Q14.5 37.1562 16.8906 35.375
Q19.2812 33.5938 26.5156 31.9844
L29.5938 31.2969
Q39.1562 29.25 43.1875 25.5156
Q47.2188 21.7812 47.2188 15.0938
Q47.2188 7.46875 41.1875 3.01562
Q35.1562 -1.42188 24.6094 -1.42188
Q20.2188 -1.42188 15.4531 -0.5625
Q10.6875 0.296875 5.42188 2
L5.42188 11.2812
Q10.4062 8.6875 15.2344 7.39062
Q20.0625 6.10938 24.8125 6.10938
Q31.1562 6.10938 34.5625 8.28125
Q37.9844 10.4531 37.9844 14.4062
Q37.9844 18.0625 35.5156 20.0156
Q33.0625 21.9688 24.7031 23.7812
L21.5781 24.5156
Q13.2344 26.2656 9.51562 29.9062
Q5.8125 33.5469 5.8125 39.8906
Q5.8125 47.6094 11.2812 51.7969
Q16.75 56 26.8125 56
Q31.7812 56 36.1719 55.2656
Q40.5781 54.5469 44.2812 53.0781" id="DejaVuSans-73"/>
     <path d="
M-0.296875 72.9062
L61.375 72.9062
L61.375 64.5938
L35.5 64.5938
L35.5 0
L25.5938 0
L25.5938 64.5938
L-0.296875 64.5938
z
" id="DejaVuSans-54"/>
    </defs>
    <g transform="translate(224.9736875 23.90175)scale(0.144 -0.144)">
     <use xlink:href="#DejaVuSans-52"/>
     <use x="64.982421875" xlink:href="#DejaVuSans-65"/>
     <use x="126.505859375" xlink:href="#DejaVuSans-61"/>
     <use x="187.78515625" xlink:href="#DejaVuSans-64"/>
     <use x="251.26171875" xlink:href="#DejaVuSans-20"/>
     <use x="283.048828125" xlink:href="#DejaVuSans-54"/>
     <use x="344.1328125" xlink:href="#DejaVuSans-70"/>
     <use x="407.609375" xlink:href="#DejaVuSans-74"/>
     <use x="446.818359375" xlink:href="#DejaVuSans-20"/>
     <use x="478.60546875" xlink:href="#DejaVuSans-41"/>
     <use x="540.638671875" xlink:href="#DejaVuSans-56"/>
     <use x="609.046875" xlink:href="#DejaVuSans-47"/>
     <use x="686.537109375" xlink:href="#DejaVuSans-73"/>
     <use x="738.63671875" xlink:href="#DejaVuSans-20"/>
     <use x="770.423828125" xlink:href="#DejaVuSans-2d"/>
     <use x="806.5078125" xlink:href="#DejaVuSans-20"/>
     <use x="838.294921875" xlink:href="#DejaVuSans-43"/>
     <use x="908.119140625" xlink:href="#DejaVuSans-65"/>
     <use x="969.642578125" xlink:href="#DejaVuSans-70"/>
     <use x="1033.11914062" xlink:href="#DejaVuSans-68"/>
    </g>
   </g>
  </g>
 </g>
 <defs>
  <clipPath id="p518a017d35">
   <rect height="316.869263303" width="537.460625" x="34.579375" y="28.90175"/>
  </clipPath>
 </defs>
</svg>
