<?xml version="1.0" encoding="utf-8" standalone="no"?>
<!DOCTYPE svg PUBLIC "-//W3C//DTD SVG 1.1//EN"
  "http://www.w3.org/Graphics/SVG/1.1/DTD/svg11.dtd">
<!-- Created with matplotlib (http://matplotlib.org/) -->
<svg height="432pt" version="1.1" viewBox="0 0 576 432" width="576pt" xmlns="http://www.w3.org/2000/svg" xmlns:xlink="http://www.w3.org/1999/xlink">
 <defs>
  <style type="text/css">
*{stroke-linecap:butt;stroke-linejoin:round;}
  </style>
 </defs>
 <g id="figure_1">
  <g id="patch_1">
   <path d="
M0 432
L576 432
L576 0
L0 0
z
" style="fill:#ffffff;"/>
  </g>
  <g id="axes_1">
   <g id="patch_2">
    <path d="
M61.9988 386.812
L563.04 386.812
L563.04 28.9018
L61.9988 28.9018
z
" style="fill:#ffffff;"/>
   </g>
   <g id="line2d_1">
    <path clip-path="url(#p138e1d1e1b)" d="
M61.9988 216.897
L65.4782 267.56
L68.9577 235.679
L72.4371 273.046
L75.9166 267.223
L79.396 282.201
L82.8755 249.82
L86.3549 289.083
L89.8344 200.546
L93.3138 243.427
L96.7933 284.328
L100.273 254.012
L103.752 273.111
L107.232 271.505
L110.711 242.354
L114.191 245.995
L117.67 255.046
L121.149 272.029
L124.629 254.393
L128.108 261.879
L131.588 256.508
L135.067 260.502
L138.547 249.525
L142.026 261.326
L145.506 249.721
L148.985 267.403
L152.465 259.648
L155.944 247.944
L159.423 255.659
L162.903 257.027
L166.382 259.621
L169.862 266.42
L173.341 261.46
L176.821 255.588
L180.3 259.531
L183.78 246.917
L187.259 257.66
L190.739 265.419
L194.218 263.158
L197.697 262.002
L201.177 267.193
L204.656 243.579
L208.136 268.012
L211.615 255.918
L215.095 257.81
L218.574 264.406
L222.054 248.556
L225.533 250.994
L229.012 268.972
L232.492 254.607
L235.971 272.257
L239.451 253.234
L242.93 278.057
L246.41 266.983
L249.889 268.448
L253.369 261.496
L256.848 244.133
L260.328 252.884
L263.807 260.585
L267.286 250.74
L270.766 266.6
L274.245 261.056
L277.725 258.096
L281.204 260.957
L284.684 267.878
L288.163 270.188
L291.643 269.14
L295.122 260.324
L298.602 243.651
L302.081 264.018
L305.56 266.644
L309.04 254.524
L312.519 256.183
L315.999 268.356
L319.478 250.685
L322.958 254.995
L326.437 266.925
L329.917 260.53
L333.396 271.953
L336.876 252.796
L340.355 246.034
L343.834 260.991
L347.314 283.991
L350.793 246.791
L354.273 267.237
L357.752 264.666
L361.232 259.651
L364.711 267.684
L368.191 270.517
L371.67 257.078
L375.15 251.769
L378.629 262.447
L382.108 247.515
L385.588 254.437
L389.067 259.761
L392.547 260.066
L396.026 272.442
L399.506 258.751
L402.985 257.367
L406.465 259.616
L409.944 280.584
L413.424 250.877
L416.903 272.825
L420.382 261.773
L423.862 237.763
L427.341 259
L430.821 278.067
L434.3 256.065
L437.78 261.476
L441.259 248.244
L444.739 244.066
L448.218 257.06
L451.697 278.29
L455.177 263.43
L458.656 255.715
L462.136 259.916
L465.615 247.833
L469.095 258.746
L472.574 259.344
L476.054 277.76
L479.533 234.048
L483.013 255.108
L486.492 257.936
L493.451 263.255
L496.93 261.748
L500.41 248.671
L503.889 255.436
L507.369 260.44
L510.848 260.675
L514.328 261.921
L517.807 263.799
L521.287 257.297
L524.766 261.037
L528.245 260.855
L531.725 255.971
L535.204 274.783
L538.684 265.218
L542.163 246.876
L545.643 261.393
L549.122 255.885
L552.602 260.336
L556.081 270.192
L559.561 253.86
L559.561 253.86" style="fill:none;stroke:#ff0000;stroke-linecap:square;stroke-width:0.5;"/>
   </g>
   <g id="line2d_2">
    <path clip-path="url(#p138e1d1e1b)" d="
M61.9988 249.167
L65.4782 250.688
L68.9577 252.041
L72.4371 253.238
L75.9166 254.292
L79.396 255.214
L86.3549 256.705
L93.3138 257.792
L100.273 258.546
L107.232 259.031
L114.191 259.304
L124.629 259.42
L138.547 259.239
L180.3 258.357
L194.218 258.323
L208.136 258.479
L225.533 258.912
L246.41 259.673
L288.163 261.268
L305.56 261.691
L322.958 261.866
L340.355 261.767
L357.752 261.404
L378.629 260.695
L434.3 258.571
L448.218 258.304
L462.136 258.241
L476.054 258.401
L489.971 258.77
L510.848 259.582
L528.245 260.22
L538.684 260.405
L545.643 260.369
L552.602 260.154
L559.561 259.706
L559.561 259.706" style="fill:none;stroke:#ff0000;stroke-linecap:square;stroke-width:2.0;"/>
   </g>
   <g id="line2d_3">
    <path clip-path="url(#p138e1d1e1b)" d="
M61.9988 299.202
L65.4782 151.518
L68.9577 128.223
L72.4371 175.349
L75.9166 158.068
L79.396 180.079
L82.8755 138.651
L86.3549 157.642
L89.8344 193.922
L93.3138 168.561
L96.7933 200.061
L100.273 132.295
L103.752 103.947
L107.232 131.608
L110.711 142.488
L114.191 162.491
L117.67 205.091
L121.149 107.006
L124.629 171.275
L128.108 126.331
L131.588 128.945
L135.067 142.054
L138.547 178.794
L142.026 124.275
L145.506 163.41
L148.985 154.031
L152.465 183.911
L155.944 168.938
L159.423 260.105
L162.903 54.9474
L166.382 170.467
L169.862 163.666
L173.341 168.88
L176.821 170.961
L180.3 223.664
L183.78 126.633
L187.259 142.015
L190.739 170.899
L194.218 178.074
L197.697 234.713
L201.177 156.299
L204.656 122.501
L208.136 151.643
L211.615 174.733
L215.095 161.82
L218.574 156.832
L222.054 150.342
L225.533 142.223
L229.012 154.746
L232.492 154.728
L235.971 158.408
L239.451 239.71
L242.93 80.2547
L246.41 147.693
L249.889 133.255
L253.369 150.572
L256.848 151.53
L260.328 187.928
L263.807 119.28
L267.286 157.584
L270.766 160.996
L274.245 138.527
L277.725 182.414
L281.204 230.195
L284.684 96.9655
L288.163 124.167
L291.643 165.851
L295.122 152.746
L298.602 168.601
L302.081 214.922
L305.56 187.307
L309.04 110.312
L312.519 145.838
L315.999 155.443
L319.478 175.76
L322.958 231.399
L326.437 115.605
L329.917 129.635
L333.396 132.957
L336.876 134.572
L340.355 152.356
L347.314 192.819
L350.793 133.839
L354.273 153.659
L357.752 155.888
L361.232 152.757
L364.711 200.077
L368.191 153.323
L371.67 161.818
L375.15 172.83
L378.629 133.94
L382.108 186.405
L385.588 186.267
L389.067 206.48
L392.547 143.522
L396.026 154.767
L399.506 151.05
L402.985 171.044
L406.465 241.814
L409.944 86.5763
L413.424 149.011
L416.903 156.998
L420.382 131.416
L423.862 171.515
L427.341 197.759
L430.821 130.064
L434.3 150.247
L437.78 151.2
L441.259 186.114
L444.739 184.377
L448.218 260.548
L451.697 67.4637
L455.177 141.962
L458.656 148.678
L462.136 146.092
L469.095 163.442
L472.574 137.581
L476.054 162.517
L479.533 146.233
L483.013 149.91
L486.492 207.479
L489.971 189.894
L493.451 184.13
L496.93 135.823
L500.41 146.115
L503.889 176.404
L507.369 209.004
L510.848 180.916
L514.328 140.419
L517.807 192.745
L521.287 144.56
L524.766 174.221
L528.245 241.431
L531.725 132.872
L535.204 170.753
L538.684 129.513
L542.163 154.054
L545.643 159.363
L549.122 211.249
L552.602 170.257
L556.081 141.302
L559.561 118.124
L559.561 118.124" style="fill:none;stroke:#00ff00;stroke-linecap:square;stroke-width:0.5;"/>
   </g>
   <g id="line2d_4">
    <path clip-path="url(#p138e1d1e1b)" d="
M61.9988 196.046
L65.4782 189.765
L68.9577 184.127
L72.4371 179.089
L75.9166 174.611
L79.396 170.651
L82.8755 167.173
L86.3549 164.139
L89.8344 161.516
L93.3138 159.271
L96.7933 157.373
L100.273 155.793
L103.752 154.501
L107.232 153.473
L110.711 152.683
L114.191 152.107
L117.67 151.723
L121.149 151.51
L124.629 151.449
L128.108 151.52
L135.067 151.994
L142.026 152.806
L148.985 153.849
L162.903 156.273
L176.821 158.694
L187.259 160.275
L194.218 161.159
L201.177 161.883
L208.136 162.439
L215.095 162.821
L222.054 163.033
L229.012 163.081
L239.451 162.871
L249.889 162.37
L260.328 161.643
L274.245 160.445
L305.56 157.652
L315.999 156.932
L326.437 156.411
L336.876 156.128
L347.314 156.107
L357.752 156.36
L368.191 156.885
L378.629 157.664
L389.067 158.665
L402.985 160.268
L448.218 165.843
L458.656 166.767
L469.095 167.399
L476.054 167.628
L483.013 167.684
L489.971 167.558
L496.93 167.242
L503.889 166.737
L510.848 166.045
L517.807 165.181
L528.245 163.604
L542.163 161.156
L556.081 158.688
L559.561 158.133
L559.561 158.133" style="fill:none;stroke:#00ff00;stroke-linecap:square;stroke-width:2.0;"/>
   </g>
   <g id="line2d_5">
    <path clip-path="url(#p138e1d1e1b)" d="
M61.9988 184.024
L65.4782 282.612
L68.9577 45.2434
L72.4371 127.097
L75.9166 152.033
L79.396 153.064
L82.8755 177.077
L86.3549 179.041
L89.8344 148.999
L93.3138 214.806
L96.7933 197.929
L100.273 163.975
L103.752 177.499
L107.232 179.998
L110.711 190.8
L114.191 184.998
L117.67 148.607
L121.149 138.331
L124.629 159.151
L128.108 208.545
L131.588 121.98
L135.067 158.186
L138.547 129.12
L142.026 169.494
L145.506 163.966
L148.985 153.563
L152.465 149.407
L155.944 168.799
L159.423 150.023
L162.903 151.696
L166.382 149.663
L169.862 146.279
L173.341 144.712
L176.821 201.803
L180.3 153.159
L183.78 165.05
L187.259 171.187
L190.739 148.042
L194.218 190.431
L197.697 174.798
L201.177 167.006
L204.656 135.957
L208.136 185.694
L211.615 124.377
L215.095 150.582
L218.574 165.301
L222.054 142.389
L225.533 138.778
L229.012 151.957
L232.492 154.4
L235.971 168.958
L239.451 140.993
L242.93 150.16
L246.41 169.766
L249.889 162.881
L253.369 144.373
L260.328 173.107
L263.807 154.654
L267.286 158.948
L270.766 141.134
L274.245 165.038
L277.725 200.308
L281.204 180.852
L284.684 150.914
L288.163 156.585
L291.643 166.187
L295.122 153.976
L298.602 152.284
L302.081 158.036
L305.56 152.584
L309.04 173.125
L312.519 160.844
L315.999 173.506
L319.478 168.525
L322.958 180.939
L326.437 161.393
L329.917 158.814
L333.396 179.101
L336.876 145.714
L340.355 140.862
L343.834 191.993
L347.314 211.512
L350.793 122.665
L354.273 151.948
L357.752 162.768
L361.232 179.502
L364.711 160.844
L368.191 216.793
L371.67 196.714
L375.15 151.645
L378.629 140.776
L382.108 173.762
L385.588 140.179
L389.067 152.275
L392.547 151.472
L396.026 165.844
L399.506 165.558
L402.985 149.285
L406.465 166.294
L409.944 132.909
L413.424 140.606
L416.903 155.69
L420.382 152.098
L423.862 148.775
L427.341 177.026
L430.821 140.707
L434.3 174.913
L437.78 156.763
L441.259 133.423
L444.739 166.381
L448.218 167.429
L451.697 172.629
L455.177 171.178
L458.656 220.56
L462.136 115.035
L465.615 169.316
L469.095 176.046
L472.574 151.295
L476.054 171.115
L479.533 163.001
L483.013 182.141
L486.492 168.608
L489.971 179.029
L493.451 146.486
L496.93 152.118
L500.41 148.062
L503.889 148.42
L507.369 175.266
L510.848 175.001
L514.328 190.498
L517.807 181.915
L521.287 161.552
L524.766 164.482
L528.245 153.625
L531.725 211.895
L535.204 183.21
L538.684 171.162
L542.163 157.153
L545.643 200.601
L549.122 122.753
L552.602 187.429
L556.081 173.054
L559.561 208.715
L559.561 208.715" style="fill:none;stroke:#0000ff;stroke-linecap:square;stroke-width:0.5;"/>
   </g>
   <g id="line2d_6">
    <path clip-path="url(#p138e1d1e1b)" d="
M61.9988 166.161
L65.4782 167.27
L68.9577 168.142
L72.4371 168.801
L75.9166 169.267
L79.396 169.558
L82.8755 169.693
L86.3549 169.69
L93.3138 169.333
L100.273 168.603
L107.232 167.604
L117.67 165.794
L145.506 160.705
L155.944 159.132
L162.903 158.26
L169.862 157.545
L176.821 156.994
L183.78 156.609
L190.739 156.388
L197.697 156.323
L208.136 156.497
L218.574 156.955
L229.012 157.643
L242.93 158.811
L288.163 162.912
L302.081 163.797
L312.519 164.246
L322.958 164.492
L333.396 164.528
L343.834 164.36
L354.273 164.008
L368.191 163.303
L389.067 161.95
L409.944 160.638
L420.382 160.157
L430.821 159.88
L441.259 159.87
L448.218 160.039
L455.177 160.365
L462.136 160.86
L469.095 161.532
L476.054 162.385
L483.013 163.419
L489.971 164.629
L496.93 166.004
L507.369 168.335
L517.807 170.906
L538.684 176.18
L545.643 177.753
L552.602 179.101
L559.561 180.122
L559.561 180.122" style="fill:none;stroke:#0000ff;stroke-linecap:square;stroke-width:2.0;"/>
   </g>
   <g id="line2d_7">
    <path clip-path="url(#p138e1d1e1b)" d="
M61.9988 367.375
L65.4782 366.904
L68.9577 369.299
L72.4371 369.659
L75.9166 367.737
L79.396 368.101
L82.8755 367.511
L86.3549 369.013
L89.8344 369.013
L93.3138 368.796
L96.7933 350.747
L100.273 369.35
L103.752 371.193
L107.232 367.792
L110.711 368.879
L114.191 368.674
L117.67 369.347
L121.149 367.532
L124.629 369.433
L128.108 370.079
L131.588 368.284
L135.067 370.895
L138.547 371.29
L142.026 372.377
L145.506 369.797
L148.985 369.809
L152.465 368.74
L155.944 368.704
L159.423 373.083
L162.903 370.685
L166.382 371.551
L169.862 369.991
L173.341 370.914
L176.821 368.567
L180.3 372.344
L183.78 372.102
L187.259 369.643
L190.739 371.837
L194.218 369.716
L197.697 369.806
L201.177 366.952
L204.656 371.121
L208.136 366.911
L211.615 368.618
L215.095 371.516
L218.574 367.968
L222.054 369.444
L225.533 368.069
L229.012 370.992
L232.492 370.035
L235.971 370.212
L239.451 370.96
L242.93 369.726
L246.41 366.475
L249.889 366.819
L253.369 368.337
L256.848 367.944
L260.328 369.437
L263.807 371.594
L267.286 367.365
L270.766 370.362
L274.245 367.61
L277.725 370.921
L281.204 371.428
L284.684 370.775
L288.163 370.515
L291.643 371.468
L295.122 369.347
L298.602 369.866
L302.081 371.073
L305.56 371.433
L309.04 372.298
L312.519 367.944
L315.999 368.411
L319.478 367.181
L322.958 371.237
L326.437 371.797
L329.917 369.606
L333.396 368.141
L336.876 369.121
L340.355 368.704
L343.834 370.051
L347.314 372.254
L350.793 369.873
L354.273 368.459
L357.752 370.268
L361.232 368.284
L364.711 369.264
L368.191 371.615
L371.67 369.029
L375.15 369.444
L378.629 372.183
L382.108 366.733
L385.588 369.488
L389.067 371.717
L392.547 368.976
L399.506 369.804
L402.985 369.165
L406.465 369.585
L409.944 368.039
L413.424 367.619
L416.903 370.422
L423.862 369.876
L427.341 370.861
L430.821 369.626
L434.3 369.76
L437.78 368.946
L441.259 369.564
L444.739 369.093
L448.218 370.923
L451.697 371.041
L455.177 372.377
L458.656 368.083
L462.136 372.026
L465.615 369.67
L469.095 370.522
L472.574 368.471
L476.054 371.558
L479.533 368.93
L486.492 369.966
L489.971 372.264
L493.451 371.366
L496.93 366.715
L500.41 368.007
L503.889 371.145
L507.369 372.229
L510.848 369.947
L514.328 370.519
L517.807 366.696
L521.287 368.667
L524.766 366.295
L528.245 371.754
L531.725 370.358
L535.204 369.437
L538.684 369.691
L542.163 371.331
L545.643 369.576
L549.122 368.544
L552.602 370.032
L556.081 368.81
L556.081 368.81" style="fill:none;stroke:#ffff00;stroke-linecap:square;stroke-width:0.5;"/>
   </g>
   <g id="line2d_8">
    <path clip-path="url(#p138e1d1e1b)" d="
M61.9988 367.304
L75.9166 367.522
L96.7933 368.102
L142.026 369.436
L166.382 369.883
L190.739 370.081
L218.574 370.053
L263.807 369.721
L309.04 369.465
L343.834 369.496
L389.067 369.785
L437.78 370.053
L469.095 369.993
L507.369 369.663
L535.204 369.489
L552.602 369.615
L556.081 369.68
L556.081 369.68" style="fill:none;stroke:#ffff00;stroke-linecap:square;stroke-width:2.0;"/>
   </g>
   <g id="line2d_9">
    <path clip-path="url(#p138e1d1e1b)" d="
M61.9988 297.719
L65.4782 222.934
L68.9577 144.507
L72.4371 166.148
L75.9166 168.52
L79.396 182.942
L82.8755 159.303
L86.3549 143.596
L89.8344 183.138
L93.3138 181.592
L96.7933 156.767
L100.273 181.142
L103.752 188.255
L107.232 168.566
L110.711 182.171
L114.191 198.624
L117.67 177.511
L121.149 151.47
L124.629 179.504
L128.108 155.355
L131.588 188.26
L135.067 194.36
L138.547 167.149
L142.026 145.432
L145.506 192.925
L148.985 153.696
L152.465 170.647
L155.944 186.747
L159.423 180.815
L162.903 152.97
L166.382 180.979
L169.862 113.635
L173.341 151.472
L176.821 172.211
L180.3 167.902
L183.78 158.532
L187.259 186.557
L190.739 176.339
L194.218 125.851
L197.697 134.231
L201.177 174.86
L204.656 174.627
L208.136 192.551
L211.615 192.219
L215.095 170.871
L218.574 191.052
L222.054 171.492
L225.533 170.23
L229.012 177.379
L232.492 153.602
L235.971 171.625
L239.451 190.396
L242.93 184.887
L246.41 159.658
L249.889 169.242
L253.369 156.956
L256.848 197.387
L260.328 195.758
L263.807 164.102
L267.286 165.181
L270.766 190.318
L274.245 163.257
L277.725 162.475
L281.204 185.247
L284.684 148.341
L288.163 143.644
L291.643 129.443
L295.122 147.534
L298.602 149.481
L302.081 188.14
L305.56 155.791
L309.04 139.023
L312.519 178.918
L315.999 154.428
L319.478 165.523
L322.958 169.171
L326.437 187.916
L329.917 179.368
L333.396 173.353
L336.876 178.12
L340.355 212.342
L343.834 162.501
L347.314 146.782
L350.793 156.442
L354.273 173.284
L357.752 183.528
L361.232 167.616
L364.711 147.361
L368.191 179.786
L371.67 150.755
L375.15 177.885
L378.629 160.207
L382.108 163.592
L385.588 179.899
L389.067 164.081
L392.547 145.748
L396.026 156.124
L399.506 151.721
L402.985 148.944
L406.465 172.966
L409.944 153.108
L413.424 139.087
L416.903 181.495
L420.382 163.128
L423.862 142.82
L427.341 165.463
L430.821 155.946
L434.3 193.95
L437.78 132.311
L441.259 185.249
L444.739 180.275
L448.218 180.889
L451.697 188.604
L455.177 177.121
L458.656 158.011
L462.136 144.712
L465.615 167.526
L469.095 225.929
L472.574 151.532
L476.054 170.46
L483.013 164.3
L486.492 163.719
L489.971 172.144
L493.451 191.474
L496.93 151.915
L500.41 146.097
L503.889 157.921
L507.369 119.047
L510.848 138.967
L514.328 158.045
L517.807 137.309
L521.287 170.592
L524.766 155.651
L528.245 157.45
L531.725 157.448
L535.204 175.824
L538.684 170.23
L542.163 179.604
L545.643 161.467
L549.122 177.262
L552.602 176.053
L556.081 171.058
L559.561 127.54
L559.561 127.54" style="fill:none;stroke:#ff00ff;stroke-linecap:square;stroke-width:0.5;"/>
   </g>
   <g id="line2d_10">
    <path clip-path="url(#p138e1d1e1b)" d="
M61.9988 214.471
L65.4782 207.727
L68.9577 201.671
L72.4371 196.254
L75.9166 191.43
L79.396 187.156
L82.8755 183.39
L86.3549 180.093
L89.8344 177.227
L93.3138 174.757
L96.7933 172.648
L100.273 170.869
L103.752 169.39
L107.232 168.183
L110.711 167.22
L114.191 166.476
L117.67 165.928
L121.149 165.554
L124.629 165.333
L128.108 165.245
L135.067 165.399
L142.026 165.887
L148.985 166.599
L162.903 168.337
L176.821 170.048
L187.259 171.095
L197.697 171.839
L204.656 172.144
L211.615 172.293
L218.574 172.287
L229.012 172.009
L239.451 171.448
L249.889 170.662
L263.807 169.382
L298.602 166.043
L312.519 165.03
L322.958 164.487
L333.396 164.153
L343.834 164.033
L354.273 164.119
L368.191 164.509
L385.588 165.301
L413.424 166.649
L423.862 166.967
L434.3 167.086
L444.739 166.953
L455.177 166.534
L465.615 165.817
L476.054 164.82
L486.492 163.6
L510.848 160.56
L517.807 159.905
L524.766 159.495
L531.725 159.441
L535.204 159.587
L538.684 159.871
L542.163 160.313
L545.643 160.933
L549.122 161.753
L552.602 162.796
L556.081 164.089
L559.561 165.656
L559.561 165.656" style="fill:none;stroke:#ff00ff;stroke-linecap:square;stroke-width:2.0;"/>
   </g>
   <g id="line2d_11">
    <path clip-path="url(#p138e1d1e1b)" d="
M61.9988 195.147
L65.4782 180.137
L68.9577 303.125
L72.4371 28.9018
L75.9166 176.304
L79.396 184.963
L82.8755 219.121
L86.3549 171.111
L89.8344 180.953
L93.3138 153.616
L96.7933 192.281
L100.273 194.831
L103.752 171.755
L107.232 185.914
L110.711 199.369
L114.191 195.618
L117.67 156.979
L121.149 202.645
L124.629 197.08
L128.108 180.478
L131.588 193.232
L135.067 155.427
L138.547 157.199
L142.026 146.074
L145.506 164.464
L148.985 177.984
L152.465 176.888
L155.944 206.244
L159.423 163.497
L162.903 152.354
L166.382 173.849
L169.862 204.369
L173.341 178.743
L176.821 191.735
L180.3 206.475
L183.78 155.731
L187.259 169.33
L190.739 160.849
L194.218 143.27
L197.697 167.671
L201.177 209.156
L204.656 192.528
L208.136 171.217
L211.615 174.482
L215.095 155.914
L218.574 203.965
L222.054 207.7
L225.533 193.866
L229.012 194.925
L232.492 175.543
L235.971 177.4
L242.93 186.486
L246.41 199.088
L249.889 193.613
L253.369 179.73
L256.848 190.604
L260.328 192.205
L263.807 226.504
L267.286 184.052
L270.766 199.503
L274.245 195.112
L277.725 206.542
L281.204 145.695
L284.684 177.052
L288.163 168.709
L291.643 212.571
L295.122 205.296
L298.602 203.93
L302.081 174.639
L305.56 172.419
L309.04 172.915
L312.519 168.423
L315.999 174.952
L319.478 167.989
L322.958 176.722
L326.437 201.007
L329.917 164.362
L333.396 134.242
L336.876 174.495
L340.355 188.172
L343.834 192.457
L347.314 212.368
L350.793 159.686
L354.273 173.75
L357.752 175.965
L361.232 172.853
L364.711 182.834
L368.191 209.657
L371.67 168.894
L375.15 184.066
L378.629 172.511
L382.108 184.929
L385.588 186.089
L389.067 212.651
L392.547 183.177
L396.026 175.91
L399.506 191.541
L402.985 185.575
L406.465 159.227
L409.944 201.113
L413.424 179.449
L416.903 154.188
L420.382 163.931
L423.862 188.438
L427.341 192.33
L430.821 181.791
L434.3 181.149
L437.78 181.599
L441.259 185.346
L444.739 167.678
L448.218 175.889
L451.697 168.358
L455.177 180.261
L458.656 178.505
L462.136 193.433
L465.615 181.249
L469.095 204.221
L472.574 176.316
L476.054 209.876
L479.533 195.703
L483.013 190.371
L486.492 177.972
L489.971 177.089
L493.451 209.172
L496.93 207.82
L500.41 167.689
L503.889 178.279
L507.369 189.568
L510.848 203.824
L514.328 198.278
L517.807 157.261
L521.287 180.63
L524.766 192.378
L528.245 185.976
L531.725 194.6
L535.204 159.326
L538.684 157.655
L542.163 175.854
L545.643 198.617
L549.122 186.137
L552.602 188.055
L556.081 188.765
L559.561 120.09
L559.561 120.09" style="fill:none;stroke:#00ffff;stroke-linecap:square;stroke-width:0.5;"/>
   </g>
   <g id="line2d_12">
    <path clip-path="url(#p138e1d1e1b)" d="
M61.9988 188.194
L65.4782 187.066
L68.9577 185.987
L75.9166 183.988
L82.8755 182.215
L89.8344 180.679
L96.7933 179.385
L103.752 178.334
L110.711 177.522
L117.67 176.94
L124.629 176.577
L131.588 176.419
L138.547 176.449
L145.506 176.647
L155.944 177.216
L166.382 178.047
L180.3 179.433
L222.054 183.907
L232.492 184.781
L242.93 185.466
L253.369 185.935
L263.807 186.172
L274.245 186.171
L284.684 185.94
L295.122 185.495
L309.04 184.621
L322.958 183.511
L364.711 180.008
L375.15 179.401
L385.588 179.016
L396.026 178.898
L406.465 179.084
L416.903 179.594
L427.341 180.431
L437.78 181.57
L448.218 182.964
L465.615 185.605
L479.533 187.632
L486.492 188.457
L493.451 189.058
L500.41 189.344
L503.889 189.338
L507.369 189.214
L510.848 188.956
L514.328 188.55
L517.807 187.978
L521.287 187.223
L524.766 186.265
L528.245 185.086
L531.725 183.663
L535.204 181.976
L538.684 180.001
L542.163 177.713
L545.643 175.088
L549.122 172.098
L552.602 168.715
L556.081 164.912
L559.561 160.655
L559.561 160.655" style="fill:none;stroke:#00ffff;stroke-linecap:square;stroke-width:2.0;"/>
   </g>
   <g id="line2d_13">
    <path clip-path="url(#p138e1d1e1b)" d="
M61.9988 287.768
L65.4782 315.819
L68.9577 294.667
L72.4371 311.597
L75.9166 304.516
L79.396 327.414
L82.8755 321.564
L86.3549 339.555
L89.8344 323.151
L93.3138 322.918
L96.7933 362.373
L100.273 299.382
L103.752 308.468
L107.232 316.114
L110.711 319.416
L114.191 296.734
L117.67 312.381
L121.149 289.104
L124.629 294.221
L128.108 314.801
L131.588 333.895
L135.067 319.607
L138.547 325.087
L142.026 338.817
L145.506 348.463
L148.985 336.895
L152.465 333.282
L155.944 300.898
L159.423 313.989
L162.903 292.742
L166.382 278.302
L169.862 303.471
L173.341 331.452
L176.821 319.974
L180.3 319.45
L183.78 329.475
L187.259 341.846
L190.739 330.395
L194.218 334.821
L197.697 310.685
L201.177 307.762
L204.656 300.508
L208.136 276.477
L211.615 306.23
L215.095 326.99
L218.574 311.917
L222.054 308.177
L225.533 316.091
L229.012 307.725
L232.492 320.055
L235.971 327.929
L239.451 311.871
L242.93 304.899
L246.41 292.161
L249.889 306.765
L253.369 324.999
L256.848 330.289
L260.328 327.195
L263.807 317.669
L267.286 330.951
L270.766 321.716
L274.245 328.582
L277.725 320.068
L281.204 328.942
L284.684 309.615
L288.163 304.387
L291.643 289.118
L295.122 311.294
L298.602 314.402
L302.081 328.314
L305.56 343.332
L309.04 340.007
L312.519 332.583
L315.999 332.017
L319.478 331.147
L322.958 328.197
L326.437 318.633
L329.917 331.454
L333.396 315.616
L336.876 325.167
L340.355 306.987
L343.834 309.585
L347.314 303.791
L350.793 310.108
L354.273 311.433
L357.752 337.993
L361.232 315.505
L364.711 326.542
L368.191 320.35
L371.67 311.022
L375.15 311.223
L378.629 317.023
L382.108 317.367
L385.588 314.508
L389.067 341.477
L392.547 333.067
L396.026 319.358
L399.506 331.39
L402.985 328.582
L406.465 315.32
L409.944 309.746
L413.424 304.747
L416.903 293.354
L420.382 304.973
L423.862 311.454
L427.341 292.329
L430.821 315.092
L434.3 328.861
L437.78 352.256
L441.259 356.369
L444.739 352.17
L448.218 317.662
L451.697 322.565
L455.177 315.288
L458.656 319.462
L462.136 321.423
L465.615 326.748
L469.095 304.726
L472.574 318.167
L476.054 312.146
L479.533 301.59
L483.013 319.949
L486.492 332.223
L489.971 328.727
L493.451 331.782
L496.93 326.519
L500.41 316.359
L503.889 311.661
L507.369 317.833
L510.848 301.565
L514.328 302.183
L517.807 294.256
L521.287 318.2
L524.766 303.113
L528.245 333.854
L531.725 324.385
L535.204 340.487
L538.684 341.777
L542.163 310.994
L549.122 317.478
L552.602 310.092
L556.081 307.614
L559.561 292.883
L559.561 292.883" style="fill:none;stroke:#000000;stroke-linecap:square;stroke-width:0.5;"/>
   </g>
   <g id="line2d_14">
    <path clip-path="url(#p138e1d1e1b)" d="
M61.9988 302.454
L65.4782 305.505
L68.9577 308.186
L72.4371 310.523
L75.9166 312.545
L79.396 314.279
L82.8755 315.747
L86.3549 316.975
L89.8344 317.983
L93.3138 318.794
L96.7933 319.425
L100.273 319.897
L103.752 320.225
L110.711 320.519
L117.67 320.423
L124.629 320.042
L135.067 319.124
L169.862 315.54
L180.3 314.806
L190.739 314.343
L201.177 314.165
L211.615 314.262
L222.054 314.609
L232.492 315.164
L246.41 316.144
L274.245 318.447
L291.643 319.77
L305.56 320.608
L319.478 321.18
L329.917 321.417
L343.834 321.475
L357.752 321.268
L375.15 320.726
L420.382 319.057
L434.3 318.842
L448.218 318.885
L462.136 319.186
L500.41 320.366
L507.369 320.325
L514.328 320.065
L521.287 319.508
L528.245 318.561
L531.725 317.907
L535.204 317.115
L538.684 316.167
L542.163 315.048
L545.643 313.739
L549.122 312.221
L552.602 310.474
L556.081 308.476
L559.561 306.204
L559.561 306.204" style="fill:none;stroke:#000000;stroke-dasharray:6.000000,6.000000;stroke-dashoffset:0.0;stroke-width:2.0;"/>
   </g>
   <g id="line2d_15">
    <path clip-path="url(#p138e1d1e1b)" d="
M61.9988 378.89
L65.4782 327.087
L68.9577 292.639
L72.4371 301.946
L75.9166 320.198
L79.396 309.467
L82.8755 304.137
L86.3549 317.157
L89.8344 289.545
L93.3138 297.417
L96.7933 306.184
L100.273 313.004
L103.752 306.433
L107.232 308.53
L110.711 296.941
L114.191 286.132
L117.67 309.509
L121.149 304.823
L124.629 300.455
L128.108 316.264
L131.588 288.398
L135.067 296.63
L138.547 301.009
L142.026 314.838
L145.506 299.316
L148.985 311.71
L152.465 293.349
L155.944 293.834
L162.903 313.885
L166.382 301.021
L169.862 320.694
L173.341 291.614
L176.821 295.548
L180.3 306.682
L183.78 302.97
L187.259 293.658
L190.739 301.404
L194.218 286.612
L197.697 310.944
L201.177 292.182
L204.656 322.039
L208.136 289.87
L211.615 297.544
L215.095 292.966
L218.574 309.804
L222.054 323.545
L225.533 310.944
L229.012 283.35
L232.492 310.844
L235.971 299.435
L239.451 293.176
L242.93 307.425
L246.41 308.445
L249.889 293.019
L253.369 299.202
L256.848 293.455
L260.328 309.033
L263.807 308.56
L267.286 289.676
L270.766 290.322
L274.245 306.874
L277.725 302.529
L281.204 306.375
L284.684 313.258
L288.163 320.578
L291.643 297.786
L295.122 297.841
L298.602 282.519
L302.081 294.461
L305.56 305.307
L309.04 301.57
L312.519 299.904
L315.999 295.601
L319.478 290.754
L322.958 315.833
L326.437 303.42
L329.917 314.873
L333.396 298.956
L336.876 306.145
L340.355 307.709
L343.834 312.335
L347.314 312.635
L350.793 313.122
L354.273 309.829
L357.752 299.892
L361.232 306.26
L364.711 313.952
L368.191 308.223
L371.67 319.245
L375.15 286.601
L378.629 301.639
L382.108 297.922
L385.588 304.398
L389.067 313.901
L392.547 319.033
L396.026 292.117
L399.506 304.184
L402.985 290.348
L406.465 299.136
L409.944 318.696
L413.424 315.03
L416.903 283.897
L420.382 299.482
L423.862 282.383
L427.341 301.288
L430.821 316.465
L434.3 304.431
L437.78 291.019
L441.259 323.954
L444.739 274.287
L448.218 288.594
L451.697 309.322
L455.177 302.241
L458.656 287.318
L462.136 302.368
L465.615 278.89
L469.095 294.655
L472.574 321.923
L476.054 305.69
L479.533 306.668
L483.013 310.96
L486.492 288.896
L489.971 289.15
L493.451 304.44
L496.93 311.629
L500.41 287.632
L503.889 294.95
L507.369 294.614
L510.848 300.665
L514.328 322.085
L517.807 311.502
L521.287 282.718
L524.766 307.291
L528.245 274.096
L531.725 284.229
L535.204 320.082
L538.684 305.919
L542.163 299.161
L545.643 296.381
L549.122 273.941
L552.602 305.097
L556.081 315.184
L559.561 228.958
L563.04 386.812
L563.04 386.812" style="fill:none;stroke:#800000;stroke-linecap:square;stroke-width:0.5;"/>
   </g>
   <g id="line2d_16">
    <path clip-path="url(#p138e1d1e1b)" d="
M61.9988 331.869
L65.4782 327.57
L68.9577 323.702
L72.4371 320.234
L75.9166 317.136
L79.396 314.382
L82.8755 311.945
L86.3549 309.8
L89.8344 307.924
L93.3138 306.295
L96.7933 304.891
L100.273 303.693
L103.752 302.682
L107.232 301.84
L110.711 301.152
L114.191 300.6
L121.149 299.853
L128.108 299.492
L135.067 299.428
L142.026 299.582
L152.465 300.081
L173.341 301.442
L190.739 302.448
L204.656 302.99
L218.574 303.264
L232.492 303.298
L249.889 303.098
L298.602 302.363
L315.999 302.412
L333.396 302.7
L357.752 303.39
L382.108 304.084
L396.026 304.29
L406.465 304.278
L416.903 304.081
L427.341 303.669
L437.78 303.025
L448.218 302.15
L458.656 301.066
L472.574 299.385
L493.451 296.844
L500.41 296.177
L507.369 295.707
L514.328 295.516
L521.287 295.7
L524.766 295.966
L528.245 296.369
L531.725 296.924
L535.204 297.649
L538.684 298.563
L542.163 299.684
L545.643 301.034
L549.122 302.634
L552.602 304.508
L556.081 306.681
L559.561 309.178
L563.04 312.026
L563.04 312.026" style="fill:none;stroke:#800000;stroke-dasharray:6.000000,6.000000;stroke-dashoffset:0.0;stroke-width:2.0;"/>
   </g>
   <g id="line2d_17">
    <path clip-path="url(#p138e1d1e1b)" d="
M61.9988 383.772
L65.4782 294.521
L68.9577 321.176
L72.4371 318.188
L75.9166 322.226
L79.396 313.274
L82.8755 315.918
L86.3549 299.604
L89.8344 295.232
L93.3138 310.249
L96.7933 328.942
L100.273 305.806
L103.752 308.17
L107.232 311.31
L110.711 311.834
L114.191 296.058
L117.67 330.654
L121.149 304.724
L124.629 303.764
L128.108 313.209
L131.588 303.907
L135.067 307.813
L138.547 338.812
L142.026 297.004
L145.506 317.598
L148.985 315.976
L152.465 300.01
L155.944 290.636
L159.423 333.653
L162.903 305.36
L166.382 321.213
L169.862 295.931
L173.341 314.58
L176.821 299.989
L180.3 319.69
L183.78 318.666
L187.259 326.54
L190.739 290.881
L194.218 300.824
L197.697 307.997
L201.177 310.976
L204.656 313.655
L208.136 306.073
L211.615 302.686
L215.095 297.419
L218.574 301.789
L222.054 324.228
L225.533 304.375
L229.012 314.37
L232.492 307.312
L235.971 302.94
L239.451 303.711
L242.93 325.989
L246.41 302.871
L249.889 306.052
L253.369 306.223
L256.848 302.273
L260.328 299.86
L263.807 315.24
L267.286 316.933
L270.766 304.541
L274.245 312.972
L277.725 300.651
L281.204 309.536
L284.684 330.287
L288.163 296.582
L291.643 308.68
L295.122 310.556
L298.602 312.051
L302.081 302.624
L305.56 312.889
L309.04 313.922
L312.519 298.875
L315.999 299.085
L319.478 306.719
L322.958 315.046
L326.437 324.441
L329.917 289.439
L333.396 304.541
L336.876 304.756
L340.355 305.476
L343.834 336.876
L347.314 321.171
L350.793 291.45
L354.273 310.27
L357.752 303.801
L361.232 300.965
L364.711 340.199
L368.191 319.45
L371.67 300.582
L375.15 309.829
L378.629 304.467
L382.108 311.34
L385.588 329.249
L389.067 320.59
L392.547 292.551
L396.026 311.509
L402.985 308.12
L406.465 346.253
L409.944 325.827
L413.424 284.898
L416.903 304.67
L420.382 300.015
L423.862 296.325
L427.341 338.267
L430.821 321.598
L434.3 295.052
L437.78 303.563
L441.259 313.862
L444.739 297.814
L448.218 341.149
L451.697 330.691
L455.177 292.496
L458.656 315.51
L462.136 297.74
L465.615 301.798
L469.095 335.323
L472.574 312.886
L476.054 300.275
L479.533 308.143
L483.013 302.446
L486.492 311.523
L489.971 341.034
L493.451 324.268
L496.93 290.97
L500.41 309.719
L503.889 305.365
L507.369 315.413
L510.848 326.877
L514.328 320.223
L517.807 295.599
L521.287 312.194
L524.766 314.326
L528.245 308.44
L531.725 339.67
L535.204 320.913
L538.684 296.332
L542.163 312.632
L545.643 311.066
L549.122 285.011
L552.602 344.654
L556.081 313.428
L559.561 272.209
L563.04 358.697
L563.04 358.697" style="fill:none;stroke:#008000;stroke-linecap:square;stroke-width:0.5;"/>
   </g>
   <g id="line2d_18">
    <path clip-path="url(#p138e1d1e1b)" d="
M61.9988 331.976
L65.4782 328.704
L68.9577 325.768
L72.4371 323.145
L75.9166 320.811
L79.396 318.744
L82.8755 316.923
L86.3549 315.329
L89.8344 313.941
L93.3138 312.743
L96.7933 311.719
L100.273 310.851
L103.752 310.125
L107.232 309.527
L114.191 308.665
L121.149 308.167
L128.108 307.952
L135.067 307.947
L145.506 308.203
L162.903 308.946
L180.3 309.657
L194.218 310.017
L208.136 310.132
L222.054 310.013
L239.451 309.611
L288.163 308.232
L302.081 308.1
L315.999 308.182
L329.917 308.493
L343.834 309.023
L361.232 309.936
L413.424 312.981
L427.341 313.447
L437.78 313.605
L448.218 313.578
L458.656 313.365
L472.574 312.823
L510.848 311.027
L517.807 310.993
L524.766 311.194
L531.725 311.709
L535.204 312.112
L538.684 312.629
L542.163 313.274
L545.643 314.061
L549.122 315.005
L552.602 316.123
L556.081 317.431
L559.561 318.949
L563.04 320.695
L563.04 320.695" style="fill:none;stroke:#008000;stroke-dasharray:6.000000,6.000000;stroke-dashoffset:0.0;stroke-width:2.0;"/>
   </g>
   <g id="line2d_19">
    <path clip-path="url(#p138e1d1e1b)" d="
M61.9988 342.988
L65.4782 300.875
L68.9577 280.15
L72.4371 268.863
L75.9166 274.996
L79.396 276.468
L82.8755 280.768
L86.3549 302.04
L89.8344 272.349
L93.3138 286.024
L96.7933 268.22
L103.752 286.633
L107.232 302.834
L110.711 279.271
L114.191 285.198
L117.67 279.557
L121.149 289.254
L124.629 293.884
L128.108 301.6
L131.588 286.513
L135.067 312.16
L138.547 308.311
L142.026 303.141
L145.506 288.163
L148.985 286.801
L152.465 263.847
L155.944 300.522
L159.423 266.874
L162.903 272.663
L169.862 296.674
L173.341 286.183
L176.821 286.298
L180.3 262.364
L183.78 272.689
L187.259 279.748
L190.739 306.212
L194.218 284.653
L197.697 288.647
L201.177 278.819
L204.656 293.926
L208.136 301.129
L211.615 301.288
L215.095 293.568
L218.574 306.523
L222.054 309.972
L225.533 299.034
L229.012 293.483
L232.492 284.31
L235.971 269.735
L239.451 275.233
L242.93 270.224
L249.889 293.504
L253.369 297.95
L256.848 283.931
L260.328 267.788
L263.807 275.056
L267.286 304.209
L270.766 302.382
L274.245 299.087
L277.725 294.353
L281.204 310.831
L284.684 273.544
L288.163 280.817
L291.643 294.913
L295.122 299.641
L298.602 293.993
L302.081 312.766
L305.56 305.351
L309.04 311.017
L312.519 293.054
L315.999 284.596
L319.478 285.17
L322.958 278.3
L326.437 266.178
L329.917 269.334
L333.396 279.144
L336.876 288.271
L340.355 269.978
L343.834 289.879
L347.314 278.509
L350.793 298.116
L354.273 297.977
L357.752 298.575
L361.232 281.294
L364.711 302.55
L368.191 301.953
L371.67 296.157
L375.15 317.058
L378.629 315.343
L382.108 286.174
L385.588 308.853
L389.067 308.51
L392.547 297.989
L396.026 299.662
L399.506 298.868
L402.985 279.956
L406.465 288.996
L409.944 292.549
L413.424 271.127
L416.903 288.045
L420.382 300.358
L423.862 286.748
L427.341 291.836
L430.821 269.943
L434.3 285.323
L437.78 266.072
L441.259 304.144
L444.739 300.734
L448.218 299.502
L451.697 288.756
L455.177 289.738
L458.656 288.97
L462.136 304.917
L465.615 283.115
L469.095 303.438
L472.574 274.486
L476.054 280.065
L479.533 300.377
L483.013 295.61
L486.492 286.961
L489.971 286.031
L493.451 276.631
L496.93 287.475
L500.41 292.477
L503.889 305.416
L507.369 285.828
L510.848 297.168
L514.328 295.379
L517.807 276.002
L521.287 296.743
L524.766 304.804
L528.245 286.386
L531.725 297.034
L535.204 278.05
L538.684 286.026
L542.163 289.381
L545.643 305.086
L549.122 296.695
L556.081 286.192
L559.561 298.12
L559.561 298.12" style="fill:none;stroke:#000080;stroke-linecap:square;stroke-width:0.5;"/>
   </g>
   <g id="line2d_20">
    <path clip-path="url(#p138e1d1e1b)" d="
M61.9988 297.418
L65.4782 295.432
L68.9577 293.673
L72.4371 292.121
L75.9166 290.763
L79.396 289.582
L82.8755 288.565
L86.3549 287.698
L89.8344 286.968
L93.3138 286.363
L100.273 285.484
L107.232 284.978
L114.191 284.771
L121.149 284.799
L131.588 285.159
L142.026 285.766
L194.218 289.182
L208.136 289.729
L222.054 290.08
L239.451 290.293
L267.286 290.343
L298.602 290.416
L319.478 290.666
L343.834 291.202
L399.506 292.586
L413.424 292.681
L427.341 292.575
L441.259 292.24
L455.177 291.681
L472.574 290.744
L496.93 289.429
L507.369 289.123
L514.328 289.105
L521.287 289.3
L528.245 289.767
L535.204 290.58
L538.684 291.141
L542.163 291.819
L545.643 292.627
L549.122 293.576
L552.602 294.679
L556.081 295.952
L559.561 297.407
L559.561 297.407" style="fill:none;stroke:#000080;stroke-dasharray:6.000000,6.000000;stroke-dashoffset:0.0;stroke-width:2.0;"/>
   </g>
   <g id="line2d_21">
    <path clip-path="url(#p138e1d1e1b)" d="
M61.9988 368.196
L65.4782 320.834
L68.9577 287.888
L72.4371 268.584
L75.9166 271.927
L79.396 282.379
L82.8755 317.937
L86.3549 286.197
L89.8344 283.271
L93.3138 265.642
L96.7933 270.573
L100.273 293.522
L103.752 319.907
L107.232 280.976
L110.711 281.71
L114.191 261.949
L117.67 282.833
L121.149 282.953
L124.629 314.993
L128.108 318.442
L131.588 286.423
L135.067 288.46
L138.547 272.582
L142.026 280.274
L145.506 309.038
L148.985 293.206
L152.465 281.495
L155.944 287.554
L159.423 291.552
L162.903 304.232
L166.382 308.078
L169.862 312.284
L173.341 280.867
L176.821 297.052
L180.3 273.404
L183.78 298.928
L187.259 312.076
L190.739 277.94
L194.218 296.166
L197.697 296.468
L201.177 284.827
L204.656 300.578
L208.136 305.896
L211.615 304.44
L215.095 296.794
L218.574 279.885
L222.054 288.255
L225.533 290.528
L229.012 309.811
L232.492 290.551
L235.971 280.221
L239.451 286.047
L242.93 289.358
L246.41 297.045
L249.889 310.524
L253.369 292.636
L256.848 310.812
L260.328 300.644
L263.807 298.358
L267.286 304.553
L270.766 313.428
L274.245 306.062
L277.725 307.531
L281.204 292.221
L284.684 287.904
L288.163 294.784
L291.643 306.895
L295.122 289.999
L298.602 299.399
L302.081 283.486
L305.56 281.79
L309.04 278.796
L312.519 314.815
L315.999 287.904
L319.478 296.858
L322.958 293.764
L326.437 288.961
L329.917 282.014
L333.396 312.93
L336.876 315.683
L340.355 307.451
L343.834 291.439
L347.314 291.727
L350.793 277.374
L354.273 313.728
L357.752 297.108
L361.232 315.692
L364.711 293.767
L368.191 289.337
L371.67 297.011
L375.15 301.87
L378.629 299.046
L382.108 306.043
L385.588 290.419
L389.067 285.302
L392.547 290.825
L396.026 308.401
L399.506 299.348
L402.985 293.324
L406.465 295.449
L409.944 287.655
L413.424 295.553
L416.903 306.576
L420.382 301.902
L423.862 314.063
L427.341 296.422
L430.821 298.035
L434.3 298.044
L437.78 309.954
L441.259 296.655
L444.739 322.463
L448.218 301.039
L451.697 300.721
L455.177 289.535
L458.656 302.492
L462.136 298.822
L465.615 315.837
L469.095 304.677
L472.574 288.421
L476.054 297.617
L479.533 311.783
L483.013 296.741
L486.492 314.01
L493.451 279.04
L496.93 295.712
L500.41 314.427
L503.889 319.291
L507.369 303.87
L510.848 291.783
L514.328 288.483
L517.807 293.76
L521.287 306.68
L524.766 306.666
L528.245 299.318
L531.725 298.801
L535.204 307.658
L538.684 299.17
L542.163 316.845
L545.643 317.554
L549.122 308.611
L552.602 291
L559.561 303.235
L559.561 303.235" style="fill:none;stroke:#808000;stroke-linecap:square;stroke-width:0.5;"/>
   </g>
   <g id="line2d_22">
    <path clip-path="url(#p138e1d1e1b)" d="
M61.9988 315.377
L65.4782 310.479
L68.9577 306.142
L72.4371 302.324
L75.9166 298.987
L79.396 296.094
L82.8755 293.61
L86.3549 291.502
L89.8344 289.739
L93.3138 288.289
L96.7933 287.126
L100.273 286.222
L103.752 285.552
L107.232 285.092
L110.711 284.821
L114.191 284.716
L117.67 284.759
L121.149 284.93
L128.108 285.592
L135.067 286.578
L142.026 287.782
L155.944 290.497
L169.862 293.184
L180.3 294.959
L187.259 295.973
L194.218 296.834
L201.177 297.531
L208.136 298.063
L215.095 298.433
L225.533 298.703
L235.971 298.671
L246.41 298.392
L260.328 297.751
L305.56 295.354
L315.999 295.072
L326.437 294.975
L336.876 295.08
L347.314 295.39
L357.752 295.894
L371.67 296.828
L389.067 298.289
L420.382 301.016
L434.3 301.937
L444.739 302.403
L455.177 302.639
L465.615 302.629
L476.054 302.386
L489.971 301.776
L510.848 300.744
L517.807 300.566
L524.766 300.588
L531.725 300.903
L535.204 301.203
L538.684 301.617
L542.163 302.163
L545.643 302.857
L549.122 303.718
L552.602 304.765
L556.081 306.021
L559.561 307.506
L559.561 307.506" style="fill:none;stroke:#808000;stroke-dasharray:6.000000,6.000000;stroke-dashoffset:0.0;stroke-width:2.0;"/>
   </g>
   <g id="line2d_23">
    <path clip-path="url(#p138e1d1e1b)" d="
M61.9988 375.717
L65.4782 376.606
L68.9577 375.671
L72.4371 375.69
L75.9166 372.017
L79.396 373.666
L82.8755 374.054
L86.3549 375.348
L89.8344 377.295
L93.3138 376.11
L96.7933 376.133
L100.273 375.872
L103.752 374.797
L107.232 377.402
L110.711 375.727
L114.191 377.971
L117.67 376.038
L121.149 377.471
L124.629 376.269
L128.108 378.154
L131.588 377.346
L135.067 377.295
L138.547 375.625
L142.026 378.025
L145.506 376.709
L148.985 377.062
L152.465 376.571
L155.944 377.471
L159.423 375.454
L162.903 375.994
L166.382 377.381
L169.862 377.81
L173.341 377.616
L176.821 376.818
L180.3 376.712
L183.78 375.817
L187.259 375.309
L190.739 379.1
L194.218 379.24
L197.697 376.594
L201.177 375.558
L204.656 376.001
L208.136 375.143
L211.615 378.084
L215.095 378.491
L218.574 379.044
L222.054 376.349
L225.533 375.45
L229.012 377.104
L232.492 379.146
L235.971 377.349
L239.451 378.108
L242.93 376.223
L246.41 376.047
L253.369 376.809
L256.848 377.335
L260.328 378.02
L263.807 377.053
L267.286 378.689
L270.766 377.201
L274.245 377.815
L281.204 378.636
L284.684 376.509
L288.163 368.242
L291.643 377.789
L295.122 377.803
L298.602 376.959
L302.081 377.157
L305.56 375.807
L309.04 376.566
L312.519 372.949
L315.999 377.794
L319.478 377.932
L322.958 376.511
L326.437 376.405
L329.917 376.502
L333.396 378.117
L336.876 379.328
L340.355 377.561
L343.834 378.223
L347.314 376.82
L350.793 377.745
L354.273 377.224
L357.752 376.982
L361.232 377.618
L364.711 377.425
L368.191 376.299
L371.67 374.437
L375.15 377.969
L378.629 377.254
L382.108 378.031
L385.588 376.659
L389.067 376.613
L392.547 376.795
L396.026 377.923
L399.506 377.621
L402.985 377.651
L406.465 375.789
L409.944 376.082
L413.424 376.917
L416.903 377.498
L420.382 377.563
L423.862 376.753
L427.341 375.279
L430.821 376.167
L434.3 375.217
L437.78 378.578
L441.259 377.801
L444.739 376.603
L448.218 375.78
L451.697 376.308
L455.177 375.032
L458.656 377.164
L462.136 378.668
L465.615 377.667
L469.095 375.927
L472.574 374.797
L476.054 375.6
L479.533 377.708
L483.013 376.663
L486.492 376.562
L489.971 376.822
L496.93 375.15
L500.41 377.358
L503.889 377.007
L507.369 376.878
L510.848 376.499
L514.328 377.118
L517.807 375.967
L521.287 377.254
L524.766 377.422
L528.245 377.245
L531.725 375.15
L535.204 376.301
L538.684 377.681
L542.163 378.027
L545.643 378.497
L549.122 378.299
L552.602 376.306
L552.602 376.306" style="fill:none;stroke:#800080;stroke-linecap:square;stroke-width:0.5;"/>
   </g>
   <g id="line2d_24">
    <path clip-path="url(#p138e1d1e1b)" d="
M61.9988 374.852
L100.273 376.045
L124.629 376.59
L148.985 376.934
L176.821 377.109
L215.095 377.097
L322.958 376.92
L413.424 376.923
L462.136 376.623
L496.93 376.47
L514.328 376.575
L528.245 376.837
L542.163 377.335
L552.602 377.916
L552.602 377.916" style="fill:none;stroke:#800080;stroke-dasharray:6.000000,6.000000;stroke-dashoffset:0.0;stroke-width:2.0;"/>
   </g>
   <g id="matplotlib.axis_1">
    <g id="xtick_1">
     <g id="line2d_25">
      <path clip-path="url(#p138e1d1e1b)" d="
M61.9988 386.812
L61.9988 28.9018" style="fill:none;stroke:#000000;stroke-dasharray:1.000000,3.000000;stroke-dashoffset:0.0;stroke-width:0.5;"/>
     </g>
     <g id="line2d_26">
      <defs>
       <path d="
M0 0
L0 -4" id="m93b0483c22" style="stroke:#000000;stroke-width:0.5;"/>
      </defs>
      <g>
       <use style="stroke:#000000;stroke-width:0.5;" x="61.99875" xlink:href="#m93b0483c22" y="386.8125"/>
      </g>
     </g>
     <g id="line2d_27">
      <defs>
       <path d="
M0 0
L0 4" id="m741efc42ff" style="stroke:#000000;stroke-width:0.5;"/>
      </defs>
      <g>
       <use style="stroke:#000000;stroke-width:0.5;" x="61.99875" xlink:href="#m741efc42ff" y="28.90175"/>
      </g>
     </g>
     <g id="text_1">
      <!-- 0 -->
      <defs>
       <path d="
M31.7812 66.4062
Q24.1719 66.4062 20.3281 58.9062
Q16.5 51.4219 16.5 36.375
Q16.5 21.3906 20.3281 13.8906
Q24.1719 6.39062 31.7812 6.39062
Q39.4531 6.39062 43.2812 13.8906
Q47.125 21.3906 47.125 36.375
Q47.125 51.4219 43.2812 58.9062
Q39.4531 66.4062 31.7812 66.4062
M31.7812 74.2188
Q44.0469 74.2188 50.5156 64.5156
Q56.9844 54.8281 56.9844 36.375
Q56.9844 17.9688 50.5156 8.26562
Q44.0469 -1.42188 31.7812 -1.42188
Q19.5312 -1.42188 13.0625 8.26562
Q6.59375 17.9688 6.59375 36.375
Q6.59375 54.8281 13.0625 64.5156
Q19.5312 74.2188 31.7812 74.2188" id="DejaVuSans-30"/>
      </defs>
      <g transform="translate(58.9753125 399.930625)scale(0.12 -0.12)">
       <use xlink:href="#DejaVuSans-30"/>
      </g>
     </g>
    </g>
    <g id="xtick_2">
     <g id="line2d_28">
      <path clip-path="url(#p138e1d1e1b)" d="
M131.588 386.812
L131.588 28.9018" style="fill:none;stroke:#000000;stroke-dasharray:1.000000,3.000000;stroke-dashoffset:0.0;stroke-width:0.5;"/>
     </g>
     <g id="line2d_29">
      <g>
       <use style="stroke:#000000;stroke-width:0.5;" x="131.5878125" xlink:href="#m93b0483c22" y="386.8125"/>
      </g>
     </g>
     <g id="line2d_30">
      <g>
       <use style="stroke:#000000;stroke-width:0.5;" x="131.5878125" xlink:href="#m741efc42ff" y="28.90175"/>
      </g>
     </g>
     <g id="text_2">
      <!-- 20 -->
      <defs>
       <path d="
M19.1875 8.29688
L53.6094 8.29688
L53.6094 0
L7.32812 0
L7.32812 8.29688
Q12.9375 14.1094 22.625 23.8906
Q32.3281 33.6875 34.8125 36.5312
Q39.5469 41.8438 41.4219 45.5312
Q43.3125 49.2188 43.3125 52.7812
Q43.3125 58.5938 39.2344 62.25
Q35.1562 65.9219 28.6094 65.9219
Q23.9688 65.9219 18.8125 64.3125
Q13.6719 62.7031 7.8125 59.4219
L7.8125 69.3906
Q13.7656 71.7812 18.9375 73
Q24.125 74.2188 28.4219 74.2188
Q39.75 74.2188 46.4844 68.5469
Q53.2188 62.8906 53.2188 53.4219
Q53.2188 48.9219 51.5312 44.8906
Q49.8594 40.875 45.4062 35.4062
Q44.1875 33.9844 37.6406 27.2188
Q31.1094 20.4531 19.1875 8.29688" id="DejaVuSans-32"/>
      </defs>
      <g transform="translate(124.7909375 399.930625)scale(0.12 -0.12)">
       <use xlink:href="#DejaVuSans-32"/>
       <use x="63.623046875" xlink:href="#DejaVuSans-30"/>
      </g>
     </g>
    </g>
    <g id="xtick_3">
     <g id="line2d_31">
      <path clip-path="url(#p138e1d1e1b)" d="
M201.177 386.812
L201.177 28.9018" style="fill:none;stroke:#000000;stroke-dasharray:1.000000,3.000000;stroke-dashoffset:0.0;stroke-width:0.5;"/>
     </g>
     <g id="line2d_32">
      <g>
       <use style="stroke:#000000;stroke-width:0.5;" x="201.176875" xlink:href="#m93b0483c22" y="386.8125"/>
      </g>
     </g>
     <g id="line2d_33">
      <g>
       <use style="stroke:#000000;stroke-width:0.5;" x="201.176875" xlink:href="#m741efc42ff" y="28.90175"/>
      </g>
     </g>
     <g id="text_3">
      <!-- 40 -->
      <defs>
       <path d="
M37.7969 64.3125
L12.8906 25.3906
L37.7969 25.3906
z

M35.2031 72.9062
L47.6094 72.9062
L47.6094 25.3906
L58.0156 25.3906
L58.0156 17.1875
L47.6094 17.1875
L47.6094 0
L37.7969 0
L37.7969 17.1875
L4.89062 17.1875
L4.89062 26.7031
z
" id="DejaVuSans-34"/>
      </defs>
      <g transform="translate(194.23375 399.930625)scale(0.12 -0.12)">
       <use xlink:href="#DejaVuSans-34"/>
       <use x="63.623046875" xlink:href="#DejaVuSans-30"/>
      </g>
     </g>
    </g>
    <g id="xtick_4">
     <g id="line2d_34">
      <path clip-path="url(#p138e1d1e1b)" d="
M270.766 386.812
L270.766 28.9018" style="fill:none;stroke:#000000;stroke-dasharray:1.000000,3.000000;stroke-dashoffset:0.0;stroke-width:0.5;"/>
     </g>
     <g id="line2d_35">
      <g>
       <use style="stroke:#000000;stroke-width:0.5;" x="270.7659375" xlink:href="#m93b0483c22" y="386.8125"/>
      </g>
     </g>
     <g id="line2d_36">
      <g>
       <use style="stroke:#000000;stroke-width:0.5;" x="270.7659375" xlink:href="#m741efc42ff" y="28.90175"/>
      </g>
     </g>
     <g id="text_4">
      <!-- 60 -->
      <defs>
       <path d="
M33.0156 40.375
Q26.375 40.375 22.4844 35.8281
Q18.6094 31.2969 18.6094 23.3906
Q18.6094 15.5312 22.4844 10.9531
Q26.375 6.39062 33.0156 6.39062
Q39.6562 6.39062 43.5312 10.9531
Q47.4062 15.5312 47.4062 23.3906
Q47.4062 31.2969 43.5312 35.8281
Q39.6562 40.375 33.0156 40.375
M52.5938 71.2969
L52.5938 62.3125
Q48.875 64.0625 45.0938 64.9844
Q41.3125 65.9219 37.5938 65.9219
Q27.8281 65.9219 22.6719 59.3281
Q17.5312 52.7344 16.7969 39.4062
Q19.6719 43.6562 24.0156 45.9219
Q28.375 48.1875 33.5938 48.1875
Q44.5781 48.1875 50.9531 41.5156
Q57.3281 34.8594 57.3281 23.3906
Q57.3281 12.1562 50.6875 5.35938
Q44.0469 -1.42188 33.0156 -1.42188
Q20.3594 -1.42188 13.6719 8.26562
Q6.98438 17.9688 6.98438 36.375
Q6.98438 53.6562 15.1875 63.9375
Q23.3906 74.2188 37.2031 74.2188
Q40.9219 74.2188 44.7031 73.4844
Q48.4844 72.75 52.5938 71.2969" id="DejaVuSans-36"/>
      </defs>
      <g transform="translate(263.9484375 399.930625)scale(0.12 -0.12)">
       <use xlink:href="#DejaVuSans-36"/>
       <use x="63.623046875" xlink:href="#DejaVuSans-30"/>
      </g>
     </g>
    </g>
    <g id="xtick_5">
     <g id="line2d_37">
      <path clip-path="url(#p138e1d1e1b)" d="
M340.355 386.812
L340.355 28.9018" style="fill:none;stroke:#000000;stroke-dasharray:1.000000,3.000000;stroke-dashoffset:0.0;stroke-width:0.5;"/>
     </g>
     <g id="line2d_38">
      <g>
       <use style="stroke:#000000;stroke-width:0.5;" x="340.355" xlink:href="#m93b0483c22" y="386.8125"/>
      </g>
     </g>
     <g id="line2d_39">
      <g>
       <use style="stroke:#000000;stroke-width:0.5;" x="340.355" xlink:href="#m741efc42ff" y="28.90175"/>
      </g>
     </g>
     <g id="text_5">
      <!-- 80 -->
      <defs>
       <path d="
M31.7812 34.625
Q24.75 34.625 20.7188 30.8594
Q16.7031 27.0938 16.7031 20.5156
Q16.7031 13.9219 20.7188 10.1562
Q24.75 6.39062 31.7812 6.39062
Q38.8125 6.39062 42.8594 10.1719
Q46.9219 13.9688 46.9219 20.5156
Q46.9219 27.0938 42.8906 30.8594
Q38.875 34.625 31.7812 34.625
M21.9219 38.8125
Q15.5781 40.375 12.0312 44.7188
Q8.5 49.0781 8.5 55.3281
Q8.5 64.0625 14.7188 69.1406
Q20.9531 74.2188 31.7812 74.2188
Q42.6719 74.2188 48.875 69.1406
Q55.0781 64.0625 55.0781 55.3281
Q55.0781 49.0781 51.5312 44.7188
Q48 40.375 41.7031 38.8125
Q48.8281 37.1562 52.7969 32.3125
Q56.7812 27.4844 56.7812 20.5156
Q56.7812 9.90625 50.3125 4.23438
Q43.8438 -1.42188 31.7812 -1.42188
Q19.7344 -1.42188 13.25 4.23438
Q6.78125 9.90625 6.78125 20.5156
Q6.78125 27.4844 10.7812 32.3125
Q14.7969 37.1562 21.9219 38.8125
M18.3125 54.3906
Q18.3125 48.7344 21.8438 45.5625
Q25.3906 42.3906 31.7812 42.3906
Q38.1406 42.3906 41.7188 45.5625
Q45.3125 48.7344 45.3125 54.3906
Q45.3125 60.0625 41.7188 63.2344
Q38.1406 66.4062 31.7812 66.4062
Q25.3906 66.4062 21.8438 63.2344
Q18.3125 60.0625 18.3125 54.3906" id="DejaVuSans-38"/>
      </defs>
      <g transform="translate(333.5253125 399.930625)scale(0.12 -0.12)">
       <use xlink:href="#DejaVuSans-38"/>
       <use x="63.623046875" xlink:href="#DejaVuSans-30"/>
      </g>
     </g>
    </g>
    <g id="xtick_6">
     <g id="line2d_40">
      <path clip-path="url(#p138e1d1e1b)" d="
M409.944 386.812
L409.944 28.9018" style="fill:none;stroke:#000000;stroke-dasharray:1.000000,3.000000;stroke-dashoffset:0.0;stroke-width:0.5;"/>
     </g>
     <g id="line2d_41">
      <g>
       <use style="stroke:#000000;stroke-width:0.5;" x="409.9440625" xlink:href="#m93b0483c22" y="386.8125"/>
      </g>
     </g>
     <g id="line2d_42">
      <g>
       <use style="stroke:#000000;stroke-width:0.5;" x="409.9440625" xlink:href="#m741efc42ff" y="28.90175"/>
      </g>
     </g>
     <g id="text_6">
      <!-- 100 -->
      <defs>
       <path d="
M12.4062 8.29688
L28.5156 8.29688
L28.5156 63.9219
L10.9844 60.4062
L10.9844 69.3906
L28.4219 72.9062
L38.2812 72.9062
L38.2812 8.29688
L54.3906 8.29688
L54.3906 0
L12.4062 0
z
" id="DejaVuSans-31"/>
      </defs>
      <g transform="translate(399.5490625 399.930625)scale(0.12 -0.12)">
       <use xlink:href="#DejaVuSans-31"/>
       <use x="63.623046875" xlink:href="#DejaVuSans-30"/>
       <use x="127.24609375" xlink:href="#DejaVuSans-30"/>
      </g>
     </g>
    </g>
    <g id="xtick_7">
     <g id="line2d_43">
      <path clip-path="url(#p138e1d1e1b)" d="
M479.533 386.812
L479.533 28.9018" style="fill:none;stroke:#000000;stroke-dasharray:1.000000,3.000000;stroke-dashoffset:0.0;stroke-width:0.5;"/>
     </g>
     <g id="line2d_44">
      <g>
       <use style="stroke:#000000;stroke-width:0.5;" x="479.533125" xlink:href="#m93b0483c22" y="386.8125"/>
      </g>
     </g>
     <g id="line2d_45">
      <g>
       <use style="stroke:#000000;stroke-width:0.5;" x="479.533125" xlink:href="#m741efc42ff" y="28.90175"/>
      </g>
     </g>
     <g id="text_7">
      <!-- 120 -->
      <g transform="translate(469.138125 399.930625)scale(0.12 -0.12)">
       <use xlink:href="#DejaVuSans-31"/>
       <use x="63.623046875" xlink:href="#DejaVuSans-32"/>
       <use x="127.24609375" xlink:href="#DejaVuSans-30"/>
      </g>
     </g>
    </g>
    <g id="xtick_8">
     <g id="line2d_46">
      <path clip-path="url(#p138e1d1e1b)" d="
M549.122 386.812
L549.122 28.9018" style="fill:none;stroke:#000000;stroke-dasharray:1.000000,3.000000;stroke-dashoffset:0.0;stroke-width:0.5;"/>
     </g>
     <g id="line2d_47">
      <g>
       <use style="stroke:#000000;stroke-width:0.5;" x="549.1221875" xlink:href="#m93b0483c22" y="386.8125"/>
      </g>
     </g>
     <g id="line2d_48">
      <g>
       <use style="stroke:#000000;stroke-width:0.5;" x="549.1221875" xlink:href="#m741efc42ff" y="28.90175"/>
      </g>
     </g>
     <g id="text_8">
      <!-- 140 -->
      <g transform="translate(538.7271875 399.930625)scale(0.12 -0.12)">
       <use xlink:href="#DejaVuSans-31"/>
       <use x="63.623046875" xlink:href="#DejaVuSans-34"/>
       <use x="127.24609375" xlink:href="#DejaVuSans-30"/>
      </g>
     </g>
    </g>
    <g id="text_9">
     <!-- Time (5s) -->
     <defs>
      <path d="
M8.01562 75.875
L15.8281 75.875
Q23.1406 64.3594 26.7812 53.3125
Q30.4219 42.2812 30.4219 31.3906
Q30.4219 20.4531 26.7812 9.375
Q23.1406 -1.70312 15.8281 -13.1875
L8.01562 -13.1875
Q14.5 -2 17.7031 9.0625
Q20.9062 20.125 20.9062 31.3906
Q20.9062 42.6719 17.7031 53.6562
Q14.5 64.6562 8.01562 75.875" id="DejaVuSans-29"/>
      <path d="
M52 44.1875
Q55.375 50.25 60.0625 53.125
Q64.75 56 71.0938 56
Q79.6406 56 84.2812 50.0156
Q88.9219 44.0469 88.9219 33.0156
L88.9219 0
L79.8906 0
L79.8906 32.7188
Q79.8906 40.5781 77.0938 44.375
Q74.3125 48.1875 68.6094 48.1875
Q61.625 48.1875 57.5625 43.5469
Q53.5156 38.9219 53.5156 30.9062
L53.5156 0
L44.4844 0
L44.4844 32.7188
Q44.4844 40.625 41.7031 44.4062
Q38.9219 48.1875 33.1094 48.1875
Q26.2188 48.1875 22.1562 43.5312
Q18.1094 38.875 18.1094 30.9062
L18.1094 0
L9.07812 0
L9.07812 54.6875
L18.1094 54.6875
L18.1094 46.1875
Q21.1875 51.2188 25.4844 53.6094
Q29.7812 56 35.6875 56
Q41.6562 56 45.8281 52.9688
Q50 49.9531 52 44.1875" id="DejaVuSans-6d"/>
      <path id="DejaVuSans-20"/>
      <path d="
M10.7969 72.9062
L49.5156 72.9062
L49.5156 64.5938
L19.8281 64.5938
L19.8281 46.7344
Q21.9688 47.4688 24.1094 47.8281
Q26.2656 48.1875 28.4219 48.1875
Q40.625 48.1875 47.75 41.5
Q54.8906 34.8125 54.8906 23.3906
Q54.8906 11.625 47.5625 5.09375
Q40.2344 -1.42188 26.9062 -1.42188
Q22.3125 -1.42188 17.5469 -0.640625
Q12.7969 0.140625 7.71875 1.70312
L7.71875 11.625
Q12.1094 9.23438 16.7969 8.0625
Q21.4844 6.89062 26.7031 6.89062
Q35.1562 6.89062 40.0781 11.3281
Q45.0156 15.7656 45.0156 23.3906
Q45.0156 31 40.0781 35.4375
Q35.1562 39.8906 26.7031 39.8906
Q22.75 39.8906 18.8125 39.0156
Q14.8906 38.1406 10.7969 36.2812
z
" id="DejaVuSans-35"/>
      <path d="
M9.42188 54.6875
L18.4062 54.6875
L18.4062 0
L9.42188 0
z

M9.42188 75.9844
L18.4062 75.9844
L18.4062 64.5938
L9.42188 64.5938
z
" id="DejaVuSans-69"/>
      <path d="
M31 75.875
Q24.4688 64.6562 21.2812 53.6562
Q18.1094 42.6719 18.1094 31.3906
Q18.1094 20.125 21.3125 9.0625
Q24.5156 -2 31 -13.1875
L23.1875 -13.1875
Q15.875 -1.70312 12.2344 9.375
Q8.59375 20.4531 8.59375 31.3906
Q8.59375 42.2812 12.2031 53.3125
Q15.8281 64.3594 23.1875 75.875
z
" id="DejaVuSans-28"/>
      <path d="
M56.2031 29.5938
L56.2031 25.2031
L14.8906 25.2031
Q15.4844 15.9219 20.4844 11.0625
Q25.4844 6.20312 34.4219 6.20312
Q39.5938 6.20312 44.4531 7.46875
Q49.3125 8.73438 54.1094 11.2812
L54.1094 2.78125
Q49.2656 0.734375 44.1875 -0.34375
Q39.1094 -1.42188 33.8906 -1.42188
Q20.7969 -1.42188 13.1562 6.1875
Q5.51562 13.8125 5.51562 26.8125
Q5.51562 40.2344 12.7656 48.1094
Q20.0156 56 32.3281 56
Q43.3594 56 49.7812 48.8906
Q56.2031 41.7969 56.2031 29.5938
M47.2188 32.2344
Q47.125 39.5938 43.0938 43.9844
Q39.0625 48.3906 32.4219 48.3906
Q24.9062 48.3906 20.3906 44.1406
Q15.875 39.8906 15.1875 32.1719
z
" id="DejaVuSans-65"/>
      <path d="
M44.2812 53.0781
L44.2812 44.5781
Q40.4844 46.5312 36.375 47.5
Q32.2812 48.4844 27.875 48.4844
Q21.1875 48.4844 17.8438 46.4375
Q14.5 44.3906 14.5 40.2812
Q14.5 37.1562 16.8906 35.375
Q19.2812 33.5938 26.5156 31.9844
L29.5938 31.2969
Q39.1562 29.25 43.1875 25.5156
Q47.2188 21.7812 47.2188 15.0938
Q47.2188 7.46875 41.1875 3.01562
Q35.1562 -1.42188 24.6094 -1.42188
Q20.2188 -1.42188 15.4531 -0.5625
Q10.6875 0.296875 5.42188 2
L5.42188 11.2812
Q10.4062 8.6875 15.2344 7.39062
Q20.0625 6.10938 24.8125 6.10938
Q31.1562 6.10938 34.5625 8.28125
Q37.9844 10.4531 37.9844 14.4062
Q37.9844 18.0625 35.5156 20.0156
Q33.0625 21.9688 24.7031 23.7812
L21.5781 24.5156
Q13.2344 26.2656 9.51562 29.9062
Q5.8125 33.5469 5.8125 39.8906
Q5.8125 47.6094 11.2812 51.7969
Q16.75 56 26.8125 56
Q31.7812 56 36.1719 55.2656
Q40.5781 54.5469 44.2812 53.0781" id="DejaVuSans-73"/>
      <path d="
M-0.296875 72.9062
L61.375 72.9062
L61.375 64.5938
L35.5 64.5938
L35.5 0
L25.5938 0
L25.5938 64.5938
L-0.296875 64.5938
z
" id="DejaVuSans-54"/>
     </defs>
     <g transform="translate(284.805 416.544375)scale(0.12 -0.12)">
      <use xlink:href="#DejaVuSans-54"/>
      <use x="57.958984375" xlink:href="#DejaVuSans-69"/>
      <use x="85.7421875" xlink:href="#DejaVuSans-6d"/>
      <use x="183.154296875" xlink:href="#DejaVuSans-65"/>
      <use x="244.677734375" xlink:href="#DejaVuSans-20"/>
      <use x="276.46484375" xlink:href="#DejaVuSans-28"/>
      <use x="315.478515625" xlink:href="#DejaVuSans-35"/>
      <use x="379.1015625" xlink:href="#DejaVuSans-73"/>
      <use x="431.201171875" xlink:href="#DejaVuSans-29"/>
     </g>
    </g>
   </g>
   <g id="matplotlib.axis_2">
    <g id="ytick_1">
     <g id="text_10">
      <!-- 0 -->
      <g transform="translate(51.951875 390.282944493)scale(0.12 -0.12)">
       <use xlink:href="#DejaVuSans-30"/>
      </g>
     </g>
    </g>
    <g id="ytick_2">
     <g id="line2d_49">
      <path clip-path="url(#p138e1d1e1b)" d="
M61.9988 340.828
L563.04 340.828" style="fill:none;stroke:#000000;stroke-dasharray:1.000000,3.000000;stroke-dashoffset:0.0;stroke-width:0.5;"/>
     </g>
     <g id="line2d_50">
      <defs>
       <path d="
M0 0
L4 0" id="m728421d6d4" style="stroke:#000000;stroke-width:0.5;"/>
      </defs>
      <g>
       <use style="stroke:#000000;stroke-width:0.5;" x="61.99875" xlink:href="#m728421d6d4" y="340.828363094"/>
      </g>
     </g>
     <g id="line2d_51">
      <defs>
       <path d="
M0 0
L-4 0" id="mcb0005524f" style="stroke:#000000;stroke-width:0.5;"/>
      </defs>
      <g>
       <use style="stroke:#000000;stroke-width:0.5;" x="563.04" xlink:href="#mcb0005524f" y="340.828363094"/>
      </g>
     </g>
     <g id="text_11">
      <!-- 200 -->
      <g transform="translate(36.77 344.139613094)scale(0.12 -0.12)">
       <use xlink:href="#DejaVuSans-32"/>
       <use x="63.623046875" xlink:href="#DejaVuSans-30"/>
       <use x="127.24609375" xlink:href="#DejaVuSans-30"/>
      </g>
     </g>
    </g>
    <g id="ytick_3">
     <g id="line2d_52">
      <path clip-path="url(#p138e1d1e1b)" d="
M61.9988 294.685
L563.04 294.685" style="fill:none;stroke:#000000;stroke-dasharray:1.000000,3.000000;stroke-dashoffset:0.0;stroke-width:0.5;"/>
     </g>
     <g id="line2d_53">
      <g>
       <use style="stroke:#000000;stroke-width:0.5;" x="61.99875" xlink:href="#m728421d6d4" y="294.685031694"/>
      </g>
     </g>
     <g id="line2d_54">
      <g>
       <use style="stroke:#000000;stroke-width:0.5;" x="563.04" xlink:href="#mcb0005524f" y="294.685031694"/>
      </g>
     </g>
     <g id="text_12">
      <!-- 400 -->
      <g transform="translate(36.4775 297.996281694)scale(0.12 -0.12)">
       <use xlink:href="#DejaVuSans-34"/>
       <use x="63.623046875" xlink:href="#DejaVuSans-30"/>
       <use x="127.24609375" xlink:href="#DejaVuSans-30"/>
      </g>
     </g>
    </g>
    <g id="ytick_4">
     <g id="line2d_55">
      <path clip-path="url(#p138e1d1e1b)" d="
M61.9988 248.542
L563.04 248.542" style="fill:none;stroke:#000000;stroke-dasharray:1.000000,3.000000;stroke-dashoffset:0.0;stroke-width:0.5;"/>
     </g>
     <g id="line2d_56">
      <g>
       <use style="stroke:#000000;stroke-width:0.5;" x="61.99875" xlink:href="#m728421d6d4" y="248.541700295"/>
      </g>
     </g>
     <g id="line2d_57">
      <g>
       <use style="stroke:#000000;stroke-width:0.5;" x="563.04" xlink:href="#mcb0005524f" y="248.541700295"/>
      </g>
     </g>
     <g id="text_13">
      <!-- 600 -->
      <g transform="translate(36.72875 251.852950295)scale(0.12 -0.12)">
       <use xlink:href="#DejaVuSans-36"/>
       <use x="63.623046875" xlink:href="#DejaVuSans-30"/>
       <use x="127.24609375" xlink:href="#DejaVuSans-30"/>
      </g>
     </g>
    </g>
    <g id="ytick_5">
     <g id="line2d_58">
      <path clip-path="url(#p138e1d1e1b)" d="
M61.9988 202.398
L563.04 202.398" style="fill:none;stroke:#000000;stroke-dasharray:1.000000,3.000000;stroke-dashoffset:0.0;stroke-width:0.5;"/>
     </g>
     <g id="line2d_59">
      <g>
       <use style="stroke:#000000;stroke-width:0.5;" x="61.99875" xlink:href="#m728421d6d4" y="202.398368895"/>
      </g>
     </g>
     <g id="line2d_60">
      <g>
       <use style="stroke:#000000;stroke-width:0.5;" x="563.04" xlink:href="#mcb0005524f" y="202.398368895"/>
      </g>
     </g>
     <g id="text_14">
      <!-- 800 -->
      <g transform="translate(36.704375 205.709618895)scale(0.12 -0.12)">
       <use xlink:href="#DejaVuSans-38"/>
       <use x="63.623046875" xlink:href="#DejaVuSans-30"/>
       <use x="127.24609375" xlink:href="#DejaVuSans-30"/>
      </g>
     </g>
    </g>
    <g id="ytick_6">
     <g id="line2d_61">
      <path clip-path="url(#p138e1d1e1b)" d="
M61.9988 156.255
L563.04 156.255" style="fill:none;stroke:#000000;stroke-dasharray:1.000000,3.000000;stroke-dashoffset:0.0;stroke-width:0.5;"/>
     </g>
     <g id="line2d_62">
      <g>
       <use style="stroke:#000000;stroke-width:0.5;" x="61.99875" xlink:href="#m728421d6d4" y="156.255037496"/>
      </g>
     </g>
     <g id="line2d_63">
      <g>
       <use style="stroke:#000000;stroke-width:0.5;" x="563.04" xlink:href="#mcb0005524f" y="156.255037496"/>
      </g>
     </g>
     <g id="text_15">
      <!-- 1000 -->
      <g transform="translate(29.57375 159.566287496)scale(0.12 -0.12)">
       <use xlink:href="#DejaVuSans-31"/>
       <use x="63.623046875" xlink:href="#DejaVuSans-30"/>
       <use x="127.24609375" xlink:href="#DejaVuSans-30"/>
       <use x="190.869140625" xlink:href="#DejaVuSans-30"/>
      </g>
     </g>
    </g>
    <g id="ytick_7">
     <g id="line2d_64">
      <path clip-path="url(#p138e1d1e1b)" d="
M61.9988 110.112
L563.04 110.112" style="fill:none;stroke:#000000;stroke-dasharray:1.000000,3.000000;stroke-dashoffset:0.0;stroke-width:0.5;"/>
     </g>
     <g id="line2d_65">
      <g>
       <use style="stroke:#000000;stroke-width:0.5;" x="61.99875" xlink:href="#m728421d6d4" y="110.111706096"/>
      </g>
     </g>
     <g id="line2d_66">
      <g>
       <use style="stroke:#000000;stroke-width:0.5;" x="563.04" xlink:href="#mcb0005524f" y="110.111706096"/>
      </g>
     </g>
     <g id="text_16">
      <!-- 1200 -->
      <g transform="translate(29.57375 113.422956096)scale(0.12 -0.12)">
       <use xlink:href="#DejaVuSans-31"/>
       <use x="63.623046875" xlink:href="#DejaVuSans-32"/>
       <use x="127.24609375" xlink:href="#DejaVuSans-30"/>
       <use x="190.869140625" xlink:href="#DejaVuSans-30"/>
      </g>
     </g>
    </g>
    <g id="ytick_8">
     <g id="line2d_67">
      <path clip-path="url(#p138e1d1e1b)" d="
M61.9988 63.9684
L563.04 63.9684" style="fill:none;stroke:#000000;stroke-dasharray:1.000000,3.000000;stroke-dashoffset:0.0;stroke-width:0.5;"/>
     </g>
     <g id="line2d_68">
      <g>
       <use style="stroke:#000000;stroke-width:0.5;" x="61.99875" xlink:href="#m728421d6d4" y="63.968374697"/>
      </g>
     </g>
     <g id="line2d_69">
      <g>
       <use style="stroke:#000000;stroke-width:0.5;" x="563.04" xlink:href="#mcb0005524f" y="63.968374697"/>
      </g>
     </g>
     <g id="text_17">
      <!-- 1400 -->
      <g transform="translate(29.57375 67.279624697)scale(0.12 -0.12)">
       <use xlink:href="#DejaVuSans-31"/>
       <use x="63.623046875" xlink:href="#DejaVuSans-34"/>
       <use x="127.24609375" xlink:href="#DejaVuSans-30"/>
       <use x="190.869140625" xlink:href="#DejaVuSans-30"/>
      </g>
     </g>
    </g>
    <g id="text_18">
     <!-- op/s -->
     <defs>
      <path d="
M30.6094 48.3906
Q23.3906 48.3906 19.1875 42.75
Q14.9844 37.1094 14.9844 27.2969
Q14.9844 17.4844 19.1562 11.8438
Q23.3438 6.20312 30.6094 6.20312
Q37.7969 6.20312 41.9844 11.8594
Q46.1875 17.5312 46.1875 27.2969
Q46.1875 37.0156 41.9844 42.7031
Q37.7969 48.3906 30.6094 48.3906
M30.6094 56
Q42.3281 56 49.0156 48.375
Q55.7188 40.7656 55.7188 27.2969
Q55.7188 13.875 49.0156 6.21875
Q42.3281 -1.42188 30.6094 -1.42188
Q18.8438 -1.42188 12.1719 6.21875
Q5.51562 13.875 5.51562 27.2969
Q5.51562 40.7656 12.1719 48.375
Q18.8438 56 30.6094 56" id="DejaVuSans-6f"/>
      <path d="
M25.3906 72.9062
L33.6875 72.9062
L8.29688 -9.28125
L0 -9.28125
z
" id="DejaVuSans-2f"/>
      <path d="
M18.1094 8.20312
L18.1094 -20.7969
L9.07812 -20.7969
L9.07812 54.6875
L18.1094 54.6875
L18.1094 46.3906
Q20.9531 51.2656 25.2656 53.625
Q29.5938 56 35.5938 56
Q45.5625 56 51.7812 48.0938
Q58.0156 40.1875 58.0156 27.2969
Q58.0156 14.4062 51.7812 6.48438
Q45.5625 -1.42188 35.5938 -1.42188
Q29.5938 -1.42188 25.2656 0.953125
Q20.9531 3.32812 18.1094 8.20312
M48.6875 27.2969
Q48.6875 37.2031 44.6094 42.8438
Q40.5312 48.4844 33.4062 48.4844
Q26.2656 48.4844 22.1875 42.8438
Q18.1094 37.2031 18.1094 27.2969
Q18.1094 17.3906 22.1875 11.75
Q26.2656 6.10938 33.4062 6.10938
Q40.5312 6.10938 44.6094 11.75
Q48.6875 17.3906 48.6875 27.2969" id="DejaVuSans-70"/>
     </defs>
     <g transform="translate(22.078125 219.860875)rotate(-90.0)scale(0.12 -0.12)">
      <use xlink:href="#DejaVuSans-6f"/>
      <use x="61.181640625" xlink:href="#DejaVuSans-70"/>
      <use x="124.658203125" xlink:href="#DejaVuSans-2f"/>
      <use x="158.349609375" xlink:href="#DejaVuSans-73"/>
     </g>
    </g>
   </g>
   <g id="patch_3">
    <path d="
M61.9988 28.9018
L563.04 28.9018" style="fill:none;stroke:#000000;"/>
   </g>
   <g id="patch_4">
    <path d="
M563.04 386.812
L563.04 28.9018" style="fill:none;stroke:#000000;"/>
   </g>
   <g id="patch_5">
    <path d="
M61.9988 386.812
L563.04 386.812" style="fill:none;stroke:#000000;"/>
   </g>
   <g id="patch_6">
    <path d="
M61.9988 386.812
L61.9988 28.9018" style="fill:none;stroke:#000000;"/>
   </g>
   <g id="text_19">
    <!-- 1 cont - 4kb - r:80% w:15% d:5% - Read throughput -->
    <defs>
     <path d="
M11.7188 12.4062
L22.0156 12.4062
L22.0156 0
L11.7188 0
z

M11.7188 51.7031
L22.0156 51.7031
L22.0156 39.3125
L11.7188 39.3125
z
" id="DejaVuSans-3a"/>
     <path d="
M4.89062 31.3906
L31.2031 31.3906
L31.2031 23.3906
L4.89062 23.3906
z
" id="DejaVuSans-2d"/>
     <path d="
M45.4062 46.3906
L45.4062 75.9844
L54.3906 75.9844
L54.3906 0
L45.4062 0
L45.4062 8.20312
Q42.5781 3.32812 38.25 0.953125
Q33.9375 -1.42188 27.875 -1.42188
Q17.9688 -1.42188 11.7344 6.48438
Q5.51562 14.4062 5.51562 27.2969
Q5.51562 40.1875 11.7344 48.0938
Q17.9688 56 27.875 56
Q33.9375 56 38.25 53.625
Q42.5781 51.2656 45.4062 46.3906
M14.7969 27.2969
Q14.7969 17.3906 18.875 11.75
Q22.9531 6.10938 30.0781 6.10938
Q37.2031 6.10938 41.2969 11.75
Q45.4062 17.3906 45.4062 27.2969
Q45.4062 37.2031 41.2969 42.8438
Q37.2031 48.4844 30.0781 48.4844
Q22.9531 48.4844 18.875 42.8438
Q14.7969 37.2031 14.7969 27.2969" id="DejaVuSans-64"/>
     <path d="
M54.8906 33.0156
L54.8906 0
L45.9062 0
L45.9062 32.7188
Q45.9062 40.4844 42.875 44.3281
Q39.8438 48.1875 33.7969 48.1875
Q26.5156 48.1875 22.3125 43.5469
Q18.1094 38.9219 18.1094 30.9062
L18.1094 0
L9.07812 0
L9.07812 54.6875
L18.1094 54.6875
L18.1094 46.1875
Q21.3438 51.125 25.7031 53.5625
Q30.0781 56 35.7969 56
Q45.2188 56 50.0469 50.1719
Q54.8906 44.3438 54.8906 33.0156" id="DejaVuSans-6e"/>
     <path d="
M9.07812 75.9844
L18.1094 75.9844
L18.1094 31.1094
L44.9219 54.6875
L56.3906 54.6875
L27.3906 29.1094
L57.625 0
L45.9062 0
L18.1094 26.7031
L18.1094 0
L9.07812 0
z
" id="DejaVuSans-6b"/>
     <path d="
M44.3906 34.1875
Q47.5625 33.1094 50.5625 29.5938
Q53.5625 26.0781 56.5938 19.9219
L66.6094 0
L56 0
L46.6875 18.7031
Q43.0625 26.0312 39.6719 28.4219
Q36.2812 30.8125 30.4219 30.8125
L19.6719 30.8125
L19.6719 0
L9.8125 0
L9.8125 72.9062
L32.0781 72.9062
Q44.5781 72.9062 50.7344 67.6719
Q56.8906 62.4531 56.8906 51.9062
Q56.8906 45.0156 53.6875 40.4688
Q50.4844 35.9375 44.3906 34.1875
M19.6719 64.7969
L19.6719 38.9219
L32.0781 38.9219
Q39.2031 38.9219 42.8438 42.2188
Q46.4844 45.5156 46.4844 51.9062
Q46.4844 58.2969 42.8438 61.5469
Q39.2031 64.7969 32.0781 64.7969
z
" id="DejaVuSans-52"/>
     <path d="
M45.4062 27.9844
Q45.4062 37.75 41.375 43.1094
Q37.3594 48.4844 30.0781 48.4844
Q22.8594 48.4844 18.8281 43.1094
Q14.7969 37.75 14.7969 27.9844
Q14.7969 18.2656 18.8281 12.8906
Q22.8594 7.51562 30.0781 7.51562
Q37.3594 7.51562 41.375 12.8906
Q45.4062 18.2656 45.4062 27.9844
M54.3906 6.78125
Q54.3906 -7.17188 48.1875 -13.9844
Q42 -20.7969 29.2031 -20.7969
Q24.4688 -20.7969 20.2656 -20.0938
Q16.0625 -19.3906 12.1094 -17.9219
L12.1094 -9.1875
Q16.0625 -11.3281 19.9219 -12.3438
Q23.7812 -13.375 27.7812 -13.375
Q36.625 -13.375 41.0156 -8.76562
Q45.4062 -4.15625 45.4062 5.17188
L45.4062 9.625
Q42.625 4.78125 38.2812 2.39062
Q33.9375 0 27.875 0
Q17.8281 0 11.6719 7.65625
Q5.51562 15.3281 5.51562 27.9844
Q5.51562 40.6719 11.6719 48.3281
Q17.8281 56 27.875 56
Q33.9375 56 38.2812 53.6094
Q42.625 51.2188 45.4062 46.3906
L45.4062 54.6875
L54.3906 54.6875
z
" id="DejaVuSans-67"/>
     <path d="
M54.8906 33.0156
L54.8906 0
L45.9062 0
L45.9062 32.7188
Q45.9062 40.4844 42.875 44.3281
Q39.8438 48.1875 33.7969 48.1875
Q26.5156 48.1875 22.3125 43.5469
Q18.1094 38.9219 18.1094 30.9062
L18.1094 0
L9.07812 0
L9.07812 75.9844
L18.1094 75.9844
L18.1094 46.1875
Q21.3438 51.125 25.7031 53.5625
Q30.0781 56 35.7969 56
Q45.2188 56 50.0469 50.1719
Q54.8906 44.3438 54.8906 33.0156" id="DejaVuSans-68"/>
     <path d="
M72.7031 32.0781
Q68.4531 32.0781 66.0312 28.4688
Q63.625 24.8594 63.625 18.4062
Q63.625 12.0625 66.0312 8.42188
Q68.4531 4.78125 72.7031 4.78125
Q76.8594 4.78125 79.2656 8.42188
Q81.6875 12.0625 81.6875 18.4062
Q81.6875 24.8125 79.2656 28.4375
Q76.8594 32.0781 72.7031 32.0781
M72.7031 38.2812
Q80.4219 38.2812 84.9531 32.9062
Q89.5 27.5469 89.5 18.4062
Q89.5 9.28125 84.9375 3.92188
Q80.375 -1.42188 72.7031 -1.42188
Q64.8906 -1.42188 60.3438 3.92188
Q55.8125 9.28125 55.8125 18.4062
Q55.8125 27.5938 60.375 32.9375
Q64.9375 38.2812 72.7031 38.2812
M22.3125 68.0156
Q18.1094 68.0156 15.6875 64.375
Q13.2812 60.75 13.2812 54.3906
Q13.2812 47.9531 15.6719 44.3281
Q18.0625 40.7188 22.3125 40.7188
Q26.5625 40.7188 28.9688 44.3281
Q31.3906 47.9531 31.3906 54.3906
Q31.3906 60.6875 28.9531 64.3438
Q26.5156 68.0156 22.3125 68.0156
M66.4062 74.2188
L74.2188 74.2188
L28.6094 -1.42188
L20.7969 -1.42188
z

M22.3125 74.2188
Q30.0312 74.2188 34.6094 68.875
Q39.2031 63.5312 39.2031 54.3906
Q39.2031 45.1719 34.6406 39.8438
Q30.0781 34.5156 22.3125 34.5156
Q14.5469 34.5156 10.0312 39.8594
Q5.51562 45.2188 5.51562 54.3906
Q5.51562 63.4844 10.0469 68.8438
Q14.5938 74.2188 22.3125 74.2188" id="DejaVuSans-25"/>
     <path d="
M8.5 21.5781
L8.5 54.6875
L17.4844 54.6875
L17.4844 21.9219
Q17.4844 14.1562 20.5 10.2656
Q23.5312 6.39062 29.5938 6.39062
Q36.8594 6.39062 41.0781 11.0312
Q45.3125 15.6719 45.3125 23.6875
L45.3125 54.6875
L54.2969 54.6875
L54.2969 0
L45.3125 0
L45.3125 8.40625
Q42.0469 3.42188 37.7188 1
Q33.4062 -1.42188 27.6875 -1.42188
Q18.2656 -1.42188 13.375 4.4375
Q8.5 10.2969 8.5 21.5781
M31.1094 56
z
" id="DejaVuSans-75"/>
     <path d="
M18.3125 70.2188
L18.3125 54.6875
L36.8125 54.6875
L36.8125 47.7031
L18.3125 47.7031
L18.3125 18.0156
Q18.3125 11.3281 20.1406 9.42188
Q21.9688 7.51562 27.5938 7.51562
L36.8125 7.51562
L36.8125 0
L27.5938 0
Q17.1875 0 13.2344 3.875
Q9.28125 7.76562 9.28125 18.0156
L9.28125 47.7031
L2.6875 47.7031
L2.6875 54.6875
L9.28125 54.6875
L9.28125 70.2188
z
" id="DejaVuSans-74"/>
     <path d="
M4.20312 54.6875
L13.1875 54.6875
L24.4219 12.0156
L35.5938 54.6875
L46.1875 54.6875
L57.4219 12.0156
L68.6094 54.6875
L77.5938 54.6875
L63.2812 0
L52.6875 0
L40.9219 44.8281
L29.1094 0
L18.5 0
z
" id="DejaVuSans-77"/>
     <path d="
M34.2812 27.4844
Q23.3906 27.4844 19.1875 25
Q14.9844 22.5156 14.9844 16.5
Q14.9844 11.7188 18.1406 8.90625
Q21.2969 6.10938 26.7031 6.10938
Q34.1875 6.10938 38.7031 11.4062
Q43.2188 16.7031 43.2188 25.4844
L43.2188 27.4844
z

M52.2031 31.2031
L52.2031 0
L43.2188 0
L43.2188 8.29688
Q40.1406 3.32812 35.5469 0.953125
Q30.9531 -1.42188 24.3125 -1.42188
Q15.9219 -1.42188 10.9531 3.29688
Q6 8.01562 6 15.9219
Q6 25.1406 12.1719 29.8281
Q18.3594 34.5156 30.6094 34.5156
L43.2188 34.5156
L43.2188 35.4062
Q43.2188 41.6094 39.1406 45
Q35.0625 48.3906 27.6875 48.3906
Q23 48.3906 18.5469 47.2656
Q14.1094 46.1406 10.0156 43.8906
L10.0156 52.2031
Q14.9375 54.1094 19.5781 55.0469
Q24.2188 56 28.6094 56
Q40.4844 56 46.3438 49.8438
Q52.2031 43.7031 52.2031 31.2031" id="DejaVuSans-61"/>
     <path d="
M48.6875 27.2969
Q48.6875 37.2031 44.6094 42.8438
Q40.5312 48.4844 33.4062 48.4844
Q26.2656 48.4844 22.1875 42.8438
Q18.1094 37.2031 18.1094 27.2969
Q18.1094 17.3906 22.1875 11.75
Q26.2656 6.10938 33.4062 6.10938
Q40.5312 6.10938 44.6094 11.75
Q48.6875 17.3906 48.6875 27.2969
M18.1094 46.3906
Q20.9531 51.2656 25.2656 53.625
Q29.5938 56 35.5938 56
Q45.5625 56 51.7812 48.0938
Q58.0156 40.1875 58.0156 27.2969
Q58.0156 14.4062 51.7812 6.48438
Q45.5625 -1.42188 35.5938 -1.42188
Q29.5938 -1.42188 25.2656 0.953125
Q20.9531 3.32812 18.1094 8.20312
L18.1094 0
L9.07812 0
L9.07812 75.9844
L18.1094 75.9844
z
" id="DejaVuSans-62"/>
     <path d="
M48.7812 52.5938
L48.7812 44.1875
Q44.9688 46.2969 41.1406 47.3438
Q37.3125 48.3906 33.4062 48.3906
Q24.6562 48.3906 19.8125 42.8438
Q14.9844 37.3125 14.9844 27.2969
Q14.9844 17.2812 19.8125 11.7344
Q24.6562 6.20312 33.4062 6.20312
Q37.3125 6.20312 41.1406 7.25
Q44.9688 8.29688 48.7812 10.4062
L48.7812 2.09375
Q45.0156 0.34375 40.9844 -0.53125
Q36.9688 -1.42188 32.4219 -1.42188
Q20.0625 -1.42188 12.7812 6.34375
Q5.51562 14.1094 5.51562 27.2969
Q5.51562 40.6719 12.8594 48.3281
Q20.2188 56 33.0156 56
Q37.1562 56 41.1094 55.1406
Q45.0625 54.2969 48.7812 52.5938" id="DejaVuSans-63"/>
     <path d="
M41.1094 46.2969
Q39.5938 47.1719 37.8125 47.5781
Q36.0312 48 33.8906 48
Q26.2656 48 22.1875 43.0469
Q18.1094 38.0938 18.1094 28.8125
L18.1094 0
L9.07812 0
L9.07812 54.6875
L18.1094 54.6875
L18.1094 46.1875
Q20.9531 51.1719 25.4844 53.5781
Q30.0312 56 36.5312 56
Q37.4531 56 38.5781 55.875
Q39.7031 55.7656 41.0625 55.5156
z
" id="DejaVuSans-72"/>
    </defs>
    <g transform="translate(126.4275 23.90175)scale(0.144 -0.144)">
     <use xlink:href="#DejaVuSans-31"/>
     <use x="63.623046875" xlink:href="#DejaVuSans-20"/>
     <use x="95.41015625" xlink:href="#DejaVuSans-63"/>
     <use x="150.390625" xlink:href="#DejaVuSans-6f"/>
     <use x="211.572265625" xlink:href="#DejaVuSans-6e"/>
     <use x="274.951171875" xlink:href="#DejaVuSans-74"/>
     <use x="314.16015625" xlink:href="#DejaVuSans-20"/>
     <use x="345.947265625" xlink:href="#DejaVuSans-2d"/>
     <use x="382.03125" xlink:href="#DejaVuSans-20"/>
     <use x="413.818359375" xlink:href="#DejaVuSans-34"/>
     <use x="477.44140625" xlink:href="#DejaVuSans-6b"/>
     <use x="535.3515625" xlink:href="#DejaVuSans-62"/>
     <use x="598.828125" xlink:href="#DejaVuSans-20"/>
     <use x="630.615234375" xlink:href="#DejaVuSans-2d"/>
     <use x="666.69921875" xlink:href="#DejaVuSans-20"/>
     <use x="698.486328125" xlink:href="#DejaVuSans-72"/>
     <use x="737.849609375" xlink:href="#DejaVuSans-3a"/>
     <use x="771.541015625" xlink:href="#DejaVuSans-38"/>
     <use x="835.1640625" xlink:href="#DejaVuSans-30"/>
     <use x="898.787109375" xlink:href="#DejaVuSans-25"/>
     <use x="993.806640625" xlink:href="#DejaVuSans-20"/>
     <use x="1025.59375" xlink:href="#DejaVuSans-77"/>
     <use x="1101.88085938" xlink:href="#DejaVuSans-3a"/>
     <use x="1135.57226562" xlink:href="#DejaVuSans-31"/>
     <use x="1199.1953125" xlink:href="#DejaVuSans-35"/>
     <use x="1262.81835938" xlink:href="#DejaVuSans-25"/>
     <use x="1357.83789062" xlink:href="#DejaVuSans-20"/>
     <use x="1389.625" xlink:href="#DejaVuSans-64"/>
     <use x="1453.1015625" xlink:href="#DejaVuSans-3a"/>
     <use x="1486.79296875" xlink:href="#DejaVuSans-35"/>
     <use x="1550.41601562" xlink:href="#DejaVuSans-25"/>
     <use x="1645.43554688" xlink:href="#DejaVuSans-20"/>
     <use x="1677.22265625" xlink:href="#DejaVuSans-2d"/>
     <use x="1713.30664062" xlink:href="#DejaVuSans-20"/>
     <use x="1745.09375" xlink:href="#DejaVuSans-52"/>
     <use x="1810.07617188" xlink:href="#DejaVuSans-65"/>
     <use x="1871.59960938" xlink:href="#DejaVuSans-61"/>
     <use x="1932.87890625" xlink:href="#DejaVuSans-64"/>
     <use x="1996.35546875" xlink:href="#DejaVuSans-20"/>
     <use x="2028.14257812" xlink:href="#DejaVuSans-74"/>
     <use x="2067.3515625" xlink:href="#DejaVuSans-68"/>
     <use x="2130.73046875" xlink:href="#DejaVuSans-72"/>
     <use x="2169.59375" xlink:href="#DejaVuSans-6f"/>
     <use x="2230.77539062" xlink:href="#DejaVuSans-75"/>
     <use x="2294.15429688" xlink:href="#DejaVuSans-67"/>
     <use x="2357.63085938" xlink:href="#DejaVuSans-68"/>
     <use x="2421.00976562" xlink:href="#DejaVuSans-70"/>
     <use x="2484.48632812" xlink:href="#DejaVuSans-75"/>
     <use x="2547.86523438" xlink:href="#DejaVuSans-74"/>
    </g>
   </g>
   <g id="legend_1">
    <g id="patch_7">
     <path d="
M157.961 81.8992
L557.34 81.8992
Q559.54 81.8992 559.54 79.6992
L559.54 31.4435
Q559.54 29.2435 557.34 29.2435
L157.961 29.2435
Q155.761 29.2435 155.761 31.4435
L155.761 79.6992
Q155.761 81.8992 157.961 81.8992
z
" style="fill:#4c4c4c;opacity:0.5;stroke:#4c4c4c;"/>
    </g>
    <g id="patch_8">
     <path d="
M155.961 79.8992
L555.34 79.8992
Q557.54 79.8992 557.54 77.6992
L557.54 29.4435
Q557.54 27.2435 555.34 27.2435
L155.961 27.2435
Q153.761 27.2435 153.761 29.4435
L153.761 77.6992
Q153.761 79.8992 155.961 79.8992
z
" style="fill:#ffffff;stroke:#000000;"/>
    </g>
    <g id="line2d_70">
     <path d="
M161.461 36.1518
L176.861 36.1518" style="fill:none;stroke:#ff0000;stroke-linecap:square;stroke-width:2.0;"/>
    </g>
    <g id="line2d_71"/>
    <g id="text_20">
     <!-- ceph_16 -->
     <defs>
      <path d="
M50.9844 -16.6094
L50.9844 -23.5781
L-0.984375 -23.5781
L-0.984375 -16.6094
z
" id="DejaVuSans-5f"/>
     </defs>
     <g transform="translate(188.9609375 40.00181625)scale(0.11 -0.11)">
      <use xlink:href="#DejaVuSans-63"/>
      <use x="54.98046875" xlink:href="#DejaVuSans-65"/>
      <use x="116.50390625" xlink:href="#DejaVuSans-70"/>
      <use x="179.98046875" xlink:href="#DejaVuSans-68"/>
      <use x="243.359375" xlink:href="#DejaVuSans-5f"/>
      <use x="293.359375" xlink:href="#DejaVuSans-31"/>
      <use x="356.982421875" xlink:href="#DejaVuSans-36"/>
     </g>
    </g>
    <g id="line2d_72">
     <path d="
M161.461 52.6037
L176.861 52.6037" style="fill:none;stroke:#00ff00;stroke-linecap:square;stroke-width:2.0;"/>
    </g>
    <g id="line2d_73"/>
    <g id="text_21">
     <!-- ceph_512 -->
     <g transform="translate(188.9609375 56.45369125)scale(0.11 -0.11)">
      <use xlink:href="#DejaVuSans-63"/>
      <use x="54.98046875" xlink:href="#DejaVuSans-65"/>
      <use x="116.50390625" xlink:href="#DejaVuSans-70"/>
      <use x="179.98046875" xlink:href="#DejaVuSans-68"/>
      <use x="243.359375" xlink:href="#DejaVuSans-5f"/>
      <use x="293.359375" xlink:href="#DejaVuSans-35"/>
      <use x="356.982421875" xlink:href="#DejaVuSans-31"/>
      <use x="420.60546875" xlink:href="#DejaVuSans-32"/>
     </g>
    </g>
    <g id="line2d_74">
     <path d="
M161.461 69.0556
L176.861 69.0556" style="fill:none;stroke:#0000ff;stroke-linecap:square;stroke-width:2.0;"/>
    </g>
    <g id="line2d_75"/>
    <g id="text_22">
     <!-- ceph_256 -->
     <g transform="translate(188.9609375 72.90556625)scale(0.11 -0.11)">
      <use xlink:href="#DejaVuSans-63"/>
      <use x="54.98046875" xlink:href="#DejaVuSans-65"/>
      <use x="116.50390625" xlink:href="#DejaVuSans-70"/>
      <use x="179.98046875" xlink:href="#DejaVuSans-68"/>
      <use x="243.359375" xlink:href="#DejaVuSans-5f"/>
      <use x="293.359375" xlink:href="#DejaVuSans-32"/>
      <use x="356.982421875" xlink:href="#DejaVuSans-35"/>
      <use x="420.60546875" xlink:href="#DejaVuSans-36"/>
     </g>
    </g>
    <g id="line2d_76">
     <path d="
M266.229 36.1518
L281.629 36.1518" style="fill:none;stroke:#ffff00;stroke-linecap:square;stroke-width:2.0;"/>
    </g>
    <g id="line2d_77"/>
    <g id="text_23">
     <!-- ceph_1 -->
     <g transform="translate(293.7290625 40.00181625)scale(0.11 -0.11)">
      <use xlink:href="#DejaVuSans-63"/>
      <use x="54.98046875" xlink:href="#DejaVuSans-65"/>
      <use x="116.50390625" xlink:href="#DejaVuSans-70"/>
      <use x="179.98046875" xlink:href="#DejaVuSans-68"/>
      <use x="243.359375" xlink:href="#DejaVuSans-5f"/>
      <use x="293.359375" xlink:href="#DejaVuSans-31"/>
     </g>
    </g>
    <g id="line2d_78">
     <path d="
M266.229 52.6037
L281.629 52.6037" style="fill:none;stroke:#ff00ff;stroke-linecap:square;stroke-width:2.0;"/>
    </g>
    <g id="line2d_79"/>
    <g id="text_24">
     <!-- ceph_128 -->
     <g transform="translate(293.7290625 56.45369125)scale(0.11 -0.11)">
      <use xlink:href="#DejaVuSans-63"/>
      <use x="54.98046875" xlink:href="#DejaVuSans-65"/>
      <use x="116.50390625" xlink:href="#DejaVuSans-70"/>
      <use x="179.98046875" xlink:href="#DejaVuSans-68"/>
      <use x="243.359375" xlink:href="#DejaVuSans-5f"/>
      <use x="293.359375" xlink:href="#DejaVuSans-31"/>
      <use x="356.982421875" xlink:href="#DejaVuSans-32"/>
      <use x="420.60546875" xlink:href="#DejaVuSans-38"/>
     </g>
    </g>
    <g id="line2d_80">
     <path d="
M266.229 69.0556
L281.629 69.0556" style="fill:none;stroke:#00ffff;stroke-linecap:square;stroke-width:2.0;"/>
    </g>
    <g id="line2d_81"/>
    <g id="text_25">
     <!-- ceph_64 -->
     <g transform="translate(293.7290625 72.90556625)scale(0.11 -0.11)">
      <use xlink:href="#DejaVuSans-63"/>
      <use x="54.98046875" xlink:href="#DejaVuSans-65"/>
      <use x="116.50390625" xlink:href="#DejaVuSans-70"/>
      <use x="179.98046875" xlink:href="#DejaVuSans-68"/>
      <use x="243.359375" xlink:href="#DejaVuSans-5f"/>
      <use x="293.359375" xlink:href="#DejaVuSans-36"/>
      <use x="356.982421875" xlink:href="#DejaVuSans-34"/>
     </g>
    </g>
    <g id="line2d_82">
     <path d="
M370.937 36.1518
L386.337 36.1518" style="fill:none;stroke:#000000;stroke-dasharray:6.000000,6.000000;stroke-dashoffset:0.0;stroke-width:2.0;"/>
    </g>
    <g id="line2d_83"/>
    <g id="text_26">
     <!-- swift_16 -->
     <defs>
      <path d="
M37.1094 75.9844
L37.1094 68.5
L28.5156 68.5
Q23.6875 68.5 21.7969 66.5469
Q19.9219 64.5938 19.9219 59.5156
L19.9219 54.6875
L34.7188 54.6875
L34.7188 47.7031
L19.9219 47.7031
L19.9219 0
L10.8906 0
L10.8906 47.7031
L2.29688 47.7031
L2.29688 54.6875
L10.8906 54.6875
L10.8906 58.5
Q10.8906 67.625 15.1406 71.7969
Q19.3906 75.9844 28.6094 75.9844
z
" id="DejaVuSans-66"/>
     </defs>
     <g transform="translate(398.43703125 40.00181625)scale(0.11 -0.11)">
      <use xlink:href="#DejaVuSans-73"/>
      <use x="52.099609375" xlink:href="#DejaVuSans-77"/>
      <use x="133.88671875" xlink:href="#DejaVuSans-69"/>
      <use x="161.669921875" xlink:href="#DejaVuSans-66"/>
      <use x="195.125" xlink:href="#DejaVuSans-74"/>
      <use x="234.333984375" xlink:href="#DejaVuSans-5f"/>
      <use x="284.333984375" xlink:href="#DejaVuSans-31"/>
      <use x="347.95703125" xlink:href="#DejaVuSans-36"/>
     </g>
    </g>
    <g id="line2d_84">
     <path d="
M370.937 52.6037
L386.337 52.6037" style="fill:none;stroke:#800000;stroke-dasharray:6.000000,6.000000;stroke-dashoffset:0.0;stroke-width:2.0;"/>
    </g>
    <g id="line2d_85"/>
    <g id="text_27">
     <!-- swift_256 -->
     <g transform="translate(398.43703125 56.45369125)scale(0.11 -0.11)">
      <use xlink:href="#DejaVuSans-73"/>
      <use x="52.099609375" xlink:href="#DejaVuSans-77"/>
      <use x="133.88671875" xlink:href="#DejaVuSans-69"/>
      <use x="161.669921875" xlink:href="#DejaVuSans-66"/>
      <use x="195.125" xlink:href="#DejaVuSans-74"/>
      <use x="234.333984375" xlink:href="#DejaVuSans-5f"/>
      <use x="284.333984375" xlink:href="#DejaVuSans-32"/>
      <use x="347.95703125" xlink:href="#DejaVuSans-35"/>
      <use x="411.580078125" xlink:href="#DejaVuSans-36"/>
     </g>
    </g>
    <g id="line2d_86">
     <path d="
M370.937 69.0556
L386.337 69.0556" style="fill:none;stroke:#008000;stroke-dasharray:6.000000,6.000000;stroke-dashoffset:0.0;stroke-width:2.0;"/>
    </g>
    <g id="line2d_87"/>
    <g id="text_28">
     <!-- swift_512 -->
     <g transform="translate(398.43703125 72.90556625)scale(0.11 -0.11)">
      <use xlink:href="#DejaVuSans-73"/>
      <use x="52.099609375" xlink:href="#DejaVuSans-77"/>
      <use x="133.88671875" xlink:href="#DejaVuSans-69"/>
      <use x="161.669921875" xlink:href="#DejaVuSans-66"/>
      <use x="195.125" xlink:href="#DejaVuSans-74"/>
      <use x="234.333984375" xlink:href="#DejaVuSans-5f"/>
      <use x="284.333984375" xlink:href="#DejaVuSans-35"/>
      <use x="347.95703125" xlink:href="#DejaVuSans-31"/>
      <use x="411.580078125" xlink:href="#DejaVuSans-32"/>
     </g>
    </g>
    <g id="line2d_88">
     <path d="
M474.719 36.1518
L490.119 36.1518" style="fill:none;stroke:#000080;stroke-dasharray:6.000000,6.000000;stroke-dashoffset:0.0;stroke-width:2.0;"/>
    </g>
    <g id="line2d_89"/>
    <g id="text_29">
     <!-- swift_64 -->
     <g transform="translate(502.21859375 40.00181625)scale(0.11 -0.11)">
      <use xlink:href="#DejaVuSans-73"/>
      <use x="52.099609375" xlink:href="#DejaVuSans-77"/>
      <use x="133.88671875" xlink:href="#DejaVuSans-69"/>
      <use x="161.669921875" xlink:href="#DejaVuSans-66"/>
      <use x="195.125" xlink:href="#DejaVuSans-74"/>
      <use x="234.333984375" xlink:href="#DejaVuSans-5f"/>
      <use x="284.333984375" xlink:href="#DejaVuSans-36"/>
      <use x="347.95703125" xlink:href="#DejaVuSans-34"/>
     </g>
    </g>
    <g id="line2d_90">
     <path d="
M474.719 52.6037
L490.119 52.6037" style="fill:none;stroke:#808000;stroke-dasharray:6.000000,6.000000;stroke-dashoffset:0.0;stroke-width:2.0;"/>
    </g>
    <g id="line2d_91"/>
    <g id="text_30">
     <!-- swift_128 -->
     <g transform="translate(502.21859375 56.45369125)scale(0.11 -0.11)">
      <use xlink:href="#DejaVuSans-73"/>
      <use x="52.099609375" xlink:href="#DejaVuSans-77"/>
      <use x="133.88671875" xlink:href="#DejaVuSans-69"/>
      <use x="161.669921875" xlink:href="#DejaVuSans-66"/>
      <use x="195.125" xlink:href="#DejaVuSans-74"/>
      <use x="234.333984375" xlink:href="#DejaVuSans-5f"/>
      <use x="284.333984375" xlink:href="#DejaVuSans-31"/>
      <use x="347.95703125" xlink:href="#DejaVuSans-32"/>
      <use x="411.580078125" xlink:href="#DejaVuSans-38"/>
     </g>
    </g>
    <g id="line2d_92">
     <path d="
M474.719 69.0556
L490.119 69.0556" style="fill:none;stroke:#800080;stroke-dasharray:6.000000,6.000000;stroke-dashoffset:0.0;stroke-width:2.0;"/>
    </g>
    <g id="line2d_93"/>
    <g id="text_31">
     <!-- swift_1 -->
     <g transform="translate(502.21859375 72.90556625)scale(0.11 -0.11)">
      <use xlink:href="#DejaVuSans-73"/>
      <use x="52.099609375" xlink:href="#DejaVuSans-77"/>
      <use x="133.88671875" xlink:href="#DejaVuSans-69"/>
      <use x="161.669921875" xlink:href="#DejaVuSans-66"/>
      <use x="195.125" xlink:href="#DejaVuSans-74"/>
      <use x="234.333984375" xlink:href="#DejaVuSans-5f"/>
      <use x="284.333984375" xlink:href="#DejaVuSans-31"/>
     </g>
    </g>
   </g>
  </g>
 </g>
 <defs>
  <clipPath id="p138e1d1e1b">
   <rect height="357.91075" width="501.04125" x="61.99875" y="28.90175"/>
  </clipPath>
 </defs>
</svg>
